<?xml version="1.0" encoding="utf-8"?>
<!-- Generator: Adobe Illustrator 18.1.1, SVG Export Plug-In . SVG Version: 6.00 Build 0)  -->
<svg version="1.1" xmlns="http://www.w3.org/2000/svg" xmlns:xlink="http://www.w3.org/1999/xlink" x="0px" y="0px" width="44px"
	 height="44px" viewBox="0 0 44 44" enable-background="new 0 0 44 44" xml:space="preserve">
<g id="Layer_1">
	<path d="M0,0v44h44V0H0z M29,18.6c0,0.1,0,0.3,0,0.4c0,4.4-3.4,9.5-9.6,9.5c-1.9,0-3.7-0.6-5.2-1.5c0.3,0,0.5,0,0.8,0
		c1.6,0,3-0.5,4.2-1.4c-1.5,0-2.7-1-3.1-2.3c0.2,0,0.4,0.1,0.6,0.1c0.3,0,0.6,0,0.9-0.1C16.1,23,15,21.6,15,20v0
		c0.5,0.2,1,0.4,1.5,0.4c-0.9-0.6-1.5-1.6-1.5-2.8c0-0.6,0.2-1.2,0.5-1.7c1.7,2,4.1,3.3,6.9,3.5c-0.1-0.2-0.1-0.5-0.1-0.8
		c0-1.8,1.5-3.3,3.4-3.3c1,0,1.8,0.4,2.5,1c0.8-0.1,1.5-0.4,2.1-0.8c-0.3,0.8-0.8,1.4-1.5,1.8c0.7-0.1,1.3-0.3,1.9-0.5
		C30.2,17.5,29.7,18.1,29,18.6z"/>
</g>
<g id="Layer_2">
</g>
</svg>
