<?xml version="1.0" encoding="utf-8"?>
<!-- Generator: Adobe Illustrator 18.1.1, SVG Export Plug-In . SVG Version: 6.00 Build 0)  -->
<svg version="1.1" xmlns="http://www.w3.org/2000/svg" xmlns:xlink="http://www.w3.org/1999/xlink" x="0px" y="0px" width="120.5px"
	 height="44px" viewBox="0 0 120.5 44" enable-background="new 0 0 120.5 44" xml:space="preserve">
<g id="Layer_1">
	<path d="M50.2,24.4h0.9c0,0.6-0.1,1.2-0.4,1.6c-0.3,0.4-0.8,0.7-1.4,0.7c-0.7,0-1.3-0.3-1.3-0.9C48,24.6,49.3,24.4,50.2,24.4z
		 M62.9,21.6c-1.1,0-1.7,0.8-1.8,1.8h3.4C64.5,22.4,64.1,21.6,62.9,21.6z M120.5,0v44H0V0H120.5z M36.7,25c0-3.5-4.6-2.7-4.6-4.6
		c0-1.1,0.9-1.5,1.6-1.5c0.7,0,1.5,0.2,2.1,0.5l0.2-1.7c-0.8-0.3-1.6-0.4-2.5-0.4c-1.8,0-3.7,0.9-3.7,3.2c0,3.5,4.6,2.6,4.6,4.6
		c0,0.9-1.1,1.4-1.9,1.4c-0.8,0-1.6-0.3-2.4-0.6L30,27.8c1,0.3,1.5,0.4,2.7,0.4C34.8,28.2,36.7,27.3,36.7,25z M45,23.1
		c0-1.7-0.8-3-2.6-3c-1.1,0-1.9,0.5-2.4,1.2h0v-4.6h-2V28h2v-3.8c0-1,0.3-2.6,1.8-2.6c1.3,0,1.3,1.3,1.3,2.2V28h2V23.1z M53,28
		c0-0.6-0.1-1.1-0.1-1.7c0-0.6,0-1.2,0-1.9v-1c0-2.3-1-3.3-3.3-3.3c-0.9,0-1.9,0.2-2.7,0.6l0.1,1.7c0.7-0.5,1.5-0.8,2.4-0.8
		c1.2,0,1.7,0.4,1.7,1.7H50c-0.8,0-1.8,0.1-2.6,0.4c-0.8,0.4-1.3,1.1-1.3,2.2c0,1.5,1.3,2.3,2.7,2.3c0.9,0,1.9-0.5,2.4-1.3h0
		c0,0.2,0,0.8,0.1,1.2H53z M59,20.2c-0.2-0.1-0.4-0.1-0.6-0.1c-1.2,0-2,1.2-2.1,1.9h0v-1.8h-1.8V28h2v-2.8c0-1.1,0-3.1,1.6-3.1
		c0.4,0,0.7,0.1,0.9,0.2V20.2z M61.2,24.8h5.3c0-2.7-0.8-4.7-3.7-4.7c-2.4,0-3.6,1.8-3.6,4.1c0,2.5,1.5,4,4,4c1.1,0,1.9-0.2,2.7-0.6
		v-1.6c-0.7,0.4-1.6,0.8-2.6,0.8C62.1,26.7,61.2,26,61.2,24.8z M91,21.7l-5.8-5.9l0,3.3c-3.3,0-9.3,1.6-9.3,9.2c0-0.1,0-0.1,0-0.2
		c0-0.1,0-0.1,0.1-0.2c0-0.1,0-0.1,0.1-0.2c0-0.1,0-0.1,0.1-0.2c0-0.1,0.1-0.1,0.1-0.2c0-0.1,0.1-0.1,0.1-0.1c0-0.1,0.1-0.1,0.1-0.1
		c0-0.1,0.1-0.1,0.1-0.2c0-0.1,0.1-0.1,0.1-0.1c0-0.1,0.1-0.1,0.1-0.1c0.1-0.1,0.1-0.1,0.1-0.1c0,0,0.1-0.1,0.1-0.1
		c0.1-0.1,0.1-0.1,0.1-0.1c0.1-0.1,0.1-0.1,0.1-0.1c0,0,0.1-0.1,0.1-0.1c0.1-0.1,0.1-0.1,0.1-0.1c0.1,0,0.1-0.1,0.1-0.1
		c0.1,0,0.1-0.1,0.1-0.1c0.1,0,0.1-0.1,0.1-0.1c0.1,0,0.1-0.1,0.1-0.1c0.1,0,0.1-0.1,0.1-0.1c0.1,0,0.1-0.1,0.2-0.1
		c0,0,0.1-0.1,0.1-0.1c0.1,0,0.1-0.1,0.2-0.1c0.1,0,0.1-0.1,0.2-0.1c0.1,0,0.1,0,0.1-0.1c0.1,0,0.1-0.1,0.2-0.1c0.1,0,0.1,0,0.1-0.1
		c0.1,0,0.1,0,0.2-0.1c0.1,0,0.1,0,0.2-0.1c0.1,0,0.1,0,0.1-0.1c0.1,0,0.1,0,0.2-0.1c0.1,0,0.1,0,0.2-0.1c0.1,0,0.1,0,0.1,0
		c0.1,0,0.1,0,0.2,0c0.1,0,0.1,0,0.2,0c0.1,0,0.1,0,0.2,0c0.1,0,0.1,0,0.2,0c0.1,0,0.1,0,0.2,0c0.1,0,0.1,0,0.2,0c0.1,0,0.1,0,0.2,0
		c0.1,0,0.1,0,0.1,0c0.1,0,0.1,0,0.2,0c0.1,0,0.1,0,0.2,0c0,0,0.1,0,0.1,0c0.1,0,0.1,0,0.2,0c0.1,0,0.1,0,0.2,0c0.1,0,0.1,0,0.1,0
		c0.1,0,0.1,0,0.2,0c0.1,0,0.1,0,0.1,0c0.1,0,0.1,0,0.1,0c0.1,0,0.1,0,0.2,0c0.1,0,0.1,0,0.1,0c0.1,0,0.1,0,0.1,0c0.1,0,0.1,0,0.1,0
		c0,0,0.1,0,0.1,0c0.1,0,0.1,0,0.1,0c0.1,0,0.1,0,0.1,0c0,0,0.1,0,0.1,0c0.1,0,0.1,0,0.1,0c0,0,0.1,0,0.1,0c0,0,0.1,0,0.1,0
		c0,0,0.1,0,0.1,0h0.1h0.1c0,0,0.1,0,0.1,0c0,0,0.1,0,0.1,0c0,0,0,0,0.1,0c0.1,0,0.1,0,0.1,0c0,0,0,0,0.1,0c0,0,0,0,0.1,0
		c0,0,0,0,0.1,0c0,0,0,0,0,0c0,0,0.1,0,0.1,0c0,0,0,0,0,0c0,0,0,0,0.1,0c0,0,0,3.4,0,3.4L91,21.7z"/>
</g>
<g id="Layer_2">
</g>
</svg>
