<?xml version="1.0" encoding="utf-8"?>
<!-- Generator: Adobe Illustrator 18.1.1, SVG Export Plug-In . SVG Version: 6.00 Build 0)  -->
<svg version="1.1" xmlns="http://www.w3.org/2000/svg" xmlns:xlink="http://www.w3.org/1999/xlink" x="0px" y="0px" width="32px"
	 height="32px" viewBox="0 0 32 32" enable-background="new 0 0 32 32" xml:space="preserve">
<g id="Layer_1">
	<path d="M14,18.8v-5.4l4.7,2.7 M32,16c0,8.8-7.2,16-16,16C7.2,32,0,24.8,0,16C0,7.2,7.2,0,16,0C24.8,0,32,7.2,32,16z M24.3,16
		c0-1.3,0-2.7-0.3-4c-0.2-0.9-0.9-1.5-1.8-1.6c-2.1-0.2-4.2-0.2-6.3-0.2c-2.1,0-4.2,0-6.3,0.2c-0.9,0.1-1.6,0.8-1.8,1.6
		c-0.3,1.3-0.3,2.6-0.3,4c0,1.3,0,2.7,0.3,4c0.2,0.9,0.9,1.5,1.8,1.6c2.1,0.2,4.2,0.2,6.3,0.2c2.1,0,4.2,0,6.3-0.2
		c0.9-0.1,1.6-0.8,1.8-1.6C24.3,18.7,24.3,17.3,24.3,16z"/>
</g>
<g id="Layer_2">
</g>
</svg>
