<?xml version="1.0" encoding="utf-8"?>
<!-- Generator: Adobe Illustrator 18.1.1, SVG Export Plug-In . SVG Version: 6.00 Build 0)  -->
<svg version="1.1" xmlns="http://www.w3.org/2000/svg" xmlns:xlink="http://www.w3.org/1999/xlink" x="0px" y="0px" width="32px"
	 height="32px" viewBox="0 0 32 32" enable-background="new 0 0 32 32" xml:space="preserve">
<g id="Layer_1">
	<path d="M16,0C7.2,0,0,7.2,0,16c0,8.8,7.2,16,16,16c8.8,0,16-7.2,16-16C32,7.2,24.8,0,16,0z M23.9,21.9c0,1.1-0.9,2-2,2H10.1
		c-1.1,0-2-0.9-2-2V10.1c0-1.1,0.9-2,2-2h11.8c1.1,0,2,0.9,2,2V21.9z M18.9,12.2v-1.7c0-0.4,0.3-0.7,0.7-0.7h1.8
		c0.4,0,0.7,0.3,0.7,0.7v1.7c0,0.4-0.3,0.7-0.7,0.7h-1.8C19.2,13,18.9,12.6,18.9,12.2z M20.7,14.8h1.4v6.7c0,0.3-0.3,0.6-0.6,0.6
		H10.5c-0.3,0-0.6-0.3-0.6-0.6v-6.7h1.5c-0.1,0.4-0.2,0.9-0.2,1.4c0,2.6,2.2,4.8,4.9,4.8c2.7,0,4.9-2.1,4.9-4.8
		C21,15.7,20.9,15.2,20.7,14.8z M12.8,16c0-1.7,1.4-3.1,3.2-3.1c1.8,0,3.2,1.4,3.2,3.1c0,1.7-1.4,3.1-3.2,3.1
		C14.3,19.1,12.8,17.7,12.8,16z"/>
</g>
<g id="Layer_2">
</g>
</svg>
