<?xml version="1.0" encoding="utf-8"?>
<!-- Generator: Adobe Illustrator 18.1.1, SVG Export Plug-In . SVG Version: 6.00 Build 0)  -->
<svg version="1.1" xmlns="http://www.w3.org/2000/svg" xmlns:xlink="http://www.w3.org/1999/xlink" x="0px" y="0px" width="32px"
	 height="32px" viewBox="0 0 32 32" enable-background="new 0 0 32 32" xml:space="preserve">
<g id="Layer_1">
	<path d="M16,0C7.2,0,0,7.2,0,16c0,8.8,7.2,16,16,16c8.8,0,16-7.2,16-16C32,7.2,24.8,0,16,0z M19.4,16h-2.2v8h-3.3v-8h-1.6v-2.8h1.6
		v-1.8c0-1.3,0.6-3.4,3.4-3.4l2.5,0v2.7h-1.8c-0.3,0-0.7,0.1-0.7,0.8v1.7h2.5L19.4,16z"/>
</g>
<g id="Layer_2">
</g>
</svg>
