<?xml version="1.0" encoding="utf-8"?>
<!-- Generator: Adobe Illustrator 18.1.1, SVG Export Plug-In . SVG Version: 6.00 Build 0)  -->
<svg version="1.1" xmlns="http://www.w3.org/2000/svg" xmlns:xlink="http://www.w3.org/1999/xlink" x="0px" y="0px" width="48px"
	 height="33.4px" viewBox="0 0 48 33.4" enable-background="new 0 0 48 33.4" xml:space="preserve">
<g id="Layer_1">
	<path d="M15.6,12.7h32.2L31.6,26.4L15.6,12.7z M15.2,14.8v18.5H48V14.9L31.6,28.8L15.2,14.8z M0,30V3.5C0,1.6,1.6,0,3.5,0h15
		c1.9,0,3.5,1.6,3.5,3.5v7h-2.3V5.8c0-0.6-0.5-1.2-1.2-1.2h-15c-0.6,0-1.2,0.5-1.2,1.2v19.6c0,0.6,0.5,1.2,1.2,1.2h9.7v2.3H8.1v2.3
		h5.1v2.3H3.5C1.6,33.4,0,31.9,0,30z M6.9,2.3c0,0.3,0.3,0.6,0.6,0.6h6.9c0.3,0,0.6-0.3,0.6-0.6s-0.3-0.6-0.6-0.6H7.5
		C7.2,1.7,6.9,2,6.9,2.3z"/>
</g>
<g id="Layer_2">
</g>
</svg>
