<?xml version="1.0" encoding="utf-8"?>
<!-- Generator: Adobe Illustrator 18.1.1, SVG Export Plug-In . SVG Version: 6.00 Build 0)  -->
<svg version="1.1" xmlns="http://www.w3.org/2000/svg" xmlns:xlink="http://www.w3.org/1999/xlink" x="0px" y="0px" width="50.6px"
	 height="32.5px" viewBox="0 0 50.6 32.5" enable-background="new 0 0 50.6 32.5" xml:space="preserve">
<g id="Layer_1">
	<path fill="#757575" d="M32.2,15.4c0.2-0.1,0.6-0.3,0.9-0.7c0.4-0.6,0.6-1.4,0.7-1.8c0.2-0.9,0.3-2.2-0.2-3.3c-0.1-0.2-0.2-0.3-0.2-0.4
		C33.3,9,33.3,9,33.3,8.8c0-0.3,0.1-1.5,0.1-2.2c0-0.5,0.1-0.8,0.1-1c0-0.2,0-0.3,0-0.5c1-0.4,2.1-0.4,3.4,0c0.7-1.5,6.5-1.7,8,2.6
		c1.7,5.1-0.2,7.9,2.1,10.1c-1.7,1.2-3.6,1.1-5.3,0.5c-0.3,0.3-0.5,0.7-0.8,1c0.3,1.8,1.2,3.7,3.7,4.4c1.9,0.6,4.1,1.2,5.4,2.5
		c1,1,0.3,3.5,0.3,3.5h-5.8c0-0.3,0-0.5,0-0.8c0-0.8,0-1.4,0-1.9v-0.2l-0.1-0.2c-0.6-1.8-2.3-2.4-3.7-2.9c-0.4-0.1-0.7-0.2-1-0.4
		c-0.7-0.3-1.4-0.6-2.1-0.9c-1.1-0.5-2.2-1-3.3-1.4c0.3-0.6,0.5-1.2,0.6-1.8c-0.3-0.3-0.6-0.7-0.9-1.1c-0.7,0.3-1.5,0.5-2.3,0.5
		l-0.2-0.5l-0.1,0c0.1-0.2,0.3-0.4,0.4-0.7c0.1-0.4,0.2-0.9,0.2-1.3c0-0.3,0-0.6,0.1-0.8C32.1,15.5,32.2,15.5,32.2,15.4z M7.2,29.8
		c0-0.3,0-0.6,0-0.9c0-0.7,0-1.4,0-1.9v-0.2l0.1-0.2c0.6-1.8,2.3-2.4,3.7-2.9c0.4-0.1,0.7-0.2,1-0.4c0.7-0.3,1.4-0.6,2.1-0.9
		c1.2-0.5,2.3-1,3.5-1.5l0.1,0l0.4-0.1c-0.3-0.4-0.5-1-0.7-1.4c-0.2,0-0.5-0.1-0.7-0.1c0-0.8,0.5-0.9,0.7-1.5c0.2-0.5,0-1.3,0.3-1.8
		c0.2-0.4,0.6-0.4,0.8-0.7c0.1-0.2,0.2-0.4,0.3-0.7c-0.8-0.9-1-2.3-1.1-3.9c0-0.2,0-0.3,0-0.5c0-0.5,0.2-0.9,0.3-1.2
		c0.1-0.3,0.1-0.3,0.1-0.4C17.9,8,17.8,7,17.7,6.2c0,0,0,0-0.1,0L16.8,6l-0.5-0.5c-2.2-1.3-4.5-0.4-5.7,0.1
		c-1.8,0.6-2.9,2.3-2.1,6.1c0.1,0.6-0.4,0.9-0.3,1.3c0.1,0.8,0.1,2.6,0.8,3c0.1,0,0.6,0.2,0.6,0.1c0.1,0.7,0.1,1.5,0.2,2.2
		c0.2,0.5,0.6,0.5,0.7,1.2l-0.6,0.1c-0.2,0.5-0.7,1.6-1.2,1.9c-0.4,0.1-0.8,0.2-1.2,0.3c-1.4,0.6-2.9,1.2-4.3,1.8
		c-1.3,0.5-2.7,0.7-3.2,2c0,0.8-0.1,2.5-0.1,3.6c0,0.2,0,0.3,0,0.5H7.2z M19.8,14.5c0.1,0.1,0.8,0.2,0.7,0.2c0.1,1,0.2,1.9,0.3,2.9
		c0.2,0.6,0.8,0.7,1,1.6L21,19.3c-0.3,0.7-0.9,2.1-1.5,2.5c-0.5,0.1-1,0.3-1.5,0.4c-1.8,0.7-3.7,1.6-5.5,2.3
		c-1.6,0.7-3.6,0.9-4.1,2.6c0,1.1-0.1,3.8-0.1,5.3h35.3c0-1.5-0.1-4.2-0.1-5.3c-0.6-1.7-2.5-1.9-4.1-2.6c-1.8-0.7-3.8-1.6-5.5-2.3
		c-0.5-0.1-1-0.3-1.5-0.4c-0.6-0.4-1.2-1.8-1.5-2.5c-0.3,0-0.6-0.1-1-0.1c0-1.1,0.7-1.1,1-1.9c0.2-0.7,0-1.6,0.4-2.3
		c0.3-0.5,0.8-0.5,1.1-0.9c0.3-0.4,0.4-1,0.5-1.4c0.1-0.8,0.3-1.9-0.1-2.7c-0.2-0.5-0.4-0.5-0.4-1c-0.1-0.7,0.2-2.8,0.2-3.3
		c0-1.2,0-1.3-0.3-2.5c0,0-0.4-1.1-0.9-1.4l-1.1-0.2l-0.7-0.6c-2.8-1.7-5.8-0.5-7.5,0.1c-2.3,0.8-3.8,3-2.8,7.9
		c0.2,0.8-0.5,1.2-0.4,1.6C18.8,11.5,18.8,13.9,19.8,14.5z"/>
</g>
<g id="Layer_2">
</g>
</svg>
