<?xml version="1.0" encoding="utf-8"?>
<!-- Generator: Adobe Illustrator 18.1.1, SVG Export Plug-In . SVG Version: 6.00 Build 0)  -->
<svg version="1.1" xmlns="http://www.w3.org/2000/svg" xmlns:xlink="http://www.w3.org/1999/xlink" x="0px" y="0px" width="44px"
	 height="44px" viewBox="0 0 44 44" enable-background="new 0 0 44 44" xml:space="preserve">
<g id="Layer_1">
	<g>
		<path d="M20.5,12.4L20.5,12.4c-1.9,0-3.7,0.7-5,2.1c-1.3,1.3-2.1,3.1-2.1,5c0,3.9,3.1,7.1,7,7.1h0c1.9,0,3.7-0.7,5-2.1
			c1.3-1.3,2.1-3.1,2.1-5c0-1.9-0.7-3.7-2-5C24.2,13.2,22.4,12.4,20.5,12.4z M25.4,20.7h-3.3V24h-2.9v-3.3h-3.3v-2.9h3.3v-3.3h2.9
			v3.3h3.3V20.7z"/>
		<path d="M0,0v44h44V0H0z M34.6,31.8l-1.9,1.9c-0.4,0.4-1.1,0.4-1.6,0l-0.1-0.1h0l-5.8-5.8c-1.4,0.8-3,1.3-4.8,1.3h-0.1
			c-5.2,0-9.5-4.3-9.4-9.6c0-5.2,4.3-9.4,9.5-9.4h0.1c5.2,0,9.5,4.3,9.4,9.6c0,1.7-0.5,3.3-1.3,4.7l5.8,5.8l0.1,0.1
			C35.1,30.6,35.1,31.3,34.6,31.8z"/>
	</g>
</g>
<g id="Layer_2">
</g>
</svg>
