<?xml version="1.0" encoding="utf-8"?>
<!-- Generator: Adobe Illustrator 18.1.1, SVG Export Plug-In . SVG Version: 6.00 Build 0)  -->
<svg version="1.1" xmlns="http://www.w3.org/2000/svg" xmlns:xlink="http://www.w3.org/1999/xlink" x="0px" y="0px" width="20.5px"
	 height="19.8px" viewBox="0 0 20.5 19.8" enable-background="new 0 0 20.5 19.8" xml:space="preserve">
<g id="Layer_1">
	<path d="M16,3.3H4.5V0H16V3.3z M15.1,9.9v8.7h-4.8c-1.7,0-0.9-4.1-0.9-4.1s-4,1-4.1-0.9V9.9H4.2v5.3l0.3,0.3l4.3,4.2h7.5V9.9H15.1z
		 M20.5,5.4v7.2h-3V8.3H3v4.4H0V5.4c0-0.5,0.4-1,1-1h18.5C20,4.4,20.5,4.9,20.5,5.4z M19.1,6.1c0-0.4-0.4-0.8-0.8-0.8
		c-0.4,0-0.8,0.4-0.8,0.8c0,0.4,0.4,0.8,0.8,0.8C18.7,6.9,19.1,6.5,19.1,6.1z"/>
</g>
<g id="Layer_2">
</g>
</svg>
