<?xml version="1.0" encoding="utf-8"?>
<!-- Generator: Adobe Illustrator 18.1.1, SVG Export Plug-In . SVG Version: 6.00 Build 0)  -->
<svg version="1.1" xmlns="http://www.w3.org/2000/svg" xmlns:xlink="http://www.w3.org/1999/xlink" x="0px" y="0px" width="216px"
	 height="33.6px" viewBox="0 0 216 33.6" enable-background="new 0 0 216 33.6" xml:space="preserve">
<g id="Layer_1">
	<path d="M74.6,0.6c0.1,0,0.2,0.1,0.4,0.1c0.2-0.1,0.2-0.3,0.4-0.2c0.2,0.1,0.2,0.4,0.2,0.6c0.1,0.8,0.2,1.7,0.3,2.6
		c0,0.1,0,0.1-0.1,0.2c-0.1,0-0.2,0-0.3,0c-0.2-0.2-0.2-0.5-0.4-0.8c-0.2-0.4-0.6-0.8-1-1.1c-0.8-0.7-1.7-1.1-2.8-1.1
		c-0.3,0-0.6,0-0.9,0c-0.4,0.1-0.9,0.2-1.2,0.4c-0.5,0.3-0.9,0.8-1,1.3c-0.2,0.5-0.1,1.1,0.1,1.6c0.3,0.5,0.7,0.9,1.2,1.2
		c0.5,0.2,1,0.4,1.4,0.6c0.4,0.1,0.7,0.2,1,0.3c1.1,0.4,2.2,0.7,3.1,1.6c0.4,0.5,0.8,1,0.9,1.6c0.1,0.2,0.1,0.3,0.1,0.5
		c0.1,0.2,0,0.5,0.1,0.7c0,0.1,0,0.2,0,0.3c0,0,0,0.1,0,0.2c-0.1,1.2-1,2.4-2.1,2.9c-0.1,0-0.2,0.1-0.3,0.2c-0.1,0-0.2,0.1-0.4,0.1
		c-0.2,0.1-0.4,0.1-0.7,0.2c-0.2,0.1-0.4,0.1-0.6,0.1c-1,0.2-2.1,0.2-3.1,0c-0.7-0.2-1.4-0.3-2-0.8c-0.2-0.2-0.2-0.4-0.2-0.7
		c-0.1-0.8-0.3-1.5-0.4-2.3c0-0.1,0-0.2,0.1-0.3c0.1,0,0.2-0.1,0.3,0c0.1,0.2,0.2,0.4,0.3,0.6c0.1,0.3,0.3,0.5,0.5,0.8
		c0,0.1,0.1,0.1,0.1,0.1c0.6,0.7,1.4,1.2,2.3,1.5c0.2,0,0.4,0.1,0.6,0.1c0.4,0.1,0.8,0.1,1.2,0.1c0.2,0,0.4-0.1,0.5,0
		c0.8-0.1,1.4-0.5,1.9-1.1c0.4-0.5,0.7-1.2,0.6-1.9c-0.1-0.3-0.1-0.6-0.3-0.8c-0.4-0.7-1-1.1-1.6-1.4c-0.1-0.1-0.3-0.1-0.4-0.2
		c-0.8-0.3-1.6-0.5-2.5-0.8c-0.4-0.1-0.8-0.3-1.1-0.5c-0.8-0.4-1.5-1.1-1.8-1.9C67,4.4,67,3.5,67.2,2.7c0.1-0.4,0.2-0.7,0.5-1
		c0.1-0.1,0.2-0.2,0.2-0.3c0.6-0.7,1.5-1.1,2.4-1.3C71,0,71.7,0,72.4,0C73.2,0.1,73.9,0.3,74.6,0.6 M91.4,0.5c0-0.1,0-0.1-0.1-0.1
		c-0.3-0.2-0.7-0.1-1.1-0.1c-0.1,0-0.3,0.1-0.4,0c-0.7,0-1.4,0-2,0l0,0c-0.2,0-0.3,0-0.5,0c-0.1,0-0.1,0.1-0.1,0.1
		c0,0.1,0.1,0.3,0.2,0.3C87.6,1,88,1.2,88.3,1.4c0.6,0.6,0.3,1.5,0.4,2.3v2.1c0,0.3,0,0.7-0.2,0.9c-0.3,0.1-0.7,0-1.1,0l-3,0l-2.9,0
		l-0.2,0c-0.2-0.1-0.3-0.3-0.4-0.5l0-1.8V2.3c0-0.3,0.1-0.6,0.3-0.8c0.3-0.4,0.7-0.5,1.1-0.8c0.1-0.1,0.1-0.1,0-0.2
		c0-0.1-0.1-0.1-0.2-0.1c-0.5,0-1.1,0-1.6,0.1l0,0c-0.6,0-1.2,0-1.8-0.1c-0.3,0-0.6-0.1-0.9,0c-0.1,0-0.1,0.1-0.1,0.1
		c0,0.1,0.1,0.2,0.1,0.2C78,0.9,78.3,1,78.5,1.2c0.2,0.1,0.4,0.3,0.6,0.5C79.4,2,79.4,2.5,79.3,3l0,2.3l0,6.3c0,0.8-0.1,1.6-0.8,2.1
		c-0.3,0.2-0.6,0.2-0.8,0.5c0,0.1,0,0.3,0.1,0.4c0.3,0,0.6,0,0.9,0c1.1,0,2.3,0,3.3,0c0.2,0,0.5,0.1,0.6-0.1c0-0.2-0.1-0.3-0.3-0.4
		c-0.6-0.3-1.6-0.6-1.6-1.5l0-4c0-0.2,0-0.4,0-0.6c0-0.1,0.1-0.2,0.1-0.3c0.1-0.1,0.2-0.2,0.4-0.2l2.1,0l3,0h1.8l0.2,0
		c0.2,0.1,0.3,0.3,0.3,0.5c0,1.4,0,2.8,0,4.2l0,0l0,0c0,0.3,0,0.7-0.2,1c-0.3,0.4-0.8,0.6-1.1,1c0,0.1-0.1,0.2,0,0.3
		c0,0.1,0.1,0.1,0.2,0.1c0.6,0,1.2-0.1,1.8-0.1l0,0c0.8,0,1.6,0,2.4,0.1l0.1,0c0.1-0.1,0.1-0.1,0.1-0.2c0-0.1-0.1-0.2-0.2-0.3
		c-0.5-0.3-1-0.4-1.3-0.9c0,0,0-0.1-0.1-0.1c-0.1-0.2-0.2-0.4-0.2-0.7l0-2.1c0,0,0,0,0,0l0-5.1l0-1.9V3c0-0.2,0-0.5,0-0.7
		c0-0.4,0.1-0.7,0.4-1c0.3-0.3,0.7-0.4,0.9-0.7C91.4,0.6,91.4,0.6,91.4,0.5 M65.8,0.4c-0.2-0.2-0.5-0.1-0.7-0.1c-0.6,0.1-1.4,0-2,0
		c-0.3,0-0.5,0-0.8,0c-0.1,0-0.3,0-0.4,0.1c-0.1,0.1-0.1,0.2-0.1,0.3c0.2,0.4,0.6,0.5,1,0.7c0.4,0.2,0.8,0.6,0.9,1.1
		c0.1,0.8,0,1.5,0,2.2l0,2.8l0,1.8c0,0.1,0,0.3,0,0.4l0,0c0,0.3,0,0.7-0.1,1c0,0,0,0.1,0,0.1c-0.1,0.7-0.3,1.3-0.8,1.9
		c-0.8,1.1-2.2,1.4-3.5,1.3c-0.5,0-0.9-0.1-1.3-0.3c-0.5-0.2-0.8-0.5-1.2-0.8c-0.4-0.4-0.7-0.9-0.9-1.4c-0.2-0.6-0.4-1.2-0.5-1.8
		c0-0.2,0-0.5,0-0.7l0-1.6V5.6c0-1.2,0-2.4,0-3.6c0-0.5,0.6-0.9,1-1.1c0.2-0.1,0.4-0.3,0.3-0.5c-0.2-0.2-0.5-0.1-0.8-0.1
		c-0.9,0-1.7,0.1-2.5,0c-0.1,0-0.1,0-0.2,0c-0.2,0-0.3,0-0.4,0c-0.2,0-0.4,0-0.6,0.1c-0.1,0.1,0,0.3,0.1,0.4c0.5,0.4,1.1,0.5,1.5,1
		c0,0,0,0,0,0.1c0,0.1,0,0.1,0,0.2c0,0.8,0,1.5,0,2.3l0,4.2c0,0.4,0,0.8,0,1.2c0,0.1,0,0.1,0.1,0.2c0,0,0,0,0,0
		c0,0.4,0.1,0.8,0.2,1.2c0,0.1,0,0.2,0.1,0.3c0.1,0.4,0.2,0.7,0.4,1c0,0,0,0,0,0.1c0.3,0.5,0.7,0.9,1.2,1.2c0.2,0.1,0.3,0.2,0.5,0.3
		c0.6,0.2,1.1,0.4,1.8,0.5c0.3,0.1,0.6,0.1,1,0.1l0,0c1.2,0,2.3,0,3.2-0.5c0.7-0.3,1.3-1,1.7-1.6c0-0.1,0.1-0.2,0.2-0.3
		c0.2-0.3,0.3-0.7,0.4-1c0.1-0.3,0.2-0.7,0.2-1.1c0-0.4,0.1-0.9,0-1.3V5.9c0-1.1,0-2.3,0-3.4l0,0c0-0.5,0.2-0.9,0.5-1.2
		C65.3,1,65.8,0.8,65.8,0.4 M45.2,0.8c0.3,0,0.7,0.1,1,0.2c0.3,0.1,0.5,0.2,0.8,0.4c0.1,0,0.2,0.2,0.3,0.2c0.6,0.6,0.9,1.4,1,2.2
		c0,0.9-0.1,1.8-0.8,2.4c-0.1,0.1-0.2,0.1-0.3,0.2c-0.3,0.1-0.5,0.3-0.8,0.3c0,0-0.1,0-0.1,0c-0.3,0.1-0.6,0.1-1,0.1
		c-0.6,0-1.2,0.1-1.8-0.1c-0.1,0-0.1-0.1-0.2-0.2c0-0.9,0-1.9,0-2.8l0-2.3c0-0.3,0-0.6,0.3-0.7C44.1,0.7,44.7,0.8,45.2,0.8
		 M49.1,1.3c-1-0.9-2.3-1.1-3.6-1c-0.6,0-1.2,0-1.8,0.1c-0.2,0-0.3,0-0.5,0c-0.6,0-1.3,0-1.9,0c-0.3,0-0.5-0.1-0.8-0.1
		c-0.1,0-0.3,0.1-0.4,0.2c0,0.1,0,0.2,0.1,0.3C40.6,0.9,40.9,1,41.1,1c0.5,0.1,0.7,0.6,0.8,1c0.1,0.7,0,1.4,0,2.1L42,7v0.2l0,2.7
		l0,2.3c0,0.7-0.1,1.3-0.8,1.7C41.1,13.9,41,14,40.8,14c-0.1,0.1-0.2,0.1-0.2,0.2c-0.1,0.1-0.1,0.2-0.1,0.3c0,0.1,0.1,0.1,0.2,0.1
		c0.3,0,0.6,0,1,0c0.4,0,0.8-0.1,1.2,0c0.1,0,0.3,0,0.4,0l0,0c0.4,0,0.8,0,1.1,0c0.4,0,0.8,0.1,1.2,0c0.1,0,0.1-0.1,0.1-0.2
		c0-0.1-0.1-0.2-0.1-0.2c-0.3-0.1-0.6-0.2-1-0.3c-0.4-0.1-0.8-0.5-0.9-0.9c0-0.2-0.1-0.3-0.1-0.5l0-2.9V8.4c0-0.1,0-0.2,0-0.4
		c0.1-0.1,0.2-0.2,0.4-0.2c0.6,0,1.2,0,1.8,0c0.6,0,0.7,0.7,1,1.1c0.4,0.6,0.8,1.2,1.2,1.8c0.1,0.2,0.2,0.4,0.4,0.6
		c0.5,0.8,1,1.6,1.5,2.3c0.4,0.6,1,0.8,1.6,0.9c0.5,0,1.1,0,1.6-0.1c0.1,0,0.3,0,0.3-0.2c0-0.2-0.3-0.2-0.4-0.3c0,0-0.1,0-0.1,0
		c-0.4-0.1-0.7-0.4-1-0.6c-0.2-0.2-0.4-0.4-0.6-0.7c-0.1-0.1-0.2-0.3-0.3-0.4C50,10.9,49,9.5,48.1,8.1c-0.2-0.3-0.4-0.5-0.5-0.8
		c0.3-0.2,0.6-0.3,0.9-0.6c0.9-0.7,1.5-1.6,1.6-2.6C50.1,3.1,49.9,2.1,49.1,1.3 M101.5,2.2c0-1.4,1.3-0.9,1.3-1.4
		c0-0.2-0.5-0.2-0.6-0.2c-0.6,0-1.3,0.1-1.9,0.1c-0.5,0-1-0.1-1.6-0.1c-0.1,0-0.4,0.1-0.4,0.2c0,0.6,1.6,0.2,1.6,1.3v6.7
		c0,3.1,1,6,6.2,6c5.8,0,5.6-4.9,5.6-5.9V2.7c0-1.8,1.2-1.4,1.2-2c0-0.1-0.2-0.2-0.3-0.2c-0.4,0-0.7,0.1-1.1,0.1
		c-0.8,0-1.6-0.1-2.3-0.1c-0.1,0-0.2,0.1-0.2,0.2c0,0.8,1.9-0.1,1.9,2v6.4c0,2.4-0.9,4.8-4.6,4.8c-2.7,0-4.8-1.5-4.8-4.6V2.2z
		 M116.2,11.8c0,2.8-1.7,1.9-1.7,2.6c0,0.1,0,0.2,0.3,0.2c0.1,0,1.2-0.1,1.9-0.1c1,0,1.5,0.1,2,0.1c0.2,0,0.2-0.2,0.2-0.3
		c0-0.5-1.8,0.2-1.8-1.6V4.6c0-0.4,0.1-0.5,0.1-0.5c0.1,0,0.4,0.3,0.4,0.4l8.6,9.6c0.4,0.5,0.6,0.6,0.8,0.6c0.2,0,0.2-0.3,0.2-0.9
		V2.3c0-1.5,1.2-1.1,1.2-1.6c0-0.1-0.1-0.2-0.2-0.2c-0.5,0-1.3,0.1-2,0.1c-0.6,0-1.2-0.1-1.8-0.1c-0.1,0-0.2,0.1-0.2,0.2
		c0,0.7,2.2-0.1,2.2,2.5v8.3c0,0.2,0,0.2-0.1,0.2c0,0-0.1-0.1-0.2-0.2L116.5,1c-0.1-0.1-0.3-0.5-0.5-0.5c-0.3,0-0.6,0.1-0.9,0.1
		c-0.3,0-0.6-0.1-0.9-0.1c-0.1,0-0.3,0.1-0.3,0.2c0,0.7,2.4-0.4,2.4,3.7V11.8z M131.5,12.4c0,2-1.6,1.3-1.6,1.9
		c0,0.2,0.1,0.3,0.4,0.3c0.3,0,0.7-0.1,1.9-0.1c0.9,0,1.7,0.1,2.2,0.1c0.3,0,0.4-0.1,0.4-0.2c0-0.6-1.8-0.1-1.8-1.5V2.2
		c0-1.5,1.4-1,1.4-1.5c0-0.2-0.1-0.2-0.4-0.2c-0.6,0-1.2,0.1-1.8,0.1c-0.7,0-1.5-0.1-2.2-0.1c-0.2,0-0.2,0-0.2,0.2
		c0,0.4,1.6,0,1.6,1.5V12.4z M142.1,13.7c0.2,0.4,0.4,1.3,0.7,1.3c0.3,0,0.4-0.7,0.7-1.2l5-11.7c0.6-1.3,1.1-0.8,1.1-1.3
		c0-0.2-0.1-0.3-0.3-0.3c-0.3,0-0.6,0.1-1.5,0.1c-0.4,0-0.9-0.1-1.3-0.1c-0.2,0-0.3,0.1-0.3,0.3c0,0.5,1.3,0.1,1.3,1
		c0.1,0.4-0.2,1.1-0.3,1.4l-3.5,8.5c-0.1,0.2-0.2,0.6-0.4,0.6c-0.2,0-0.4-0.5-0.8-1.5L139,2.5c-0.1-0.2-0.2-0.5-0.2-0.8
		c0-0.7,0.8-0.7,0.8-1c0-0.1-0.2-0.2-0.3-0.2c-0.3,0-1,0.1-1.6,0.1c-0.6,0-1.2-0.1-1.8-0.1c-0.2,0-0.3,0.1-0.3,0.3
		c0,0.4,1,0.1,1.5,1.3L142.1,13.7z M153.5,2.6c0-1.3,0-1.3,1.9-1.3c0.8,0,2.9-0.1,3.4,0.6c0.3,0.5,0,1.4,0.5,1.4
		c0.1,0,0.4-0.2,0.4-2.4c0-0.2,0-0.4-0.2-0.4c-0.6,0-2.4,0.1-2.8,0.1c-0.8,0-1.9-0.1-5.6-0.1c-0.6,0-0.7,0.1-0.7,0.2
		c0,0.2,0.4,0.3,0.6,0.3c1.1,0.2,1.1,1.1,1.1,2v9.1c0,0.9,0,1.5-0.6,1.7c-0.6,0.3-0.8,0.3-0.9,0.5c0,0.2,0.1,0.2,0.3,0.2
		c0.8,0,1.6,0,2.4-0.1c1.5,0,3,0.1,4.6,0.1c0.9,0,1.3,0,1.9-0.7c0.5-0.5,1-1.2,1-1.9c0,0,0-0.2-0.2-0.2c-0.3,0-0.9,2-5.5,2
		c-1.7,0-1.5-0.5-1.5-1.7V8.5c0-0.3-0.1-0.6,0.4-0.6h3c1.7,0,1,1.8,1.6,1.8c0.1,0,0.2-0.1,0.2-0.3c0-0.5,0-1.1,0-1.6
		c0-0.6,0-1.3,0-2c0-0.2-0.1-0.4-0.2-0.4c-0.5,0,0.1,1.6-2,1.6h-2.2c-0.8,0-0.8,0-0.8-0.7V2.6z M171.8,12.4c1.4,2.2,2.4,1.4,2.4,1.9
		c0,0.2-1.1,0.2-1.3,0.2c-1.5,0-2.2-1-3-2.1L167.7,9c-0.7-1.1-0.4-1-2.7-1c-0.6,0-0.5,0.4-0.5,0.6v4.2c0,1.7,2.1,1.1,2.1,1.8
		c0,0.2-0.2,0.2-0.3,0.2c-0.2,0-0.6-0.1-2.3-0.1c-0.8,0-1.5,0.1-2.3,0.1c-0.1,0-0.2-0.1-0.2-0.2c0-0.5,1.5-0.2,1.5-1.7V2.5
		c0-1.9-1.7-1.1-1.7-1.8c0-0.1,0.2-0.2,0.4-0.2c0.4,0,0.3,0.1,1.3,0.1c1.1,0,2.3-0.1,3.3-0.1c0.3,0,4.7-0.4,4.7,3.4
		c0,1.6-1.1,2.9-2.5,3.4L171.8,12.4z M164.5,7c0,0.4,1.2,0.3,2.2,0.3c0.9,0,2.8-0.4,2.8-2.8c0-2.4-1.9-3.2-3.8-3.2
		c-0.7,0-1.1,0-1.1,0.7V7z M175.3,13.7c0.1,0.4,1.9,1.1,3.4,1.1c4.5,0,5.7-2.5,5.7-4.2c0-5.5-8.1-3.3-8.1-7.1c0-1.8,1.7-2.6,3.3-2.6
		c1.8,0,3.2,0.9,3.8,2.6c0.1,0.2,0.2,0.6,0.4,0.6c0.2,0,0.2-0.1,0.2-0.3l-0.3-2.7c0-0.2-0.1-0.3-0.2-0.3c-0.2,0-0.2,0.2-0.4,0.2
		c-0.3,0-0.9-0.7-3.4-0.7c-2.3,0-4.4,1.2-4.4,3.8c0,5.2,8.1,3,8.1,6.9c0,2.1-1.9,3.1-3.8,3.1c-2.8,0-4-2.1-4.2-3
		c-0.1-0.4-0.1-0.7-0.4-0.7c-0.2,0-0.3,0.2-0.2,0.6L175.3,13.7z M186.7,12.4c0,2-1.6,1.3-1.6,1.9c0,0.2,0.1,0.3,0.4,0.3
		c0.3,0,0.7-0.1,1.9-0.1c0.9,0,1.7,0.1,2.2,0.1c0.3,0,0.4-0.1,0.4-0.2c0-0.6-1.8-0.1-1.8-1.5V2.2c0-1.5,1.4-1,1.4-1.5
		c0-0.2-0.1-0.2-0.4-0.2c-0.6,0-1.2,0.1-1.8,0.1c-0.7,0-1.4-0.1-2.2-0.1c-0.2,0-0.2,0-0.2,0.2c0,0.4,1.6,0,1.6,1.5V12.4z
		 M196.7,12.9c0,1.2-1.6,1-1.6,1.5c0,0.2,0.1,0.3,0.2,0.3c0.1,0,0.5-0.1,2.7-0.1c0.6,0,1.1,0.1,1.6,0.1c0.2,0,0.2-0.2,0.2-0.2
		c0-0.6-1.6,0-1.6-1.6V2.6c0-1.1-0.1-1,0.8-1h2.9c2,0,1,1.5,1.7,1.5c0.3,0,0.2-0.2,0.2-0.4l-0.1-1.6c0-0.5-0.1-0.6-0.6-0.6
		c-0.4,0-2.2,0.1-5.9,0.1c-2.6,0-4.1-0.1-5.7-0.1c-0.4,0-0.3,0.5-0.4,0.8L191,3.2c0,0.1,0.1,0.2,0.2,0.2c0.3,0,0.3-0.3,0.3-0.5
		c0.4-1.1,0.4-1.4,1.6-1.4h3.2c0.3,0,0.2,0.8,0.2,0.9V12.9z M209.1,7.1c0.2,0.2,0.5,0.6,0.5,1v4.8c0,1.4-1.5,0.9-1.5,1.5
		c0,0.2,0.1,0.2,0.3,0.2s0.9-0.1,1.8-0.1c0.7,0,1.9,0.1,2.2,0.1c0.3,0,0.5,0,0.5-0.2c0-0.6-1.6-0.1-1.6-1.8V7.8
		c0-0.3,0.2-0.4,0.5-0.9l2.8-4.3c0.3-0.5,0.6-1.1,1.1-1.4c0.1-0.1,0.5-0.2,0.5-0.4c0-0.1-0.1-0.2-0.2-0.2c-0.6,0-1.2,0.1-1.7,0.1
		c-0.5,0-1-0.1-1.5-0.1c-0.2,0-0.4,0-0.4,0.3c0,0.5,1.5,0.1,1.5,1c0,0.5-0.3,0.9-0.4,1.1l-2.1,3.3c-0.2,0.3-0.3,0.4-0.4,0.4
		c-0.1,0-0.2-0.1-0.4-0.4L208,2.5c-0.1-0.2-0.4-0.5-0.4-0.8c0-0.6,0.9-0.6,0.9-0.9c0-0.2-0.2-0.2-0.4-0.2c-0.2,0-0.7,0.1-1.4,0.1
		c-1.4,0-1.7-0.1-2.3-0.1c-0.1,0-0.3,0.2-0.3,0.3c0,0.3,1,0.1,1.5,1L209.1,7.1z M22.1,1.9c-1.5-0.7-3-1.3-4.7-1.5
		c-0.8-0.1-1.6-0.2-2.5-0.1c-1.2,0.1-2.5,0.2-3.7,0.6C9.1,1.6,7,2.7,5.2,4.4C3.8,5.7,2.6,7.2,1.8,8.9c-0.4,0.8-0.7,1.6-1,2.4
		c-0.3,0.9-0.6,1.9-0.7,2.9c0,0.1-0.1,0.2,0,0.3l0.7,0h4.5l0.2-0.1c0.1-0.7,0.1-1.2,0.3-1.9C5.9,12.1,6,11.6,6.1,11
		c0.3-0.9,0.6-1.9,1-2.7C7.3,7.9,7.5,7.4,7.8,7c0.7-1.2,1.4-2.3,2.5-3.3c1.1-0.9,2.3-1.8,3.8-2c0.7-0.1,1.4-0.2,2.1-0.1
		c1.2,0.1,2.2,0.6,3.2,1.3c1.5,1,2.6,2.3,3.4,3.8c0.7,1.1,1.2,2.2,1.6,3.4c0.4,1.4,0.8,2.7,1,4.2c0,0.1,0,0.2,0.1,0.2
		c1.6,0,3.4,0,5.1,0l0.3,0c-0.2-1.6-0.7-3.2-1.4-4.6C28.1,6.5,25.4,3.6,22.1,1.9 M13.8,7.7c-0.4,0-0.8,0-1.2,0c0,0.3,0,0.6,0,0.8
		c0,0.7,0.1,1.4,0.2,2c0,0.2,0,0.4,0,0.6c0.1,1.9,0.2,3.7,0.3,5.6c0,0.3,0,0.5,0,0.8c0,1.1,0.1,2.3,0,3.4c0.1,1.9,0,3.7,0,5.5
		c-0.1,0.3,0.1,0.7,0,1c0,1.2-0.1,2.3-0.2,3.4c0,0.3,0,0.5-0.2,0.8c-0.2,0.2-0.5,0.1-0.7,0c-2.1-1.1-3.8-3.2-4.8-5.4
		c-0.1-0.1,0-0.2-0.1-0.2c0,0,0-0.1,0-0.1c-0.5-1-0.9-2.1-1.2-3.3c-0.3-1-0.5-2.1-0.6-3.2l-0.4,0l-5,0l0,0c0.2,1,0.4,2,0.7,2.9
		c0.9,2.9,2.7,5.6,5.2,7.7c0.6,0.5,1.3,1,2,1.4c0.6,0.3,1.2,0.6,1.8,0.9c1,0.4,2,0.7,3.1,0.9c0.1,0,0.2,0.1,0.3,0l0,0
		c0.6,0.1,1.3,0.1,1.9,0.2c3.3,0.1,6.4-0.9,9-2.7c1-0.7,1.9-1.5,2.7-2.4c0.6-0.7,1.1-1.4,1.6-2.1c0.9-1.4,1.5-2.9,2-4.5
		c0.2-0.7,0.4-1.3,0.5-2c0-0.1,0.1-0.3,0-0.4h-1.7l-3.7,0l-0.1,0c-0.2,2-0.7,4-1.5,5.8c0,0.1-0.1,0.2-0.1,0.3
		c-0.5,1.1-1.1,2.1-1.8,3.1c-0.4,0.5-0.7,0.9-1.2,1.4c-0.5,0.4-1,0.9-1.5,1.2c-0.3,0.2-0.6,0.5-1,0.4c-0.5-0.3-0.3-0.9-0.4-1.4
		c-0.1-1.3-0.2-2.6-0.2-3.9l0,0c-0.1-1.2,0-2.6,0-3.7c0-1.9,0-3.7,0.1-5.5l0-1.3l0-0.1C17.8,13,18,10.5,18.1,8
		c-0.1-0.1,0.1-0.2,0-0.3L13.8,7.7z M216,19.8H40.3v0.9H216V19.8z M44.4,25.3c-2.4,0-4.1,1.9-4.1,4.3c0,2.4,1.7,4,4,4
		c2.6,0,3.4-0.9,3.4-0.9l0.3-1.1c0-0.1,0-0.1-0.1-0.1c-0.1,0-0.1,0.1-0.2,0.1c-0.2,0.5-1.3,1.7-3.1,1.7c-2.2,0-3.3-2-3.3-4
		c0-2.1,1.1-3.6,3.3-3.6c1.5,0,2.3,0.7,3,2c0,0.1,0.1,0.4,0.3,0.4c0.2,0,0.1-0.4,0.1-1c0-0.7,0-0.9-0.2-0.9c-0.1,0-0.2,0.1-0.3,0.1
		C47.1,26.2,46.5,25.3,44.4,25.3 M49.7,29.1c0-1.8,1.1-3.4,3-3.4c2.2,0,3.6,2,3.6,4.1c0,2.1-1.3,3.5-3,3.5
		C51,33.3,49.7,31.2,49.7,29.1 M48.8,29.5c0,2.4,1.5,4.2,4,4.2c2.6,0,4.3-1.7,4.3-4.2c0-2.4-1.8-4.1-4.1-4.1
		C50.7,25.3,48.8,27.1,48.8,29.5 M59.3,26.6c0-1,0.8-0.7,0.8-1c0-0.1-0.1-0.2-0.2-0.2c-0.2,0-0.4,0-1.1,0c-0.6,0-0.9,0-1.2,0
		c-0.1,0-0.2,0-0.2,0.2c0,0.2,1,0.1,1,0.7v5.8c0,0.5,0,0.9-0.3,1c-0.4,0.2-0.5,0.2-0.5,0.3c0,0.1,0.1,0.1,0.2,0.1c0.5,0,0.9,0,1.4,0
		c0.9,0,1.7,0,2.6,0c0.5,0,0.8,0,1.1-0.4c0.3-0.3,0.6-0.7,0.6-1.1c0,0,0-0.1-0.1-0.1c-0.2,0-0.5,1.2-3.2,1.2c-1,0-0.9-0.3-0.9-1
		V26.6z M65.7,26.6c0-1,0.8-0.7,0.8-1c0-0.1-0.1-0.2-0.2-0.2c-0.2,0-0.4,0-1.1,0c-0.6,0-0.9,0-1.2,0c-0.2,0-0.2,0-0.2,0.2
		c0,0.2,1,0.1,1,0.7v5.8c0,0.5,0,0.9-0.3,1c-0.4,0.2-0.5,0.2-0.5,0.3c0,0.1,0.1,0.1,0.2,0.1c0.5,0,0.9,0,1.4,0c0.9,0,1.7,0,2.6,0
		c0.5,0,0.8,0,1.1-0.4c0.3-0.3,0.6-0.7,0.6-1.1c0,0,0-0.1-0.1-0.1c-0.1,0-0.5,1.2-3.2,1.2c-1,0-0.9-0.3-0.9-1V26.6z M72.2,26.6
		c0-0.8,0-0.7,1.1-0.7c0.5,0,1.6-0.1,1.9,0.3c0.2,0.3,0,0.8,0.3,0.8c0.1,0,0.2-0.1,0.2-1.4c0-0.1,0-0.3-0.1-0.3c-0.4,0-1.4,0-1.6,0
		c-0.5,0-1.1,0-3.2,0c-0.3,0-0.4,0-0.4,0.1c0,0.1,0.3,0.2,0.3,0.2c0.6,0.1,0.6,0.6,0.6,1.2v5.2c0,0.5,0,0.9-0.3,1
		c-0.4,0.2-0.5,0.2-0.5,0.3c0,0.1,0.1,0.1,0.2,0.1c0.5,0,0.9,0,1.4,0c0.9,0,1.7,0,2.6,0c0.5,0,0.8,0,1.1-0.4
		c0.3-0.3,0.6-0.7,0.6-1.1c0,0,0-0.1-0.1-0.1c-0.1,0-0.5,1.2-3.2,1.2c-1,0-0.9-0.3-0.9-0.9V30c0-0.2,0-0.4,0.2-0.4h1.7
		c1,0,0.6,1,0.9,1c0.1,0,0.1,0,0.1-0.1c0-0.3,0-0.6,0-0.9c0-0.4,0-0.8,0-1.2c0-0.1,0-0.2-0.1-0.2c-0.3,0,0,0.9-1.2,0.9h-1.2
		c-0.5,0-0.4,0-0.4-0.4V26.6z M82.9,29.3c-0.1,0-0.3,0-0.3,0.1c0,0.3,1,0,1,0.6v1.8c0,1-1.3,1.5-2.4,1.5c-2.2,0-3.4-1.9-3.4-4
		c0-1.9,1-3.6,3.1-3.6c2.7,0,3.2,2.2,3.5,2.2c0.1,0,0.1-0.1,0.1-0.2l-0.1-1.5c0-0.1,0-0.3-0.1-0.3c-0.1,0-0.2,0.2-0.3,0.2
		c-0.3,0-0.9-0.8-2.9-0.8c-2.4,0-4.3,1.7-4.3,4.2c0,2.5,1.6,4.1,4.1,4.1c2,0,2.3-0.8,3.5-1.2v-2.3c0-0.8,0.6-0.5,0.6-0.7
		c0-0.2-0.2-0.1-0.3-0.1H82.9z M87.5,26.6c0-0.8,0-0.7,1.1-0.7c0.5,0,1.7-0.1,1.9,0.3c0.2,0.3,0,0.8,0.3,0.8c0.1,0,0.2-0.1,0.2-1.4
		c0-0.1,0-0.3-0.1-0.3c-0.4,0-1.4,0-1.6,0c-0.5,0-1.1,0-3.2,0c-0.3,0-0.4,0-0.4,0.1c0,0.1,0.3,0.2,0.3,0.2c0.6,0.1,0.6,0.6,0.6,1.2
		v5.2c0,0.5,0,0.9-0.3,1c-0.4,0.2-0.5,0.2-0.5,0.3c0,0.1,0.1,0.1,0.2,0.1c0.5,0,0.9,0,1.4,0c0.9,0,1.7,0,2.6,0c0.5,0,0.8,0,1.1-0.4
		c0.3-0.3,0.6-0.7,0.6-1.1c0,0,0-0.1-0.1-0.1c-0.1,0-0.5,1.2-3.2,1.2c-1,0-0.9-0.3-0.9-0.9V30c0-0.2,0-0.4,0.2-0.4h1.7
		c1,0,0.6,1,0.9,1c0.1,0,0.1,0,0.1-0.1c0-0.3,0-0.6,0-0.9c0-0.4,0-0.8,0-1.2c0-0.1,0-0.2-0.1-0.2c-0.3,0,0,0.9-1.2,0.9H88
		c-0.5,0-0.4,0-0.4-0.4V26.6z M95.9,29.1c0-1.8,1.1-3.4,3-3.4c2.2,0,3.6,2,3.6,4.1c0,2.1-1.3,3.5-3,3.5
		C97.3,33.3,95.9,31.2,95.9,29.1 M95.1,29.5c0,2.4,1.5,4.2,4,4.2c2.6,0,4.3-1.7,4.3-4.2c0-2.4-1.8-4.1-4.1-4.1
		C96.9,25.3,95.1,27.1,95.1,29.5 M105.8,26.6c0-0.8,0-0.7,1.1-0.7c0.5,0,1.7-0.1,1.9,0.3c0.2,0.3,0,0.8,0.3,0.8
		c0.1,0,0.2-0.1,0.2-1.4c0-0.1,0-0.3-0.1-0.3c-0.4,0-1.4,0-1.6,0c-0.5,0-1.1,0-3.3,0c-0.3,0-0.4,0-0.4,0.1c0,0.1,0.3,0.2,0.3,0.2
		c0.6,0.1,0.6,0.6,0.6,1.2v5.3c0,1.3-0.8,0.9-0.8,1.3c0,0,0,0.1,0.1,0.1c0.2,0,0.6-0.1,1.2-0.1c1.1,0,1.2,0.1,1.3,0.1
		c0.1,0,0.3,0,0.3-0.2c0-0.3-1.1,0-1.1-1.1V30c0-0.2-0.1-0.4,0.2-0.4h1.7c1,0,0.6,1,0.9,1c0.1,0,0.1,0,0.1-0.1c0-0.3,0-0.6,0-0.9
		c0-0.4,0-0.8,0-1.2c0-0.1,0-0.2-0.1-0.2c-0.3,0,0,0.9-1.2,0.9h-1.2c-0.5,0-0.4,0-0.4-0.4V26.6z M113.7,32.3c0,1.1-0.9,0.8-0.9,1.1
		c0,0.1,0,0.2,0.1,0.2c0,0,0.2,0,1,0c0.6,0,1.4,0,1.6,0c0.1,0,0.2,0,0.2-0.1c0-0.4-1.1-0.1-1.1-0.9v-2.9c0-0.1,0-0.2,0.1-0.2h4.2
		c0.1,0,0.1,0.1,0.1,0.3v2.7c0,0.7-0.8,0.6-0.8,0.8c0,0.2,0.2,0.1,0.3,0.1c0.2,0,0.5,0,1.3,0c0.4,0,0.8,0,1.1,0
		c0.1,0,0.1-0.1,0.1-0.1c0-0.3-1-0.1-1-0.9v-6.1c0-0.8,0.8-0.6,0.8-0.8c0-0.1,0-0.2-0.3-0.2c-0.2,0-0.4,0-0.8,0c-0.2,0-0.8,0-1.2,0
		c-0.2,0-0.2,0.1-0.2,0.1c0,0.3,0.9,0.1,0.9,0.9v2.4c0,0,0,0.3-0.1,0.3h-4.2c-0.2,0-0.2,0-0.2-0.2v-2.5c0-0.9,0.8-0.6,0.8-0.9
		c0,0,0-0.1-0.2-0.1c-0.4,0-0.7,0-1.1,0c-0.4,0-0.8,0-1.3,0c-0.1,0-0.2,0-0.2,0.1c0,0.2,1,0,1,0.9V32.3z M123.5,26.6
		c0-0.8,0-0.7,1.1-0.7c0.5,0,1.6-0.1,1.9,0.3c0.2,0.3,0,0.8,0.3,0.8c0.1,0,0.2-0.1,0.2-1.4c0-0.1,0-0.3-0.1-0.3c-0.4,0-1.4,0-1.6,0
		c-0.5,0-1.1,0-3.2,0c-0.3,0-0.4,0-0.4,0.1c0,0.1,0.2,0.2,0.3,0.2c0.6,0.1,0.6,0.6,0.6,1.2v5.2c0,0.5,0,0.9-0.3,1
		c-0.4,0.2-0.5,0.2-0.5,0.3c0,0.1,0.1,0.1,0.2,0.1c0.5,0,0.9,0,1.4,0c0.9,0,1.7,0,2.6,0c0.5,0,0.8,0,1.1-0.4
		c0.3-0.3,0.6-0.7,0.6-1.1c0,0,0-0.1-0.1-0.1c-0.1,0-0.5,1.2-3.2,1.2c-1,0-0.9-0.3-0.9-0.9V30c0-0.2,0-0.4,0.2-0.4h1.7
		c1,0,0.6,1,0.9,1c0.1,0,0.1,0,0.1-0.1c0-0.3,0-0.6,0-0.9c0-0.4,0-0.8,0-1.2c0-0.1,0-0.2-0.1-0.2c-0.3,0,0,0.9-1.2,0.9h-1.2
		c-0.5,0-0.4,0-0.4-0.4V26.6z M131.7,26.9c0.1-0.1,0.1-0.1,0.2,0l1.1,2.8c0.1,0.2,0.1,0.2-0.2,0.2h-2.3c-0.2,0-0.2-0.1-0.2-0.2
		L131.7,26.9z M133.9,31.8c0.1,0.3,0.4,0.8,0.4,1.1c0,0.4-0.7,0.3-0.7,0.6c0,0.1,0.2,0.1,0.2,0.1c0.3,0,0.6,0,0.9,0
		c0.5,0,0.9,0,1.4,0c0.1,0,0.2,0,0.2-0.1c0-0.3-0.7,0-1-0.6c-0.3-0.4-0.4-0.9-0.6-1.3l-2.4-5.9c0-0.1-0.1-0.4-0.2-0.4
		c-0.1,0-0.2,0.2-0.9,1.6l-2.7,5.8c-0.3,0.7-0.8,0.5-0.8,0.7c0,0.1,0,0.1,0.1,0.1c0.3,0,0.6,0,0.9,0c0.3,0,0.6,0,1,0
		c0.2,0,0.3,0,0.3-0.2c0-0.3-0.8,0-0.8-0.8c0-0.1,0-0.3,0.1-0.4l0.7-1.6c0.1-0.2,0.3-0.2,0.5-0.2h2.5c0.3,0,0.4,0.2,0.5,0.4
		L133.9,31.8z M138.6,26.6c0-1,0.8-0.7,0.8-1c0-0.1-0.1-0.2-0.2-0.2c-0.2,0-0.4,0-1.1,0c-0.6,0-0.9,0-1.2,0c-0.1,0-0.2,0-0.2,0.2
		c0,0.2,1,0.1,1,0.7v5.8c0,0.5,0,0.9-0.3,1c-0.4,0.2-0.5,0.2-0.5,0.3c0,0.1,0.1,0.1,0.2,0.1c0.5,0,0.9,0,1.4,0c0.9,0,1.7,0,2.6,0
		c0.5,0,0.8,0,1.1-0.4c0.3-0.3,0.6-0.7,0.6-1.1c0,0,0-0.1-0.1-0.1c-0.2,0-0.5,1.2-3.2,1.2c-1,0-0.9-0.3-0.9-1V26.6z M144.8,32.6
		c0,0.7-0.9,0.6-0.9,0.9c0,0.1,0,0.1,0.1,0.1c0.1,0,0.3,0,1.6,0c0.3,0,0.7,0,0.9,0c0.1,0,0.1-0.1,0.1-0.1c0-0.4-0.9,0-0.9-0.9v-5.8
		c0-0.6-0.1-0.6,0.5-0.6h1.6c1.2,0,0.6,0.9,1,0.9c0.1,0,0.1-0.1,0.1-0.3l-0.1-0.9c0-0.3-0.1-0.3-0.3-0.3c-0.2,0-1.3,0-3.4,0
		c-1.5,0-2.4,0-3.3,0c-0.2,0-0.2,0.3-0.2,0.4l-0.1,1.1c0,0.1,0,0.1,0.1,0.1c0.1,0,0.2-0.2,0.2-0.3c0.2-0.6,0.2-0.8,0.9-0.8h1.9
		c0.2,0,0.1,0.5,0.1,0.5V32.6z M150.6,32.3c0,1.1-0.9,0.8-0.9,1.1c0,0.1,0,0.2,0.1,0.2c0,0,0.2,0,1,0c0.6,0,1.4,0,1.6,0
		c0.1,0,0.2,0,0.2-0.1c0-0.4-1.1-0.1-1.1-0.9v-2.9c0-0.1,0-0.2,0.1-0.2h4.2c0.1,0,0.1,0.1,0.1,0.3v2.7c0,0.7-0.8,0.6-0.8,0.8
		c0,0.2,0.2,0.1,0.3,0.1c0.2,0,0.5,0,1.3,0c0.4,0,0.8,0,1.1,0c0.1,0,0.1-0.1,0.1-0.1c0-0.3-1-0.1-1-0.9v-6.1c0-0.8,0.8-0.6,0.8-0.8
		c0-0.1,0-0.2-0.3-0.2c-0.2,0-0.4,0-0.8,0c-0.2,0-0.8,0-1.2,0c-0.2,0-0.2,0.1-0.2,0.1c0,0.3,0.9,0.1,0.9,0.9v2.4c0,0,0,0.3-0.1,0.3
		h-4.2c-0.2,0-0.2,0-0.2-0.2v-2.5c0-0.9,0.8-0.6,0.8-0.9c0,0,0-0.1-0.2-0.1c-0.4,0-0.7,0-1.1,0c-0.4,0-0.8,0-1.3,0
		c-0.1,0-0.2,0-0.2,0.1c0,0.2,1,0,1,0.9V32.3z M161.9,33c0,0.2,1.1,0.6,1.9,0.6c2.6,0,3.3-1.4,3.3-2.4c0-3.2-4.7-1.9-4.7-4.1
		c0-1.1,1-1.5,1.9-1.5c1,0,1.8,0.5,2.2,1.5c0,0.1,0.1,0.3,0.2,0.3c0.1,0,0.1-0.1,0.1-0.2l-0.2-1.6c0-0.1-0.1-0.2-0.1-0.2
		c-0.1,0-0.1,0.1-0.2,0.1c-0.2,0-0.5-0.4-1.9-0.4c-1.3,0-2.5,0.7-2.5,2.2c0,3,4.7,1.8,4.7,4c0,1.2-1.1,1.8-2.2,1.8
		c-1.6,0-2.3-1.2-2.4-1.7c-0.1-0.2-0.1-0.4-0.2-0.4c-0.1,0-0.2,0.1-0.1,0.4L161.9,33z M172,25.3c-2.4,0-4.1,1.9-4.1,4.3
		c0,2.4,1.7,4,4,4c2.6,0,3.4-0.9,3.4-0.9l0.3-1.1c0-0.1,0-0.1-0.1-0.1c-0.1,0-0.1,0.1-0.2,0.1c-0.2,0.5-1.3,1.7-3.1,1.7
		c-2.2,0-3.4-2-3.4-4c0-2.1,1.1-3.6,3.3-3.6c1.5,0,2.3,0.7,3,2c0,0.1,0.1,0.4,0.3,0.4c0.2,0,0.1-0.4,0.1-1c0-0.7,0-0.9-0.2-0.9
		c-0.1,0-0.2,0.1-0.3,0.1C174.8,26.2,174.2,25.3,172,25.3 M177.5,32.3c0,1.1-0.9,0.8-0.9,1.1c0,0.1,0,0.2,0.2,0.2c0.2,0,0.4,0,1.1,0
		c0.5,0,1,0,1.3,0c0.2,0,0.2,0,0.2-0.1c0-0.3-1-0.1-1-0.9v-6.2c0-0.9,0.8-0.6,0.8-0.9c0-0.1,0-0.1-0.2-0.1c-0.4,0-0.7,0-1.1,0
		c-0.4,0-0.8,0-1.3,0c-0.1,0-0.1,0-0.1,0.1c0,0.2,0.9,0,0.9,0.9V32.3z M181.9,26.6c0-0.8,0-0.7,1.1-0.7c0.5,0,1.6-0.1,1.9,0.3
		c0.2,0.3,0,0.8,0.3,0.8c0.1,0,0.2-0.1,0.2-1.4c0-0.1,0-0.3-0.1-0.3c-0.4,0-1.4,0-1.6,0c-0.5,0-1.1,0-3.2,0c-0.3,0-0.4,0-0.4,0.1
		c0,0.1,0.3,0.2,0.3,0.2c0.6,0.1,0.6,0.6,0.6,1.2v5.2c0,0.5,0,0.9-0.3,1c-0.4,0.2-0.5,0.2-0.5,0.3c0,0.1,0.1,0.1,0.2,0.1
		c0.5,0,0.9,0,1.4,0c0.9,0,1.7,0,2.6,0c0.5,0,0.8,0,1.1-0.4c0.3-0.3,0.6-0.7,0.6-1.1c0,0,0-0.1-0.1-0.1c-0.1,0-0.5,1.2-3.2,1.2
		c-1,0-0.9-0.3-0.9-0.9V30c0-0.2,0-0.4,0.2-0.4h1.7c1,0,0.6,1,0.9,1c0.1,0,0.1,0,0.1-0.1c0-0.3,0-0.6,0-0.9c0-0.4,0-0.8,0-1.2
		c0-0.1,0-0.2-0.1-0.2c-0.3,0,0,0.9-1.2,0.9h-1.2c-0.5,0-0.4,0-0.4-0.4V26.6z M187.7,31.9c0,1.6-1,1.1-1,1.5c0,0.1,0,0.1,0.2,0.1
		c0.1,0,0.7,0,1.1,0c0.6,0,0.9,0,1.2,0c0.1,0,0.1-0.1,0.1-0.1c0-0.3-1,0.1-1-0.9v-4.7c0-0.2,0-0.3,0.1-0.3c0.1,0,0.2,0.2,0.2,0.2
		l4.9,5.5c0.2,0.3,0.4,0.3,0.4,0.3c0.1,0,0.1-0.2,0.1-0.5v-6.6c0-0.8,0.7-0.6,0.7-0.9c0-0.1,0-0.1-0.1-0.1c-0.3,0-0.8,0-1.2,0
		c-0.4,0-0.7,0-1,0c-0.1,0-0.1,0-0.1,0.1c0,0.4,1.3-0.1,1.3,1.4v4.8c0,0.1,0,0.1,0,0.1c0,0-0.1,0-0.1-0.1l-5.5-6.1
		c-0.1-0.1-0.2-0.3-0.3-0.3c-0.2,0-0.4,0-0.5,0c-0.2,0-0.4,0-0.5,0c-0.1,0-0.2,0-0.2,0.1c0,0.4,1.4-0.2,1.4,2.1V31.9z M199.4,25.3
		c-2.4,0-4.1,1.9-4.1,4.3c0,2.4,1.7,4,4,4c2.6,0,3.4-0.9,3.4-0.9l0.3-1.1c0-0.1,0-0.1-0.1-0.1c-0.1,0-0.1,0.1-0.2,0.1
		c-0.2,0.5-1.3,1.7-3.1,1.7c-2.2,0-3.3-2-3.3-4c0-2.1,1.1-3.6,3.3-3.6c1.5,0,2.3,0.7,3,2c0,0.1,0.1,0.4,0.3,0.4c0.2,0,0.1-0.4,0.1-1
		c0-0.7,0-0.9-0.2-0.9c-0.1,0-0.2,0.1-0.3,0.1C202.1,26.2,201.5,25.3,199.4,25.3 M205.5,26.6c0-0.8,0-0.7,1.1-0.7
		c0.5,0,1.7-0.1,1.9,0.3c0.2,0.3,0,0.8,0.3,0.8c0.1,0,0.2-0.1,0.2-1.4c0-0.1,0-0.3-0.1-0.3c-0.4,0-1.4,0-1.6,0c-0.5,0-1.1,0-3.2,0
		c-0.3,0-0.4,0-0.4,0.1c0,0.1,0.3,0.2,0.3,0.2c0.6,0.1,0.6,0.6,0.6,1.2v5.2c0,0.5,0,0.9-0.3,1c-0.4,0.2-0.5,0.2-0.5,0.3
		c0,0.1,0.1,0.1,0.2,0.1c0.5,0,0.9,0,1.4,0c0.9,0,1.7,0,2.6,0c0.5,0,0.8,0,1.1-0.4c0.3-0.3,0.6-0.7,0.6-1.1c0,0,0-0.1-0.1-0.1
		c-0.1,0-0.5,1.2-3.2,1.2c-1,0-0.9-0.3-0.9-0.9V30c0-0.2,0-0.4,0.2-0.4h1.7c1,0,0.6,1,0.9,1c0.1,0,0.1,0,0.1-0.1c0-0.3,0-0.6,0-0.9
		c0-0.4,0-0.8,0-1.2c0-0.1,0-0.2-0.1-0.2c-0.3,0,0,0.9-1.2,0.9h-1.2c-0.5,0-0.4,0-0.4-0.4V26.6z M210.6,33c0,0.2,1.1,0.6,1.9,0.6
		c2.6,0,3.3-1.4,3.3-2.4c0-3.2-4.7-1.9-4.7-4.1c0-1.1,1-1.5,1.9-1.5c1,0,1.8,0.5,2.2,1.5c0,0.1,0.1,0.3,0.2,0.3
		c0.1,0,0.1-0.1,0.1-0.2l-0.2-1.6c0-0.1-0.1-0.2-0.1-0.2c-0.1,0-0.1,0.1-0.2,0.1c-0.2,0-0.5-0.4-1.9-0.4c-1.3,0-2.5,0.7-2.5,2.2
		c0,3,4.7,1.8,4.7,4c0,1.2-1.1,1.8-2.2,1.8c-1.6,0-2.3-1.2-2.4-1.7c-0.1-0.2-0.1-0.4-0.2-0.4c-0.1,0-0.2,0.1-0.1,0.4L210.6,33z"/>
</g>
<g id="Layer_2">
</g>
</svg>
