<?xml version="1.0" encoding="utf-8"?>
<!-- Generator: Adobe Illustrator 18.1.1, SVG Export Plug-In . SVG Version: 6.00 Build 0)  -->
<svg version="1.1" xmlns="http://www.w3.org/2000/svg" xmlns:xlink="http://www.w3.org/1999/xlink" x="0px" y="0px" width="216px"
	 height="33.7px" viewBox="0 0 216 33.7" enable-background="new 0 0 216 33.7" xml:space="preserve">
<g id="Layer_1">
	<path d="M74.6,0.6c0.1,0,0.2,0.1,0.4,0.1c0.1-0.1,0.2-0.3,0.4-0.2c0.2,0.1,0.2,0.4,0.2,0.6c0.1,0.8,0.2,1.7,0.3,2.6
		c0,0.1,0,0.1-0.1,0.2c-0.1,0-0.2,0-0.3,0c-0.2-0.2-0.2-0.5-0.4-0.8c-0.2-0.4-0.6-0.8-1-1.1c-0.8-0.7-1.7-1.1-2.8-1.1
		c-0.3,0-0.6,0-0.9,0c-0.4,0.1-0.8,0.2-1.2,0.4c-0.5,0.3-0.9,0.8-1,1.3c-0.2,0.5-0.1,1.1,0.1,1.6c0.3,0.5,0.7,0.9,1.3,1.2
		c0.5,0.2,1,0.4,1.4,0.6c0.4,0.1,0.7,0.2,1,0.3c1.1,0.3,2.2,0.7,3.1,1.6c0.4,0.5,0.8,1,0.9,1.6c0.1,0.2,0.1,0.3,0.1,0.5
		c0.1,0.2,0,0.5,0.1,0.7c0,0.1,0,0.2,0,0.3c0,0,0,0.1,0,0.2c-0.1,1.2-1,2.4-2.1,2.9C74.2,14,74.1,14,74,14.1c-0.1,0-0.3,0.1-0.4,0.1
		c-0.2,0.1-0.4,0.1-0.7,0.2c-0.2,0.1-0.4,0.1-0.6,0.1c-1,0.2-2.1,0.2-3.1,0c-0.7-0.2-1.4-0.3-2-0.8c-0.2-0.2-0.2-0.4-0.2-0.7
		c-0.1-0.8-0.3-1.5-0.4-2.3c0-0.1,0-0.2,0.1-0.3c0.1,0,0.2-0.1,0.3,0c0.1,0.2,0.2,0.4,0.3,0.6c0.1,0.3,0.3,0.5,0.5,0.8
		c0,0.1,0.1,0.1,0.1,0.1c0.6,0.7,1.4,1.3,2.3,1.6c0.2,0.1,0.4,0.1,0.6,0.1c0.4,0.1,0.8,0.1,1.2,0.1c0.2,0,0.4-0.1,0.5,0
		c0.8-0.1,1.4-0.6,1.9-1.1c0.4-0.5,0.7-1.2,0.6-1.9c-0.1-0.3-0.1-0.6-0.3-0.8c-0.3-0.7-1-1.1-1.6-1.4c-0.1-0.1-0.3-0.1-0.4-0.2
		c-0.8-0.3-1.6-0.5-2.5-0.8c-0.4-0.1-0.8-0.3-1.1-0.5c-0.8-0.4-1.5-1.1-1.8-1.9C67,4.4,67,3.5,67.2,2.7c0.1-0.4,0.2-0.7,0.5-1
		c0.1-0.1,0.2-0.2,0.2-0.3c0.6-0.7,1.5-1.1,2.4-1.3C71,0,71.7,0,72.4,0C73.2,0.1,73.9,0.3,74.6,0.6 M91.4,0.4c0-0.1-0.1-0.1-0.1-0.1
		c-0.3-0.2-0.7-0.1-1.1-0.1c-0.1,0-0.3,0.1-0.4,0c-0.7,0-1.4,0-2,0l0,0c-0.2,0-0.3,0-0.5,0c-0.1,0-0.1,0.1-0.1,0.1
		c0,0.1,0.1,0.3,0.2,0.4c0.3,0.2,0.7,0.4,0.9,0.6c0.6,0.6,0.3,1.5,0.4,2.3v2.1c0,0.3,0,0.7-0.2,0.9c-0.4,0.1-0.7,0-1.1,0l-3,0
		l-2.9,0l-0.2,0c-0.2-0.1-0.3-0.3-0.4-0.5l0-1.8V2.2c0-0.3,0.1-0.6,0.3-0.8c0.3-0.4,0.7-0.5,1.1-0.8c0.1-0.1,0.1-0.1,0-0.2
		c0-0.1-0.1-0.1-0.2-0.1c-0.5,0-1.1,0-1.6,0.1l0,0c-0.6,0-1.2,0-1.8-0.1c-0.3,0-0.6-0.1-0.9,0c-0.1,0-0.1,0.1-0.1,0.1
		c0,0.1,0,0.2,0.1,0.2c0.3,0.2,0.6,0.3,0.8,0.4c0.2,0.1,0.4,0.3,0.6,0.5c0.3,0.4,0.2,0.9,0.2,1.3l0,2.3l0,6.3c0,0.8-0.1,1.6-0.8,2.1
		c-0.3,0.2-0.6,0.3-0.8,0.5c0,0.1,0,0.3,0.1,0.4c0.3,0,0.6,0,0.9,0c1.1,0,2.3,0,3.3,0c0.2,0,0.5,0.1,0.6-0.1c0-0.2-0.1-0.3-0.3-0.4
		c-0.6-0.3-1.6-0.6-1.6-1.5l0-4c0-0.2,0-0.4,0-0.6c0-0.1,0.1-0.2,0.1-0.3c0.1-0.1,0.2-0.2,0.4-0.2l2.1,0l3,0h1.8l0.2,0
		c0.2,0.1,0.3,0.3,0.3,0.5c0,1.4,0,2.8,0,4.2l0,0l0,0c0,0.3,0,0.7-0.2,1c-0.3,0.4-0.8,0.6-1.1,1c0,0.1-0.1,0.2,0,0.3
		c0,0.1,0.1,0.1,0.2,0.1c0.6,0,1.2-0.1,1.8-0.1l0,0c0.8,0,1.6,0,2.4,0.1l0.1,0c0.1-0.1,0.2-0.1,0.2-0.2c0-0.1-0.1-0.2-0.2-0.3
		c-0.5-0.3-1-0.4-1.3-0.9c0,0,0-0.1-0.1-0.1c-0.1-0.2-0.2-0.4-0.2-0.7l0-2.1c0,0,0,0,0,0l0-5.1l0-1.9V3c0-0.2,0-0.5,0-0.7
		c0-0.4,0.1-0.7,0.4-1c0.3-0.3,0.7-0.4,0.9-0.7C91.4,0.6,91.5,0.5,91.4,0.4 M65.8,0.4c-0.2-0.2-0.5-0.1-0.7-0.1c-0.6,0.1-1.4,0-2,0
		c-0.3,0-0.5,0-0.8,0c-0.1,0-0.3,0-0.4,0.1c-0.1,0.1-0.1,0.2-0.1,0.3c0.2,0.4,0.6,0.5,1,0.7c0.4,0.2,0.8,0.6,0.9,1.1
		c0.1,0.8,0,1.5,0,2.2l0,2.8l0,1.8c0,0.1,0,0.3,0,0.4l0,0c0,0.3,0,0.7-0.1,1c0,0,0,0.1,0,0.1c-0.1,0.7-0.4,1.3-0.8,1.9
		c-0.8,1.1-2.2,1.4-3.5,1.3c-0.5,0-0.9-0.1-1.3-0.3c-0.4-0.2-0.8-0.5-1.2-0.8c-0.4-0.4-0.7-0.9-0.9-1.4c-0.2-0.6-0.4-1.2-0.5-1.8
		c0-0.2,0-0.5-0.1-0.7l0-1.6V5.6c0-1.2,0-2.4,0-3.6c0-0.5,0.6-0.8,1-1.1c0.2-0.1,0.4-0.3,0.3-0.5c-0.2-0.2-0.5-0.1-0.8-0.1
		c-0.9,0-1.7,0.1-2.5,0c-0.1,0-0.1,0-0.2,0c-0.2,0-0.3,0-0.4,0c-0.2,0-0.4,0-0.6,0.1c-0.1,0.1,0,0.3,0.1,0.4c0.5,0.4,1.1,0.5,1.5,1
		c0,0,0,0,0,0.1c0,0.1,0,0.1,0,0.2c0,0.8,0,1.5,0,2.3l0,4.2c0,0.4,0,0.8,0,1.2c0,0.1,0,0.1,0.1,0.2c0,0,0,0,0,0
		c0,0.4,0.1,0.8,0.2,1.2c0,0.1,0,0.2,0.1,0.3c0.1,0.4,0.2,0.7,0.4,1c0,0,0.1,0,0,0.1c0.3,0.5,0.7,0.9,1.2,1.2
		c0.2,0.1,0.3,0.2,0.5,0.3c0.6,0.3,1.1,0.4,1.8,0.5c0.3,0.1,0.6,0.1,1,0.1l0,0c1.2,0,2.3,0,3.2-0.5c0.7-0.3,1.3-1,1.7-1.6
		c0-0.1,0.1-0.2,0.2-0.3c0.2-0.3,0.3-0.7,0.4-1c0.1-0.3,0.2-0.7,0.2-1.1c0-0.4,0.1-0.9,0-1.3V5.9c0-1.1,0-2.3,0-3.4l0,0
		c0-0.5,0.2-0.9,0.5-1.2C65.3,1,65.8,0.8,65.8,0.4 M45.3,0.8c0.3,0,0.7,0.1,1,0.2c0.3,0.1,0.5,0.2,0.8,0.4c0.1,0,0.2,0.2,0.3,0.2
		c0.6,0.6,0.9,1.4,1,2.2c0,0.9-0.1,1.8-0.8,2.4c-0.1,0.1-0.2,0.1-0.3,0.2c-0.3,0.1-0.5,0.3-0.8,0.3c0,0-0.1,0-0.1,0
		c-0.3,0.1-0.6,0.1-1,0.1c-0.6,0-1.2,0.1-1.8-0.1c-0.1,0-0.1-0.1-0.2-0.2c0-0.9,0-1.9,0-2.8l0-2.3c0-0.3,0-0.6,0.3-0.7
		C44.1,0.7,44.7,0.8,45.3,0.8 M49.1,1.3c-1-0.9-2.3-1.1-3.6-1c-0.6,0-1.2,0-1.8,0.1c-0.2,0-0.3,0-0.5,0c-0.6,0-1.3,0-1.9,0
		c-0.3,0-0.5-0.1-0.8-0.1c-0.1,0-0.3,0.1-0.3,0.2c0,0.1,0,0.2,0.1,0.3C40.6,0.9,40.9,1,41.1,1c0.5,0.1,0.7,0.6,0.8,1
		c0.1,0.7,0,1.4,0,2.1L42,7v0.2l0,2.7l0,2.3c0,0.7-0.1,1.3-0.8,1.7C41.1,13.9,41,14,40.8,14c-0.1,0.1-0.2,0.1-0.2,0.2
		c-0.1,0.1-0.1,0.2-0.1,0.3c0,0.1,0.1,0.1,0.2,0.1c0.3,0,0.6,0,0.9,0c0.4,0,0.8-0.1,1.2,0c0.1,0,0.3,0,0.4,0l0,0c0.4,0,0.8,0,1.1,0
		c0.4,0,0.8,0.1,1.2,0c0.1,0,0.1-0.1,0.1-0.2c0-0.1-0.1-0.2-0.1-0.2c-0.3-0.1-0.6-0.2-1-0.3c-0.4-0.1-0.8-0.5-0.9-0.9
		c0-0.2-0.1-0.3-0.1-0.5l0-2.9V8.4c0-0.1,0-0.2,0-0.4c0.1-0.1,0.2-0.2,0.4-0.2c0.6,0,1.2,0,1.8,0c0.6,0.1,0.7,0.7,1,1.1
		c0.4,0.6,0.8,1.2,1.2,1.8c0.1,0.2,0.2,0.4,0.4,0.6c0.5,0.8,1,1.6,1.5,2.3c0.4,0.6,1,0.8,1.6,0.9c0.5,0,1.1,0,1.6-0.1
		c0.1,0,0.3,0,0.3-0.2c0-0.2-0.3-0.2-0.4-0.3c0,0-0.1,0-0.1,0c-0.4-0.1-0.7-0.4-1-0.6c-0.2-0.2-0.4-0.5-0.6-0.7
		c-0.1-0.1-0.2-0.3-0.3-0.4C50,10.9,49,9.5,48.1,8.1c-0.2-0.3-0.4-0.5-0.5-0.8c0.3-0.1,0.6-0.3,0.9-0.6c0.9-0.7,1.5-1.6,1.6-2.6
		C50.1,3.1,49.9,2.1,49.1,1.3 M101.5,2.2c0-1.4,1.3-0.9,1.3-1.4c0-0.2-0.5-0.2-0.6-0.2c-0.6,0-1.3,0.1-1.9,0.1c-0.5,0-1-0.1-1.5-0.1
		c-0.1,0-0.4,0.1-0.4,0.2c0,0.6,1.6,0.2,1.6,1.3v6.7c0,3.1,1,6,6.2,6c5.8,0,5.6-4.9,5.6-5.9V2.7c0-1.8,1.2-1.4,1.2-2
		c0-0.1-0.2-0.2-0.3-0.2c-0.4,0-0.7,0.1-1.1,0.1c-0.8,0-1.6-0.1-2.3-0.1c-0.1,0-0.2,0.1-0.2,0.2c0,0.8,1.9-0.1,1.9,2v6.4
		c0,2.3-0.9,4.8-4.6,4.8c-2.7,0-4.8-1.5-4.8-4.6V2.2z M116.3,11.8c0,2.8-1.8,1.9-1.8,2.6c0,0.1,0,0.2,0.3,0.2c0.1,0,1.2-0.1,1.9-0.1
		c1,0,1.5,0.1,2,0.1c0.2,0,0.2-0.2,0.2-0.3c0-0.5-1.8,0.2-1.8-1.6V4.6c0-0.4,0.1-0.5,0.1-0.5c0.1,0,0.4,0.3,0.4,0.4l8.6,9.6
		c0.4,0.5,0.6,0.6,0.8,0.6c0.2,0,0.2-0.3,0.2-0.9V2.3c0-1.5,1.2-1.1,1.2-1.6c0-0.1-0.1-0.2-0.2-0.2c-0.5,0-1.3,0.1-2,0.1
		c-0.6,0-1.2-0.1-1.8-0.1c-0.1,0-0.2,0.1-0.2,0.2c0,0.7,2.2-0.1,2.2,2.5v8.3c0,0.2,0,0.2-0.1,0.2c0,0-0.1-0.1-0.2-0.2L116.5,1
		c-0.1-0.1-0.3-0.5-0.5-0.5c-0.3,0-0.6,0.1-0.9,0.1c-0.3,0-0.6-0.1-0.9-0.1c-0.1,0-0.3,0.1-0.3,0.2c0,0.7,2.4-0.4,2.4,3.7V11.8z
		 M131.5,12.4c0,2-1.6,1.3-1.6,1.9c0,0.2,0.1,0.3,0.4,0.3c0.3,0,0.7-0.1,1.9-0.1c0.9,0,1.7,0.1,2.2,0.1c0.3,0,0.4-0.1,0.4-0.2
		c0-0.6-1.8-0.1-1.8-1.5V2.2c0-1.5,1.4-1,1.4-1.5c0-0.2-0.1-0.2-0.4-0.2c-0.6,0-1.2,0.1-1.8,0.1c-0.7,0-1.5-0.1-2.2-0.1
		c-0.2,0-0.2,0-0.2,0.2c0,0.4,1.6,0,1.6,1.5V12.4z M142.1,13.7c0.2,0.4,0.4,1.3,0.7,1.3c0.3,0,0.4-0.7,0.7-1.2l5-11.7
		c0.6-1.3,1.1-0.8,1.1-1.3c0-0.2-0.1-0.3-0.3-0.3c-0.3,0-0.6,0.1-1.5,0.1c-0.4,0-0.9-0.1-1.3-0.1c-0.2,0-0.3,0.1-0.3,0.3
		c0,0.5,1.3,0.1,1.3,1c0.1,0.4-0.2,1.1-0.3,1.4l-3.5,8.5c-0.1,0.2-0.2,0.6-0.4,0.6c-0.2,0-0.4-0.5-0.8-1.5L139,2.5
		c-0.1-0.2-0.2-0.5-0.2-0.8c0-0.7,0.8-0.7,0.8-1c0-0.1-0.2-0.2-0.3-0.2c-0.3,0-1,0.1-1.6,0.1c-0.6,0-1.2-0.1-1.8-0.1
		c-0.2,0-0.3,0.1-0.3,0.3c0,0.4,1,0.1,1.5,1.3L142.1,13.7z M153.5,2.6c0-1.3,0-1.3,1.9-1.3c0.8,0,2.9-0.1,3.4,0.6
		c0.3,0.5,0,1.4,0.5,1.4c0.1,0,0.4-0.2,0.4-2.4c0-0.2,0-0.4-0.2-0.4c-0.6,0-2.4,0.1-2.8,0.1c-0.8,0-1.9-0.1-5.6-0.1
		c-0.6,0-0.7,0.1-0.7,0.2c0,0.2,0.4,0.3,0.6,0.3c1.1,0.2,1.1,1.1,1.1,2v9.1c0,0.9,0,1.5-0.6,1.7c-0.6,0.3-0.8,0.3-0.9,0.5
		c0,0.2,0.1,0.2,0.3,0.2c0.8,0,1.6,0,2.4-0.1c1.5,0,3,0.1,4.6,0.1c0.9,0,1.3,0,1.9-0.7c0.5-0.5,1-1.2,1-1.9c0,0,0-0.2-0.2-0.2
		c-0.3,0-0.9,2-5.5,2c-1.7,0-1.5-0.5-1.5-1.6V8.5c0-0.3-0.1-0.6,0.4-0.6h3c1.7,0,1,1.8,1.6,1.8c0.1,0,0.2-0.1,0.2-0.3
		c0-0.5,0-1.1,0-1.6c0-0.6,0-1.3,0-2c0-0.2-0.1-0.4-0.2-0.4c-0.5,0,0.1,1.6-2,1.6h-2.2c-0.8,0-0.8,0-0.8-0.7V2.6z M171.8,12.4
		c1.4,2.2,2.4,1.4,2.4,1.9c0,0.2-1.1,0.2-1.3,0.2c-1.5,0-2.2-1-3-2.1L167.7,9c-0.7-1.1-0.4-1-2.7-1c-0.6,0-0.5,0.4-0.5,0.6v4.2
		c0,1.7,2.1,1.1,2.1,1.8c0,0.2-0.2,0.2-0.3,0.2c-0.2,0-0.6-0.1-2.3-0.1c-0.8,0-1.5,0.1-2.3,0.1c-0.1,0-0.2-0.1-0.2-0.2
		c0-0.5,1.5-0.2,1.5-1.7V2.6c0-1.9-1.7-1.1-1.7-1.8c0-0.1,0.2-0.2,0.4-0.2c0.4,0,0.3,0.1,1.3,0.1c1.1,0,2.3-0.1,3.3-0.1
		c0.3,0,4.7-0.4,4.7,3.4c0,1.5-1.1,2.9-2.5,3.4L171.8,12.4z M164.5,7c0,0.4,1.2,0.3,2.2,0.3c0.9,0,2.8-0.4,2.8-2.8
		c0-2.4-1.9-3.2-3.8-3.2c-0.7,0-1.1,0-1.1,0.7V7z M175.3,13.7c0.1,0.4,1.9,1.1,3.4,1.1c4.5,0,5.7-2.5,5.7-4.2c0-5.5-8.1-3.3-8.1-7.1
		c0-1.8,1.7-2.6,3.3-2.6c1.8,0,3.2,0.9,3.8,2.6c0.1,0.2,0.2,0.6,0.4,0.6c0.2,0,0.2-0.1,0.2-0.3l-0.3-2.7c0-0.2-0.1-0.3-0.2-0.3
		c-0.2,0-0.2,0.2-0.4,0.2c-0.3,0-0.9-0.7-3.4-0.7c-2.3,0-4.4,1.2-4.4,3.7c0,5.2,8.1,3.1,8.1,6.9c0,2.1-1.9,3.1-3.8,3.1
		c-2.8,0-3.9-2.1-4.2-3c-0.1-0.4-0.1-0.7-0.4-0.7c-0.2,0-0.3,0.2-0.2,0.6L175.3,13.7z M186.7,12.4c0,2-1.6,1.3-1.6,1.9
		c0,0.2,0.1,0.3,0.4,0.3c0.3,0,0.7-0.1,1.9-0.1c0.9,0,1.7,0.1,2.2,0.1c0.3,0,0.4-0.1,0.4-0.2c0-0.6-1.8-0.1-1.8-1.5V2.2
		c0-1.5,1.4-1,1.4-1.5c0-0.2-0.1-0.2-0.4-0.2c-0.6,0-1.2,0.1-1.8,0.1c-0.7,0-1.5-0.1-2.2-0.1c-0.2,0-0.2,0-0.2,0.2
		c0,0.4,1.6,0,1.6,1.5V12.4z M196.7,12.9c0,1.2-1.6,1-1.6,1.5c0,0.2,0.1,0.3,0.2,0.3c0.1,0,0.5-0.1,2.7-0.1c0.6,0,1.1,0.1,1.6,0.1
		c0.2,0,0.2-0.2,0.2-0.2c0-0.6-1.6,0-1.6-1.6V2.6c0-1.1-0.1-1,0.8-1h2.9c2,0,1,1.5,1.7,1.5c0.3,0,0.2-0.2,0.2-0.4l-0.1-1.6
		c0-0.5-0.1-0.6-0.6-0.6c-0.4,0-2.2,0.1-5.9,0.1c-2.6,0-4.1-0.1-5.7-0.1c-0.4,0-0.3,0.5-0.4,0.8L191,3.2c0,0.1,0.1,0.2,0.2,0.2
		c0.3,0,0.3-0.3,0.3-0.5c0.4-1.1,0.4-1.4,1.6-1.4h3.2c0.3,0,0.2,0.8,0.2,0.9V12.9z M209.1,7.1c0.2,0.2,0.5,0.6,0.5,1v4.8
		c0,1.4-1.5,0.9-1.5,1.5c0,0.2,0.1,0.2,0.3,0.2c0.2,0,0.9-0.1,1.8-0.1c0.7,0,1.9,0.1,2.2,0.1c0.3,0,0.5,0,0.5-0.2
		c0-0.6-1.6-0.1-1.6-1.8V7.8c0-0.3,0.2-0.4,0.5-0.9l2.8-4.3c0.3-0.5,0.6-1.1,1.1-1.4c0.1-0.1,0.5-0.2,0.5-0.4c0-0.1-0.1-0.2-0.2-0.2
		c-0.6,0-1.2,0.1-1.7,0.1c-0.5,0-1-0.1-1.5-0.1c-0.2,0-0.4,0-0.4,0.3c0,0.5,1.5,0.1,1.5,1c0,0.5-0.3,0.9-0.4,1.1l-2,3.3
		c-0.2,0.3-0.3,0.4-0.4,0.4c-0.1,0-0.2-0.1-0.4-0.4L208,2.5c-0.1-0.2-0.4-0.5-0.4-0.8c0-0.6,0.9-0.6,0.9-0.9c0-0.2-0.2-0.2-0.4-0.2
		c-0.2,0-0.7,0.1-1.4,0.1c-1.4,0-1.7-0.1-2.3-0.1c-0.1,0-0.3,0.2-0.3,0.3c0,0.3,1,0.1,1.5,1L209.1,7.1z M22.1,1.9
		c-1.5-0.7-3-1.3-4.7-1.5c-0.8-0.1-1.6-0.2-2.5-0.1c-1.2,0.1-2.5,0.2-3.7,0.6C9.1,1.6,7,2.7,5.2,4.4C3.8,5.7,2.6,7.2,1.8,8.9
		c-0.4,0.8-0.7,1.6-1,2.4c-0.3,0.9-0.6,1.9-0.7,2.9c0,0.1-0.1,0.2,0,0.3l0.7,0h4.5l0.2-0.1c0.1-0.7,0.1-1.2,0.3-1.9
		C5.9,12.1,6,11.6,6.1,11c0.3-0.9,0.6-1.9,1-2.7C7.3,7.9,7.5,7.4,7.8,7c0.7-1.2,1.4-2.3,2.5-3.3c1.1-0.9,2.3-1.8,3.8-2
		c0.7-0.1,1.4-0.2,2.1-0.1c1.2,0.1,2.2,0.6,3.2,1.3c1.5,1,2.6,2.3,3.4,3.8c0.6,1.1,1.2,2.2,1.5,3.4c0.4,1.4,0.8,2.7,1,4.2
		c0,0.1,0,0.2,0.1,0.2c1.6,0,3.4,0,5.1,0l0.3,0c-0.2-1.6-0.7-3.2-1.4-4.6C28.1,6.5,25.4,3.6,22.1,1.9 M13.8,7.7c-0.4,0-0.8,0-1.2,0
		c0,0.3,0,0.6,0,0.8c0,0.7,0.1,1.4,0.2,2c0,0.2,0,0.4,0,0.6c0.1,1.9,0.2,3.7,0.3,5.6c0,0.3,0,0.5,0,0.8c0,1.1,0.1,2.3,0,3.4
		c0.1,1.9,0,3.7,0,5.5c-0.1,0.3,0.1,0.7,0,1c0,1.2-0.1,2.3-0.2,3.4c0,0.3,0,0.5-0.2,0.8c-0.2,0.2-0.5,0.1-0.7,0
		c-2.1-1.1-3.8-3.2-4.8-5.4c-0.1-0.1,0-0.2-0.1-0.2c0,0,0-0.1,0-0.1c-0.5-1-0.9-2.1-1.2-3.3c-0.3-1-0.5-2.1-0.6-3.2l-0.4,0l-5,0
		l0,0.1c0.2,1,0.4,2,0.7,2.9c0.9,2.9,2.7,5.6,5.2,7.7c0.6,0.5,1.3,1,2,1.4c0.6,0.3,1.2,0.6,1.8,0.9c1,0.4,2,0.7,3.1,0.9
		c0.1,0,0.2,0.1,0.3,0l0,0c0.6,0.1,1.3,0.1,1.9,0.2c3.3,0.1,6.4-0.9,9-2.7c1-0.7,1.9-1.5,2.7-2.4c0.6-0.7,1.1-1.4,1.6-2.1
		c0.9-1.4,1.5-2.9,2-4.5c0.2-0.7,0.4-1.3,0.5-2c0-0.1,0.1-0.3,0-0.4h-1.7l-3.7,0l-0.1,0c-0.2,2-0.7,4-1.5,5.8c0,0.1-0.1,0.2-0.1,0.3
		c-0.5,1.1-1.1,2.2-1.8,3.1c-0.4,0.5-0.7,0.9-1.2,1.4c-0.5,0.4-1,0.9-1.5,1.2c-0.3,0.2-0.6,0.5-1,0.4c-0.5-0.3-0.3-0.9-0.4-1.4
		c-0.1-1.3-0.2-2.6-0.2-3.9l0,0c-0.1-1.2,0-2.6,0-3.7c0-1.9,0-3.7,0.1-5.5l0-1.3l0-0.1C17.8,13,18,10.5,18.1,8
		c-0.1-0.1,0.1-0.2,0-0.3L13.8,7.7z M215.9,17.9H40.2v0.9h175.7V17.9z M49.2,27.3c-0.2,0-0.4,0-0.4,0.2c0,0.4,1.5,0.1,1.5,0.9V31
		c0,1.4-2,2.2-3.5,2.2c-3.3,0-5-2.9-5-5.9c0-2.8,1.5-5.4,4.6-5.4c4,0,4.8,3.3,5.2,3.3c0.2,0,0.2-0.2,0.2-0.3l-0.2-2.2
		c0-0.1,0.1-0.4-0.2-0.4c-0.2,0-0.3,0.3-0.4,0.3c-0.5,0-1.3-1.2-4.3-1.2c-3.6,0-6.4,2.5-6.4,6.2c0,3.8,2.3,6.1,6.1,6.1
		c3,0,3.5-1.2,5.2-1.7v-3.5c0-1.1,0.9-0.7,0.9-1.1c0-0.2-0.3-0.2-0.5-0.2H49.2z M56.2,22.7c0-0.7,0.4-0.6,1-0.6
		c1.7,0,3.3,0.7,3.3,2.8c0,2.1-1.6,2.4-2.4,2.4c-0.8,0-1.9,0.1-1.9-0.2V22.7z M59.6,27.4c1.2-0.5,2.1-1.6,2.1-2.9
		c0-3.3-3.8-2.9-4-2.9c-0.9,0-1.9,0.1-2.8,0.1c-0.9,0-0.8-0.1-1.1-0.1c-0.2,0-0.3,0.1-0.3,0.2c0,0.6,1.5-0.1,1.5,1.5v8.7
		c0,1.3-1.2,1.1-1.2,1.5c0,0.1,0.1,0.2,0.2,0.2c0.6,0,1.3-0.1,1.9-0.1c1.4,0,1.8,0.1,2,0.1c0.1,0,0.3,0,0.3-0.1c0-0.6-1.8,0-1.8-1.5
		v-3.6c0-0.2-0.1-0.5,0.4-0.5c1.9,0,1.6-0.1,2.3,0.9l1.9,3c0.6,1,1.3,1.8,2.6,1.8c0.2,0,1.1,0,1.1-0.2c0-0.4-0.8,0.2-2.1-1.6
		L59.6,27.4z M70.8,23.7c0.1-0.2,0.2-0.2,0.3,0l1.7,4.1c0.1,0.2,0.1,0.3-0.3,0.3h-3.4c-0.2,0-0.3-0.1-0.2-0.3L70.8,23.7z M74,30.9
		c0.2,0.5,0.5,1.2,0.5,1.6c0,0.6-1,0.5-1,0.9c0,0.2,0.3,0.2,0.4,0.2c0.5,0,0.9-0.1,1.4-0.1c0.7,0,1.4,0.1,2.1,0.1
		c0.1,0,0.2,0,0.2-0.2c0-0.4-1-0.1-1.5-0.8c-0.4-0.6-0.6-1.3-0.9-1.9l-3.5-8.8c-0.1-0.1-0.2-0.6-0.4-0.6c-0.2,0-0.3,0.3-1.3,2.4
		L66,32.4c-0.4,1-1.2,0.7-1.2,1c0,0.1,0.1,0.2,0.2,0.2c0.4,0,0.9-0.1,1.4-0.1c0.5,0,1,0.1,1.4,0.1c0.2,0,0.5,0.1,0.5-0.3
		c0-0.4-1.2,0.1-1.2-1.1c0-0.2,0.1-0.5,0.1-0.6l1.1-2.4c0.2-0.4,0.5-0.4,0.8-0.4h3.7c0.5,0,0.6,0.3,0.8,0.6L74,30.9z M81.2,23
		c0-0.8,0.1-1.1,1.7-1.1c3.2,0,5.8,2.2,5.8,5.9c0,3.9-2.3,5.2-4.7,5.2c-0.8,0-2.1-0.2-2.6-0.8c-0.2-0.1-0.1-1-0.1-1.2V23z
		 M79.9,31.9c0,1.6-1.2,1.2-1.2,1.6c0,0.1,0,0.2,0.2,0.2c0.1,0,1.8-0.1,1.9-0.1c0.9,0,1.7,0.1,2.6,0.1c4.7,0,6.6-2.7,6.6-6.6
		c0-3.2-3-5.4-6-5.4c-1.5,0-2.6,0.1-3.7,0.1c-0.5,0-1-0.1-1.5-0.1c-0.1,0-0.2,0.1-0.2,0.2c0,0.5,1.4-0.1,1.4,1.7V31.9z M93.2,22.9
		c0-1.2,1.1-0.7,1.1-1.2c0-0.2-0.5-0.2-0.5-0.2c-0.5,0-1.1,0.1-1.6,0.1c-0.5,0-0.9-0.1-1.3-0.1c-0.1,0-0.4,0.1-0.4,0.2
		c0,0.5,1.4,0.1,1.4,1.1v5.7c0,2.6,0.9,5.1,5.3,5.1c5,0,4.8-4.2,4.8-5v-5.3c0-1.6,1-1.2,1-1.7c0-0.1-0.1-0.2-0.2-0.2
		c-0.3,0-0.6,0.1-0.9,0.1c-0.7,0-1.3-0.1-2-0.1c-0.1,0-0.2,0.1-0.2,0.2c0,0.6,1.6-0.1,1.6,1.7v5.5c0,2-0.7,4.1-3.9,4.1
		c-2.3,0-4.1-1.2-4.1-4V22.9z M108.4,23.7c0.1-0.2,0.2-0.2,0.3,0l1.7,4.1c0.1,0.2,0.1,0.3-0.3,0.3h-3.4c-0.2,0-0.3-0.1-0.2-0.3
		L108.4,23.7z M111.6,30.9c0.2,0.5,0.5,1.2,0.5,1.6c0,0.6-1,0.5-1,0.9c0,0.2,0.3,0.2,0.4,0.2c0.5,0,0.9-0.1,1.4-0.1
		c0.7,0,1.4,0.1,2.1,0.1c0.1,0,0.2,0,0.2-0.2c0-0.4-1-0.1-1.5-0.8c-0.4-0.6-0.6-1.3-0.9-1.9l-3.5-8.8c-0.1-0.1-0.2-0.6-0.4-0.6
		c-0.2,0-0.3,0.3-1.3,2.4l-4.1,8.7c-0.4,1-1.2,0.7-1.2,1c0,0.1,0.1,0.2,0.2,0.2c0.4,0,0.9-0.1,1.4-0.1c0.5,0,1,0.1,1.4,0.1
		c0.2,0,0.5,0.1,0.5-0.3c0-0.4-1.2,0.1-1.2-1.1c0-0.2,0.1-0.5,0.1-0.6l1.1-2.4c0.2-0.4,0.5-0.4,0.8-0.4h3.7c0.5,0,0.6,0.3,0.7,0.6
		L111.6,30.9z M118.5,32.2c0,1-1.3,0.8-1.3,1.3c0,0.2,0.1,0.2,0.2,0.2c0.1,0,0.4-0.1,2.3-0.1c0.5,0,1,0.1,1.4,0.1
		c0.2,0,0.1-0.2,0.1-0.2c0-0.5-1.4,0-1.4-1.4v-8.7c0-0.9-0.1-0.8,0.7-0.8h2.4c1.7,0,0.8,1.3,1.4,1.3c0.2,0,0.2-0.2,0.2-0.4l-0.1-1.4
		c0-0.4-0.1-0.5-0.5-0.5c-0.3,0-1.9,0.1-5,0.1c-2.2,0-3.5-0.1-4.8-0.1c-0.3,0-0.3,0.5-0.3,0.7l-0.2,1.7c0,0.1,0.1,0.2,0.2,0.2
		c0.2,0,0.2-0.2,0.3-0.4c0.3-0.9,0.3-1.2,1.4-1.2h2.8c0.2,0,0.2,0.7,0.2,0.8V32.2z M128.2,23.3c0-1.1,0-1.1,1.6-1.1
		c0.7,0,2.5-0.1,2.9,0.5c0.3,0.4,0,1.2,0.4,1.2c0.1,0,0.3-0.1,0.3-2c0-0.2,0-0.4-0.2-0.4c-0.5,0-2.1,0.1-2.4,0.1
		c-0.7,0-1.6-0.1-4.8-0.1c-0.5,0-0.6,0.1-0.6,0.2c0,0.2,0.4,0.2,0.5,0.3c0.9,0.1,0.9,1,0.9,1.7v7.8c0,0.8,0,1.3-0.5,1.5
		c-0.5,0.3-0.7,0.2-0.7,0.4c0,0.1,0.1,0.2,0.3,0.2c0.7,0,1.4,0,2.1-0.1c1.3,0,2.6,0.1,3.9,0.1c0.8,0,1.1,0,1.7-0.6
		c0.4-0.4,0.9-1,0.9-1.6c0,0,0-0.2-0.1-0.2c-0.2,0-0.8,1.8-4.7,1.8c-1.4,0-1.3-0.4-1.3-1.4v-3.1c0-0.3-0.1-0.5,0.3-0.5h2.5
		c1.4,0,0.9,1.5,1.4,1.5c0.1,0,0.2-0.1,0.2-0.2c0-0.5,0-0.9,0-1.3c0-0.5,0-1.1,0-1.7c0-0.1,0-0.3-0.2-0.3c-0.4,0,0.1,1.4-1.7,1.4
		h-1.8c-0.7,0-0.6,0-0.6-0.6V23.3z M145.5,21.4c-3.6,0-6.1,2.9-6.1,6.4c0,3.5,2.5,5.9,6,5.9c3.8,0,5-1.3,5.1-1.3l0.4-1.7
		c0-0.1-0.1-0.2-0.2-0.2c-0.1,0-0.2,0.1-0.2,0.2c-0.3,0.8-1.9,2.5-4.6,2.5c-3.3,0-5-3-5-5.9c0-3.2,1.6-5.4,4.9-5.4
		c2.2,0,3.4,1.1,4.5,2.9c0.1,0.1,0.2,0.6,0.4,0.6c0.3,0,0.1-0.6,0.1-1.5c0-1.1,0-1.4-0.2-1.4c-0.2,0-0.3,0.2-0.4,0.2
		C149.6,22.7,148.7,21.4,145.5,21.4 M153.3,27c0-2.7,1.6-5.1,4.5-5.1c3.3,0,5.4,3,5.4,6.1c0,3.2-2,5.1-4.5,5.1
		C155.3,33.2,153.3,30.2,153.3,27 M152,27.5c0,3.6,2.3,6.2,6,6.2c3.8,0,6.4-2.5,6.4-6.3c0-3.5-2.7-6-6.1-6
		C154.8,21.4,152,24,152,27.5 M167.7,23.2c0-1.5,1.2-1.1,1.2-1.4c0-0.2-0.1-0.2-0.3-0.2c-0.3,0-0.7,0.1-1.6,0.1
		c-0.8,0-1.4-0.1-1.7-0.1c-0.2,0-0.3,0-0.3,0.2c0,0.3,1.4,0.2,1.4,1.1v8.6c0,0.8,0,1.3-0.5,1.5c-0.5,0.3-0.7,0.2-0.7,0.4
		c0,0.1,0.1,0.2,0.3,0.2c0.7,0,1.4,0,2.1-0.1c1.3,0,2.6,0.1,3.9,0.1c0.7,0,1.1,0,1.7-0.6c0.4-0.4,0.9-1,0.9-1.6c0,0,0-0.2-0.1-0.2
		c-0.2,0-0.8,1.8-4.7,1.8c-1.4,0-1.3-0.4-1.3-1.4V23.2z M177.2,23.2c0-1.5,1.2-1.1,1.2-1.4c0-0.2-0.1-0.2-0.3-0.2
		c-0.3,0-0.7,0.1-1.6,0.1c-0.8,0-1.4-0.1-1.7-0.1c-0.2,0-0.3,0-0.3,0.2c0,0.3,1.4,0.2,1.4,1.1v8.6c0,0.8,0,1.3-0.5,1.5
		c-0.5,0.3-0.7,0.2-0.7,0.4c0,0.1,0.1,0.2,0.3,0.2c0.7,0,1.4,0,2.1-0.1c1.3,0,2.6,0.1,3.9,0.1c0.7,0,1.1,0,1.7-0.6
		c0.4-0.4,0.9-1,0.9-1.6c0,0,0-0.2-0.1-0.2c-0.2,0-0.8,1.8-4.7,1.8c-1.4,0-1.3-0.4-1.3-1.4V23.2z M186.8,23.3c0-1.1,0-1.1,1.6-1.1
		c0.7,0,2.5-0.1,2.9,0.5c0.3,0.4,0,1.2,0.4,1.2c0.1,0,0.3-0.1,0.3-2c0-0.2,0-0.4-0.2-0.4c-0.5,0-2.1,0.1-2.4,0.1
		c-0.7,0-1.6-0.1-4.8-0.1c-0.5,0-0.6,0.1-0.6,0.2c0,0.2,0.4,0.2,0.5,0.3c0.9,0.1,0.9,1,0.9,1.7v7.8c0,0.8,0,1.3-0.5,1.5
		c-0.5,0.3-0.7,0.2-0.8,0.4c0,0.1,0.1,0.2,0.3,0.2c0.7,0,1.4,0,2.1-0.1c1.3,0,2.6,0.1,3.9,0.1c0.7,0,1.1,0,1.7-0.6
		c0.4-0.4,0.9-1,0.9-1.6c0,0,0-0.2-0.1-0.2c-0.2,0-0.8,1.8-4.7,1.8c-1.4,0-1.3-0.4-1.3-1.4v-3.1c0-0.3-0.1-0.5,0.3-0.5h2.5
		c1.4,0,0.9,1.5,1.4,1.5c0.1,0,0.2-0.1,0.2-0.2c0-0.5,0-0.9,0-1.3c0-0.5,0-1.1,0-1.7c0-0.1,0-0.3-0.2-0.3c-0.4,0,0.1,1.4-1.7,1.4
		h-1.8c-0.7,0-0.6,0-0.6-0.6V23.3z M202.7,27.3c-0.2,0-0.4,0-0.4,0.2c0,0.4,1.5,0.1,1.5,0.9V31c0,1.4-2,2.2-3.5,2.2
		c-3.3,0-5-2.9-5-5.9c0-2.8,1.5-5.4,4.6-5.4c4,0,4.8,3.3,5.2,3.3c0.2,0,0.2-0.2,0.2-0.3l-0.2-2.2c0-0.1,0-0.4-0.2-0.4
		c-0.2,0-0.3,0.3-0.4,0.3c-0.5,0-1.3-1.2-4.3-1.2c-3.6,0-6.4,2.5-6.4,6.2c0,3.8,2.3,6.1,6.1,6.1c3,0,3.5-1.2,5.2-1.7v-3.5
		c0-1.1,0.9-0.7,0.9-1.1c0-0.2-0.3-0.2-0.5-0.2H202.7z M209.6,23.3c0-1.1,0-1.1,1.6-1.1c0.7,0,2.5-0.1,2.9,0.5
		c0.3,0.4,0,1.2,0.4,1.2c0.1,0,0.3-0.1,0.3-2c0-0.2,0-0.4-0.2-0.4c-0.5,0-2.1,0.1-2.4,0.1c-0.7,0-1.6-0.1-4.8-0.1
		c-0.5,0-0.6,0.1-0.6,0.2c0,0.2,0.4,0.2,0.5,0.3c0.9,0.1,0.9,1,0.9,1.7v7.8c0,0.8,0,1.3-0.5,1.5c-0.5,0.3-0.7,0.2-0.7,0.4
		c0,0.1,0.1,0.2,0.3,0.2c0.7,0,1.4,0,2.1-0.1c1.3,0,2.6,0.1,3.9,0.1c0.7,0,1.1,0,1.7-0.6c0.4-0.4,0.9-1,0.9-1.6c0,0,0-0.2-0.1-0.2
		c-0.2,0-0.8,1.8-4.7,1.8c-1.4,0-1.3-0.4-1.3-1.4v-3.1c0-0.3-0.1-0.5,0.3-0.5h2.5c1.4,0,0.9,1.5,1.4,1.5c0.1,0,0.2-0.1,0.2-0.2
		c0-0.5,0-0.9,0-1.3c0-0.5,0-1.1,0-1.7c0-0.1-0.1-0.3-0.2-0.3c-0.4,0,0,1.4-1.7,1.4h-1.8c-0.7,0-0.6,0-0.6-0.6V23.3z"/>
</g>
<g id="Layer_2">
</g>
</svg>
