<?xml version="1.0" encoding="utf-8"?>
<!-- Generator: Adobe Illustrator 18.1.1, SVG Export Plug-In . SVG Version: 6.00 Build 0)  -->
<svg version="1.1" xmlns="http://www.w3.org/2000/svg" xmlns:xlink="http://www.w3.org/1999/xlink" x="0px" y="0px" width="84.4px"
	 height="18.3px" viewBox="0 0 84.4 18.3" fill="#ffffff" enable-background="new 0 0 84.4 18.3" xml:space="preserve">
<g id="Layer_1">
	<path d="M63.4,0.8C63.6,0.9,63.7,1,63.9,1c0.2-0.1,0.3-0.3,0.5-0.3c0.3,0.1,0.2,0.5,0.3,0.7c0.1,1,0.2,2.1,0.3,3.1
		c0,0.1,0,0.2-0.1,0.2c-0.1,0-0.2,0-0.3,0c-0.2-0.3-0.3-0.6-0.5-0.9c-0.3-0.5-0.7-0.9-1.2-1.3c-1-0.8-2.1-1.3-3.3-1.4
		c-0.3,0-0.7,0-1,0.1c-0.5,0.1-1,0.2-1.5,0.5c-0.6,0.3-1.1,0.9-1.2,1.6c-0.2,0.6-0.1,1.4,0.1,2c0.4,0.6,0.9,1.2,1.5,1.4
		C58,6.8,58.6,7,59.2,7.2c0.4,0.1,0.9,0.2,1.3,0.4c1.4,0.4,2.7,0.9,3.8,1.9c0.5,0.6,0.9,1.2,1.1,2c0.1,0.2,0.1,0.4,0.1,0.6
		c0.1,0.2,0,0.6,0.1,0.9c0,0.1,0,0.2,0,0.3c-0.1,0,0,0.1,0,0.2c-0.2,1.5-1.2,2.9-2.5,3.5c-0.1,0.1-0.2,0.1-0.4,0.2
		c-0.2,0-0.3,0.1-0.5,0.2c-0.2,0.1-0.5,0.2-0.8,0.3c-0.2,0.1-0.5,0.1-0.7,0.1c-1.2,0.2-2.5,0.3-3.7,0c-0.9-0.2-1.7-0.4-2.4-0.9
		c-0.2-0.2-0.2-0.5-0.3-0.8c-0.2-0.9-0.4-1.9-0.5-2.8c0-0.1,0-0.3,0.1-0.3c0.1,0,0.3-0.1,0.4,0c0.2,0.2,0.2,0.5,0.3,0.8
		c0.2,0.3,0.4,0.7,0.6,1c0,0.1,0.1,0.1,0.1,0.1c0.7,0.9,1.7,1.5,2.8,1.9c0.2,0.1,0.5,0.1,0.7,0.2c0.5,0.1,1,0.2,1.5,0.1
		c0.2,0,0.4-0.1,0.7-0.1c0.9-0.1,1.7-0.7,2.4-1.4c0.5-0.7,0.8-1.5,0.7-2.4c-0.1-0.4-0.2-0.7-0.4-1c-0.4-0.8-1.2-1.4-2-1.6
		c-0.2-0.1-0.4-0.2-0.5-0.2c-1-0.3-2-0.6-3-1c-0.5-0.2-0.9-0.4-1.4-0.6c-0.9-0.5-1.8-1.4-2.1-2.4c-0.3-0.9-0.4-2-0.2-2.9
		c0.1-0.4,0.3-0.9,0.6-1.3C55,2,55.1,1.9,55.2,1.8c0.8-0.9,1.9-1.3,3-1.5c0.8-0.2,1.7-0.2,2.5-0.1C61.6,0.2,62.6,0.4,63.4,0.8
		 M83.8,0.5c0-0.1-0.1-0.1-0.1-0.1c-0.4-0.2-0.9-0.1-1.3-0.1c-0.2,0-0.3,0.1-0.5,0c-0.8,0-1.7,0-2.4-0.1l0,0c-0.2,0-0.4,0-0.6,0
		c-0.1,0-0.2,0.1-0.2,0.2c0,0.2,0.1,0.3,0.2,0.4c0.4,0.2,0.8,0.5,1.1,0.8c0.8,0.7,0.4,1.9,0.5,2.8V7c0,0.4,0,0.9-0.3,1.1
		c-0.4,0.1-0.9,0-1.3,0l-3.7,0l-3.6,0l-0.2,0C71.1,8.1,71,7.8,71,7.5l0-2.2V2.7c0-0.4,0.2-0.7,0.4-1c0.4-0.5,0.9-0.6,1.3-1
		c0.1-0.1,0.1-0.2,0.1-0.3c-0.1-0.1-0.2-0.1-0.3-0.1c-0.6,0-1.3,0.1-1.9,0.1l0,0c-0.7,0-1.5,0-2.2-0.1c-0.4,0-0.7-0.1-1.1,0
		C67,0.4,67,0.5,67,0.5c0,0.1,0.1,0.2,0.2,0.3c0.3,0.2,0.7,0.3,1,0.5c0.3,0.2,0.5,0.4,0.7,0.6c0.3,0.4,0.3,1,0.3,1.6l0,2.8l0,7.7
		c0,1-0.1,2-0.9,2.5c-0.3,0.2-0.7,0.3-1,0.7c0,0.2,0,0.4,0.1,0.5c0.3,0,0.7,0,1.1-0.1c1.3,0,2.8,0,4,0.1c0.3,0,0.6,0.1,0.7-0.1
		c0-0.2-0.1-0.4-0.3-0.5c-0.8-0.4-2-0.7-2-1.8l0-4.8c0-0.2,0-0.5,0-0.7c0-0.1,0.1-0.2,0.1-0.4c0.1-0.2,0.3-0.2,0.4-0.2l2.6,0l3.6,0
		H80l0.2,0c0.3,0.1,0.3,0.4,0.3,0.6c0,1.7,0,3.4,0,5.1l0,0l0,0c0,0.4,0,0.9-0.3,1.3c-0.3,0.5-1,0.7-1.4,1.2c0,0.1-0.1,0.2,0,0.4
		c0,0.1,0.1,0.1,0.2,0.1c0.7,0,1.4-0.1,2.1-0.1l0,0c1,0,2,0.1,3,0.1l0.1,0c0.1-0.1,0.2-0.2,0.2-0.3c0-0.2-0.2-0.3-0.3-0.4
		c-0.6-0.3-1.2-0.5-1.6-1.1c0,0,0-0.1-0.1-0.1c-0.1-0.2-0.2-0.5-0.2-0.8l0-2.6c0,0,0,0,0-0.1l0-6.2l0-2.3V3.6c0-0.3,0-0.6,0-0.8
		c0-0.4,0.2-0.8,0.5-1.2c0.3-0.4,0.8-0.5,1.1-0.9C83.8,0.7,83.8,0.6,83.8,0.5 M52.6,0.5c-0.2-0.3-0.5-0.1-0.8-0.1
		c-0.8,0.1-1.7,0.1-2.5,0c-0.3,0-0.6-0.1-0.9,0c-0.2,0-0.4-0.1-0.5,0.1c-0.1,0.1-0.1,0.2-0.1,0.3C48,1.3,48.6,1.4,49,1.6
		c0.5,0.3,1,0.7,1.1,1.3c0.1,0.9,0,1.8,0.1,2.7l0,3.4l0,2.2c0,0.2,0,0.4,0,0.5l0,0c0,0.4,0,0.9-0.1,1.3c0,0,0,0.1,0,0.1
		c-0.1,0.8-0.4,1.6-0.9,2.3c-1,1.3-2.7,1.7-4.3,1.6c-0.6,0-1.1-0.2-1.6-0.4c-0.6-0.2-1-0.6-1.5-0.9c-0.5-0.5-0.9-1.1-1.1-1.7
		c-0.3-0.7-0.5-1.5-0.6-2.2c-0.1-0.3,0-0.6-0.1-0.8l0-2v-2c0-1.4,0-2.9,0-4.4c0-0.7,0.7-1,1.2-1.4c0.2-0.1,0.4-0.4,0.4-0.6
		c-0.2-0.3-0.6-0.2-0.9-0.2c-1,0-2.1,0.2-3.1,0c-0.1,0-0.2,0-0.2,0c-0.2,0-0.3,0-0.5,0c-0.3,0-0.5,0-0.7,0.1c-0.1,0.1,0,0.3,0.1,0.5
		c0.6,0.5,1.4,0.6,1.8,1.2c0,0,0,0.1,0,0.1c0,0.1,0,0.2,0.1,0.2c0,0.9,0,1.9,0,2.8l0,5.1c0,0.5,0,1,0,1.5c0,0.1,0,0.2,0.1,0.2
		c0,0,0,0,0,0c0,0.5,0.1,1,0.2,1.5c0,0.1,0,0.3,0.1,0.4c0.1,0.4,0.3,0.9,0.5,1.3c0,0,0.1,0,0,0.1c0.3,0.6,0.8,1.1,1.4,1.5
		c0.2,0.1,0.4,0.2,0.6,0.3c0.7,0.3,1.4,0.5,2.1,0.6c0.4,0.1,0.8,0.1,1.2,0.1l0,0c1.4,0.1,2.8,0,3.9-0.7c0.9-0.4,1.6-1.2,2.1-2
		c0.1-0.1,0.1-0.2,0.2-0.4c0.2-0.4,0.3-0.8,0.5-1.3c0.1-0.4,0.2-0.8,0.3-1.3c0.1-0.5,0.1-1.1,0-1.6V7.3c0-1.3,0-2.7,0-4.1l0-0.1
		c0-0.6,0.2-1.1,0.6-1.5C52.1,1.3,52.7,1.1,52.6,0.5 M32.4,1.7c-1.2-1-2.8-1.3-4.4-1.3c-0.7,0-1.4,0.1-2.2,0.1c-0.2,0-0.4,0-0.6,0
		c-0.8,0-1.6,0-2.3,0c-0.3,0-0.7-0.1-0.9-0.1c-0.2,0-0.4,0.1-0.4,0.3c0,0.1,0,0.3,0.2,0.3c0.3,0.1,0.7,0.2,1,0.2
		c0.6,0.1,0.9,0.7,0.9,1.2c0.1,0.8,0,1.7,0,2.6l0,3.5v0.2l0,3.3l0,2.7c0,0.8-0.2,1.6-0.9,2.1c-0.2,0.1-0.3,0.2-0.5,0.3
		c-0.1,0.1-0.2,0.1-0.3,0.2c-0.1,0.1-0.1,0.2-0.1,0.3c0,0.1,0.1,0.2,0.2,0.2c0.4,0,0.8,0,1.2,0c0.5,0,1-0.1,1.5,0
		c0.2-0.1,0.3,0,0.5,0l0,0c0.4,0,0.9,0,1.4,0c0.5,0,1,0.1,1.5,0c0.1,0,0.1-0.1,0.1-0.2c0-0.1-0.1-0.2-0.2-0.3
		c-0.4-0.2-0.8-0.3-1.2-0.4c-0.5-0.1-0.9-0.6-1.1-1.1c0-0.2-0.1-0.4-0.1-0.6l0-3.5v-1.4c0-0.1,0-0.3,0-0.4c0.1-0.2,0.3-0.3,0.4-0.3
		c0.7,0,1.5,0,2.2,0c0.7,0.1,0.9,0.9,1.3,1.3c0.5,0.7,1,1.5,1.4,2.2c0.1,0.2,0.3,0.5,0.4,0.7c0.7,0.9,1.2,1.9,1.9,2.8
		c0.5,0.7,1.2,1,2,1.1c0.6,0,1.3,0,2-0.1c0.1-0.1,0.3,0,0.3-0.2c0-0.3-0.3-0.2-0.5-0.3c0,0-0.1,0-0.1,0c-0.5-0.1-0.8-0.5-1.2-0.8
		c-0.3-0.3-0.5-0.5-0.8-0.8c-0.1-0.2-0.2-0.3-0.4-0.5c-1.1-1.7-2.3-3.4-3.4-5.1c-0.2-0.3-0.4-0.6-0.6-1c0.4-0.2,0.8-0.4,1.1-0.7
		c1.1-0.8,1.8-1.9,1.9-3.2C33.6,3.9,33.3,2.6,32.4,1.7 M27.6,1.1c0.4,0,0.8,0.1,1.2,0.3c0.3,0.1,0.7,0.3,1,0.5
		c0.2,0,0.2,0.2,0.4,0.3c0.8,0.7,1.1,1.7,1.2,2.6c0.1,1.1-0.2,2.1-1,2.9c-0.1,0.1-0.2,0.2-0.3,0.2c-0.3,0.2-0.6,0.4-1,0.4
		c0,0.1-0.1,0-0.1,0c-0.4,0.1-0.8,0.1-1.2,0.1c-0.7,0-1.5,0.1-2.2-0.1c-0.1,0-0.2-0.1-0.2-0.2c0-1.1,0-2.3,0-3.4l0-2.8
		c0-0.4,0-0.7,0.4-0.9C26.3,1,27,1,27.6,1.1 M12.2,0.9c-0.8-0.4-1.7-0.7-2.6-0.8C9.1,0,8.7,0,8.2,0c-0.7,0-1.4,0.1-2,0.3
		C5,0.7,3.9,1.3,2.9,2.2C2.1,2.9,1.4,3.8,1,4.7C0.8,5.1,0.6,5.6,0.4,6C0.3,6.6,0.1,7.1,0,7.7c0,0.1,0,0.1,0,0.1l0.4,0h2.5l0.1,0
		c0.1-0.4,0.1-0.7,0.2-1c0.1-0.3,0.1-0.6,0.2-0.9c0.2-0.5,0.3-1,0.5-1.5C4,4.2,4.1,3.9,4.3,3.7C4.6,3,5.1,2.4,5.7,1.8
		c0.6-0.5,1.3-1,2.1-1.1c0.4-0.1,0.8-0.1,1.2,0c0.6,0.1,1.2,0.3,1.8,0.7c0.8,0.6,1.4,1.3,1.9,2.1c0.4,0.6,0.6,1.2,0.9,1.9
		c0.2,0.7,0.4,1.5,0.5,2.3c0,0,0,0.1,0.1,0.1c0.9,0,1.9,0,2.8,0l0.2,0c-0.1-0.9-0.4-1.8-0.7-2.6C15.4,3.4,14,1.8,12.2,0.9 M7.6,4
		C7.4,4,7.2,4,7,4c0,0.2,0,0.3,0,0.5c0,0.4,0.1,0.7,0.1,1.1c0,0.1,0,0.2,0,0.3C7.2,7,7.2,8,7.3,9.1c0,0.1,0,0.3,0,0.4
		c0,0.6,0.1,1.2,0,1.9c0.1,1,0,2,0,3c0,0.2,0,0.4,0,0.5c0,0.6,0,1.3-0.1,1.9c0,0.2,0,0.3-0.1,0.4c-0.1,0.1-0.2,0.1-0.4,0
		c-1.2-0.6-2.1-1.8-2.6-2.9c0,0,0-0.1-0.1-0.1c0,0,0,0,0,0c-0.3-0.6-0.5-1.2-0.7-1.8c-0.2-0.6-0.3-1.2-0.3-1.8l-0.2,0l-2.8,0l0,0
		c0.1,0.5,0.2,1.1,0.4,1.6c0.5,1.6,1.5,3.1,2.8,4.2c0.4,0.3,0.7,0.5,1.1,0.8c0.3,0.2,0.6,0.3,1,0.5c0.5,0.2,1.1,0.4,1.7,0.5
		c0.1,0,0.1,0,0.2,0l0,0c0.3,0.1,0.7,0.1,1.1,0.1c1.8,0.1,3.5-0.5,4.9-1.5c0.5-0.4,1.1-0.8,1.5-1.3c0.3-0.4,0.6-0.8,0.9-1.2
		c0.5-0.8,0.8-1.6,1.1-2.5c0.1-0.4,0.2-0.7,0.3-1.1c0-0.1,0-0.2,0-0.2H16l-2,0l0,0c-0.1,1.1-0.4,2.2-0.8,3.2c0,0.1-0.1,0.1-0.1,0.1
		c-0.3,0.6-0.6,1.2-1,1.7c-0.2,0.3-0.4,0.5-0.7,0.7c-0.3,0.2-0.5,0.5-0.8,0.7c-0.2,0.1-0.3,0.3-0.6,0.2c-0.3-0.2-0.2-0.5-0.2-0.8
		c0-0.7-0.1-1.4-0.1-2.2l0,0c0-0.7,0-1.4,0-2.1c0-1,0-2,0.1-3.1l0-0.7l0,0C9.8,7,9.9,5.6,10,4.2C10,4.1,10,4.1,10,4L7.6,4z"/>
</g>
</svg>
