<?xml version="1.0" encoding="utf-8"?>
<!-- Generator: Adobe Illustrator 18.1.1, SVG Export Plug-In . SVG Version: 6.00 Build 0)  -->
<svg version="1.1" xmlns="http://www.w3.org/2000/svg" xmlns:xlink="http://www.w3.org/1999/xlink" x="0px" y="0px" width="216px"
	 height="33.7px" viewBox="0 0 216 33.7" enable-background="new 0 0 216 33.7" xml:space="preserve">
<g id="Layer_1">
	<path d="M74.1,0.6c0.1,0,0.2,0.1,0.4,0.1c0.1-0.1,0.2-0.3,0.4-0.2c0.2,0.1,0.2,0.4,0.2,0.6c0.1,0.8,0.2,1.7,0.3,2.6
		c0,0.1,0,0.2-0.1,0.2c-0.1,0-0.2,0-0.3,0c-0.2-0.2-0.2-0.5-0.4-0.8c-0.2-0.4-0.6-0.8-1-1.1c-0.8-0.7-1.7-1.1-2.8-1.1
		c-0.3,0-0.6,0-0.9,0c-0.4,0.1-0.9,0.2-1.2,0.4c-0.5,0.3-0.9,0.8-1,1.3c-0.2,0.5-0.1,1.1,0.1,1.6c0.3,0.5,0.7,0.9,1.3,1.2
		c0.5,0.2,1,0.4,1.4,0.6c0.4,0.1,0.7,0.2,1,0.3c1.1,0.3,2.2,0.7,3.1,1.6c0.4,0.5,0.8,1,0.9,1.6c0.1,0.2,0.1,0.3,0.1,0.5
		c0.1,0.2,0,0.5,0.1,0.7c0,0.1,0,0.2,0,0.3c0,0,0,0.1,0,0.2c-0.1,1.2-1,2.4-2.1,2.9c-0.1,0-0.2,0.1-0.3,0.2c-0.1,0-0.3,0.1-0.4,0.1
		c-0.2,0.1-0.4,0.1-0.7,0.2c-0.2,0.1-0.4,0.1-0.6,0.1c-1,0.2-2.1,0.2-3.1,0c-0.7-0.2-1.4-0.3-2-0.8c-0.2-0.2-0.2-0.4-0.2-0.7
		c-0.1-0.8-0.3-1.6-0.4-2.3c0-0.1,0-0.2,0.1-0.3c0.1,0,0.2-0.1,0.3,0c0.1,0.2,0.2,0.4,0.3,0.6c0.1,0.3,0.3,0.6,0.5,0.8
		c0,0.1,0.1,0.1,0.1,0.1c0.6,0.7,1.4,1.3,2.3,1.6c0.2,0,0.4,0.1,0.6,0.1c0.4,0.1,0.8,0.1,1.2,0.1c0.2,0,0.4-0.1,0.5,0
		c0.8-0.1,1.4-0.5,1.9-1.1c0.4-0.5,0.7-1.2,0.6-1.9c-0.1-0.3-0.2-0.6-0.3-0.8c-0.3-0.7-1-1.1-1.7-1.4c-0.1-0.1-0.3-0.1-0.4-0.2
		c-0.8-0.3-1.6-0.5-2.5-0.8c-0.4-0.1-0.8-0.3-1.1-0.5c-0.8-0.4-1.5-1.1-1.8-1.9c-0.3-0.8-0.3-1.6-0.1-2.4c0.1-0.4,0.2-0.7,0.5-1
		c0.1-0.1,0.2-0.2,0.2-0.3c0.6-0.7,1.5-1.1,2.4-1.3C70.4,0,71.2,0,71.8,0C72.6,0.1,73.4,0.3,74.1,0.6 M90.9,0.5
		c0-0.1-0.1-0.1-0.1-0.1c-0.3-0.2-0.7-0.1-1.1,0c-0.1,0-0.3,0.1-0.4,0c-0.7,0-1.4,0-2,0l0,0c-0.2,0-0.3,0-0.5,0
		c-0.1,0-0.1,0.1-0.1,0.1c0,0.1,0.1,0.3,0.2,0.3c0.3,0.2,0.7,0.4,0.9,0.6c0.6,0.6,0.3,1.5,0.4,2.3v2.1c0,0.3,0,0.7-0.2,0.9
		c-0.3,0.1-0.7,0-1.1,0l-3,0l-2.9,0l-0.2,0c-0.2-0.1-0.3-0.3-0.4-0.5l0-1.8V2.3c0-0.3,0.1-0.6,0.3-0.8c0.3-0.4,0.7-0.5,1.1-0.8
		c0.1-0.1,0.1-0.1,0-0.2c0-0.1-0.1-0.1-0.2-0.1c-0.5,0-1.1,0-1.6,0.1l0,0c-0.6,0-1.2,0-1.8-0.1c-0.3,0-0.6-0.1-0.9,0
		c-0.1,0-0.1,0.1-0.1,0.1c0,0.1,0.1,0.2,0.1,0.2C77.4,0.9,77.7,1,78,1.1c0.2,0.1,0.4,0.3,0.6,0.5C78.8,2,78.8,2.5,78.8,3l0,2.3
		l0,6.4c0,0.8-0.1,1.6-0.8,2.1c-0.3,0.2-0.6,0.3-0.8,0.5c0,0.1,0,0.3,0.1,0.4c0.3,0,0.6,0,0.9,0c1.1,0,2.3,0,3.3,0
		c0.2,0,0.5,0.1,0.6-0.1c0-0.2-0.1-0.3-0.3-0.4c-0.6-0.3-1.6-0.6-1.6-1.5l0-4c0-0.2,0-0.4,0-0.6c0-0.1,0.1-0.2,0.1-0.3
		c0.1-0.1,0.2-0.2,0.4-0.2l2.1,0l3,0h1.8l0.2,0c0.2,0.1,0.3,0.3,0.3,0.5c0,1.4,0,2.8,0,4.2l0,0l0,0c0,0.3,0,0.7-0.2,1
		c-0.3,0.4-0.8,0.6-1.1,1c0,0.1-0.1,0.2,0,0.3c0,0.1,0.1,0.1,0.2,0.1c0.6,0,1.2-0.1,1.8-0.1l0,0c0.8,0,1.6,0,2.4,0.1l0.1,0
		c0.1-0.1,0.1-0.1,0.2-0.2c0-0.1-0.1-0.2-0.2-0.3c-0.5-0.3-1-0.4-1.3-0.9c0,0,0-0.1-0.1-0.1c-0.1-0.2-0.2-0.4-0.2-0.7l0-2.1
		c0,0,0,0,0,0l0-5.1l0-1.9V3c0-0.2,0-0.5,0-0.7c0-0.4,0.1-0.7,0.4-1c0.3-0.3,0.7-0.4,0.9-0.7C90.9,0.6,90.9,0.5,90.9,0.5 M65.2,0.4
		c-0.2-0.2-0.5-0.1-0.7-0.1c-0.7,0.1-1.4,0.1-2,0c-0.3,0-0.5,0-0.8,0c-0.1,0-0.3,0-0.4,0.1c-0.1,0.1-0.1,0.2-0.1,0.3
		c0.2,0.4,0.6,0.5,1,0.7c0.4,0.2,0.8,0.6,0.9,1.1c0.1,0.8,0,1.5,0,2.2l0,2.8l0,1.8c0,0.1,0,0.3,0,0.4l0,0c0,0.3,0,0.7-0.1,1
		c0,0,0,0.1,0,0.1c-0.1,0.7-0.4,1.3-0.8,1.9c-0.8,1.1-2.2,1.4-3.5,1.3c-0.5,0-0.9-0.1-1.3-0.3c-0.5-0.2-0.8-0.5-1.2-0.8
		c-0.4-0.4-0.7-0.9-0.9-1.4c-0.2-0.6-0.4-1.2-0.5-1.8c0-0.2,0-0.5-0.1-0.7l0-1.6V5.6c0-1.2,0-2.4,0-3.6c0-0.5,0.6-0.9,1-1.1
		c0.2-0.1,0.4-0.3,0.3-0.5c-0.2-0.2-0.5-0.1-0.8-0.1c-0.9,0-1.7,0.1-2.6,0c-0.1,0-0.1,0-0.2,0c-0.1,0-0.3,0-0.4,0
		c-0.2,0-0.4,0-0.6,0.1c-0.1,0.1,0,0.3,0.1,0.4c0.5,0.4,1.1,0.5,1.5,1c0,0,0,0,0,0.1c0,0.1,0,0.1,0,0.2c0,0.8,0,1.5,0,2.3l0,4.2
		c0,0.4,0,0.8,0,1.2c0,0.1,0,0.1,0.1,0.2c0,0,0,0,0,0c0,0.4,0.1,0.8,0.2,1.2c0,0.1,0,0.2,0.1,0.3c0.1,0.4,0.2,0.7,0.4,1
		c0,0,0,0,0,0.1c0.3,0.5,0.7,0.9,1.2,1.2c0.2,0.1,0.3,0.2,0.5,0.3c0.6,0.3,1.1,0.4,1.8,0.5c0.3,0.1,0.6,0.1,1,0.1l0,0
		c1.2,0,2.3,0,3.2-0.5c0.7-0.3,1.3-1,1.7-1.6c0-0.1,0.1-0.2,0.2-0.3c0.2-0.3,0.3-0.7,0.4-1c0.1-0.3,0.2-0.7,0.2-1.1
		c0-0.4,0.1-0.9,0-1.3V5.9c0-1.1,0-2.3,0-3.4l0,0c0-0.5,0.2-0.9,0.5-1.2C64.8,1,65.3,0.8,65.2,0.4 M44.6,0.8c0.3,0,0.7,0.1,1,0.2
		c0.3,0.1,0.5,0.2,0.8,0.4c0.1,0,0.2,0.2,0.3,0.2c0.6,0.6,0.9,1.4,1,2.2c0,0.9-0.1,1.8-0.8,2.4c-0.1,0.1-0.2,0.1-0.3,0.2
		c-0.3,0.1-0.5,0.3-0.8,0.3c0,0-0.1,0-0.1,0c-0.3,0.1-0.6,0.1-1,0.1c-0.6,0-1.2,0.1-1.8-0.1c-0.1,0-0.1-0.1-0.2-0.2
		c0-0.9,0-1.9,0-2.8l0-2.3c0-0.3,0-0.6,0.3-0.7C43.5,0.7,44.1,0.8,44.6,0.8 M48.5,1.3c-1-0.9-2.3-1.1-3.6-1c-0.6,0-1.2,0-1.8,0.1
		c-0.2,0-0.3,0-0.5,0c-0.6,0-1.3,0-1.9,0c-0.3,0-0.5-0.1-0.8-0.1c-0.1,0-0.3,0.1-0.4,0.2c0,0.1,0,0.2,0.1,0.3C40,0.9,40.3,1,40.5,1
		c0.5,0.1,0.7,0.6,0.8,1c0.1,0.7,0,1.4,0,2.1l0,2.9v0.2l0,2.7l0,2.3c0,0.7-0.1,1.3-0.8,1.7c-0.1,0.1-0.3,0.2-0.4,0.2
		c-0.1,0.1-0.2,0.1-0.2,0.2c-0.1,0.1-0.1,0.2-0.1,0.3c0,0.1,0.1,0.1,0.2,0.1c0.3,0,0.6,0,0.9,0c0.4,0,0.8-0.1,1.2,0
		c0.1,0,0.3,0,0.4,0l0,0c0.4,0,0.8,0,1.1,0c0.4,0,0.8,0.1,1.2,0c0.1,0,0.1-0.1,0.1-0.2c0-0.1-0.1-0.2-0.1-0.2
		c-0.3-0.1-0.7-0.2-1-0.3c-0.4-0.1-0.8-0.5-0.9-0.9c0-0.2-0.1-0.3-0.1-0.5l0-2.9V8.4c0-0.1,0-0.2,0-0.4C43,8,43.2,7.9,43.3,7.9
		c0.6,0,1.2,0,1.8,0c0.6,0,0.7,0.7,1,1.1c0.4,0.6,0.8,1.2,1.2,1.8c0.1,0.2,0.2,0.4,0.4,0.6c0.6,0.8,1,1.6,1.5,2.3
		c0.4,0.6,1,0.8,1.6,0.9c0.5,0,1.1,0,1.6-0.1c0.1,0,0.3,0,0.3-0.2c0-0.2-0.3-0.2-0.4-0.3c0,0-0.1,0-0.1,0c-0.4-0.1-0.7-0.4-1-0.6
		c-0.2-0.2-0.4-0.4-0.6-0.7c-0.1-0.1-0.2-0.3-0.3-0.4c-0.9-1.4-1.9-2.8-2.8-4.2c-0.2-0.3-0.4-0.5-0.5-0.8c0.3-0.2,0.6-0.3,0.9-0.6
		c0.9-0.7,1.5-1.6,1.6-2.6C49.5,3.1,49.3,2.1,48.5,1.3 M101.1,2.2c0-1.4,1.3-0.9,1.3-1.4c0-0.2-0.5-0.2-0.6-0.2
		c-0.6,0-1.3,0.1-1.9,0.1c-0.5,0-1-0.1-1.6-0.1c-0.1,0-0.4,0.1-0.4,0.2c0,0.6,1.6,0.2,1.6,1.3v6.7c0,3.1,1,6,6.2,6
		c5.8,0,5.6-4.9,5.6-5.9V2.7c0-1.8,1.2-1.4,1.2-2c0-0.1-0.2-0.2-0.3-0.2c-0.4,0-0.7,0.1-1.1,0.1c-0.8,0-1.6-0.1-2.3-0.1
		c-0.1,0-0.2,0.1-0.2,0.2c0,0.8,1.9-0.1,1.9,2v6.5c0,2.4-0.9,4.8-4.6,4.8c-2.7,0-4.8-1.5-4.8-4.6V2.2z M115.8,11.8
		c0,2.8-1.8,1.9-1.8,2.6c0,0.1,0,0.2,0.3,0.2c0.1,0,1.2-0.1,1.9-0.1c1,0,1.5,0.1,2,0.1c0.2,0,0.2-0.2,0.2-0.3c0-0.5-1.8,0.2-1.8-1.6
		V4.6c0-0.4,0.1-0.5,0.1-0.5c0.1,0,0.4,0.3,0.4,0.4l8.6,9.7c0.4,0.5,0.6,0.6,0.8,0.6c0.2,0,0.2-0.3,0.2-0.9V2.3
		c0-1.5,1.2-1.1,1.2-1.6c0-0.1-0.1-0.2-0.2-0.2c-0.5,0-1.3,0.1-2,0.1c-0.6,0-1.2-0.1-1.8-0.1c-0.1,0-0.2,0.1-0.2,0.2
		c0,0.7,2.2-0.1,2.2,2.5v8.3c0,0.2,0,0.2-0.1,0.2c0,0-0.1-0.1-0.2-0.2L116.1,1c-0.1-0.1-0.3-0.5-0.5-0.5c-0.3,0-0.6,0.1-0.9,0.1
		c-0.3,0-0.6-0.1-0.9-0.1c-0.1,0-0.3,0.1-0.3,0.2c0,0.7,2.4-0.4,2.4,3.7V11.8z M131.1,12.5c0,2-1.6,1.3-1.6,1.9
		c0,0.2,0.1,0.3,0.4,0.3c0.3,0,0.7-0.1,1.9-0.1c0.9,0,1.7,0.1,2.2,0.1c0.3,0,0.4-0.1,0.4-0.2c0-0.6-1.8-0.1-1.8-1.5V2.2
		c0-1.5,1.4-1,1.4-1.5c0-0.2-0.1-0.2-0.4-0.2c-0.6,0-1.2,0.1-1.9,0.1c-0.7,0-1.5-0.1-2.2-0.1c-0.2,0-0.2,0-0.2,0.2
		c0,0.4,1.6,0,1.6,1.5V12.5z M141.7,13.7c0.2,0.4,0.4,1.3,0.7,1.3c0.3,0,0.4-0.7,0.7-1.2l5-11.8c0.6-1.3,1.1-0.8,1.1-1.3
		c0-0.2-0.1-0.3-0.3-0.3c-0.3,0-0.6,0.1-1.5,0.1c-0.4,0-0.9-0.1-1.3-0.1c-0.2,0-0.3,0.1-0.3,0.3c0,0.5,1.3,0.1,1.3,1
		c0.1,0.4-0.2,1.1-0.3,1.4l-3.5,8.6c-0.1,0.2-0.2,0.6-0.4,0.6c-0.2,0-0.4-0.5-0.8-1.5l-3.5-8.2c-0.1-0.2-0.2-0.5-0.2-0.8
		c0-0.7,0.8-0.7,0.8-1c0-0.1-0.2-0.2-0.3-0.2c-0.3,0-1,0.1-1.6,0.1c-0.6,0-1.2-0.1-1.8-0.1c-0.2,0-0.3,0.1-0.3,0.3
		c0,0.4,1,0.1,1.5,1.3L141.7,13.7z M153.1,2.6c0-1.3,0-1.3,1.9-1.3c0.8,0,2.9-0.1,3.4,0.6c0.3,0.5,0,1.4,0.5,1.4
		c0.1,0,0.4-0.2,0.4-2.4c0-0.2,0-0.4-0.2-0.4c-0.6,0-2.4,0.1-2.8,0.1c-0.8,0-1.9-0.1-5.7-0.1c-0.6,0-0.7,0.1-0.7,0.2
		c0,0.2,0.4,0.3,0.6,0.3c1.1,0.2,1.1,1.1,1.1,2v9.1c0,0.9,0,1.5-0.6,1.7c-0.6,0.3-0.8,0.3-0.9,0.5c0,0.2,0.1,0.2,0.3,0.2
		c0.8,0,1.6,0,2.4-0.1c1.5,0,3,0.1,4.6,0.1c0.9,0,1.3,0,1.9-0.7c0.5-0.5,1-1.2,1-1.9c0,0,0-0.2-0.2-0.2c-0.3,0-0.9,2.1-5.5,2.1
		c-1.7,0-1.5-0.5-1.5-1.7V8.5c0-0.3-0.1-0.6,0.4-0.6h3c1.7,0,1,1.8,1.6,1.8c0.1,0,0.2-0.1,0.2-0.3c0-0.5,0-1.1,0-1.6
		c0-0.6,0-1.3,0-2c0-0.2-0.1-0.4-0.2-0.4c-0.5,0,0.1,1.6-2,1.6h-2.2c-0.8,0-0.8,0-0.8-0.7V2.6z M171.4,12.5c1.4,2.2,2.4,1.5,2.4,1.9
		c0,0.2-1.1,0.2-1.3,0.2c-1.5,0-2.2-1-3-2.2L167.3,9c-0.7-1.1-0.4-1.1-2.7-1.1c-0.6,0-0.5,0.4-0.5,0.6v4.2c0,1.7,2.1,1.1,2.1,1.8
		c0,0.2-0.2,0.2-0.3,0.2c-0.2,0-0.6-0.1-2.3-0.1c-0.8,0-1.5,0.1-2.3,0.1c-0.1,0-0.2-0.1-0.2-0.2c0-0.5,1.5-0.2,1.5-1.7V2.6
		c0-1.9-1.7-1.1-1.7-1.8c0-0.1,0.2-0.2,0.4-0.2c0.4,0,0.3,0.1,1.3,0.1c1.2,0,2.3-0.1,3.3-0.1c0.3,0,4.7-0.4,4.7,3.5
		c0,1.6-1.1,2.9-2.5,3.4L171.4,12.5z M164.2,7c0,0.4,1.2,0.3,2.2,0.3c0.9,0,2.8-0.4,2.8-2.8c0-2.4-1.9-3.2-3.8-3.2
		c-0.7,0-1.1,0-1.1,0.7V7z M175,13.7c0.1,0.4,1.9,1.1,3.4,1.1c4.6,0,5.7-2.5,5.7-4.2c0-5.5-8.1-3.3-8.1-7.1c0-1.8,1.7-2.6,3.3-2.6
		c1.8,0,3.2,0.9,3.8,2.6c0.1,0.2,0.2,0.6,0.4,0.6c0.2,0,0.2-0.1,0.2-0.3l-0.3-2.7c0-0.2-0.1-0.3-0.2-0.3c-0.2,0-0.2,0.2-0.4,0.2
		c-0.3,0-0.9-0.7-3.4-0.7c-2.3,0-4.4,1.2-4.4,3.8c0,5.2,8.1,3.1,8.1,6.9c0,2.1-1.9,3.2-3.8,3.2c-2.8,0-4-2.1-4.2-3
		c-0.1-0.4-0.1-0.7-0.4-0.7c-0.2,0-0.3,0.2-0.2,0.6L175,13.7z M186.4,12.5c0,2-1.6,1.3-1.6,1.9c0,0.2,0.1,0.3,0.4,0.3
		c0.3,0,0.7-0.1,1.9-0.1c0.9,0,1.7,0.1,2.2,0.1c0.3,0,0.4-0.1,0.4-0.2c0-0.6-1.8-0.1-1.8-1.5V2.2c0-1.5,1.4-1,1.4-1.5
		c0-0.2-0.1-0.2-0.4-0.2c-0.6,0-1.2,0.1-1.9,0.1c-0.7,0-1.5-0.1-2.2-0.1c-0.2,0-0.2,0-0.2,0.2c0,0.4,1.6,0,1.6,1.5V12.5z
		 M196.4,12.9c0,1.2-1.6,1-1.6,1.5c0,0.2,0.1,0.3,0.2,0.3c0.1,0,0.5-0.1,2.7-0.1c0.6,0,1.1,0.1,1.6,0.1c0.2,0,0.2-0.2,0.2-0.2
		c0-0.6-1.6,0-1.6-1.6V2.6c0-1.1-0.1-1,0.8-1h2.9c2.1,0,1,1.5,1.7,1.5c0.3,0,0.2-0.2,0.2-0.4l-0.1-1.6c0-0.5-0.1-0.6-0.6-0.6
		c-0.4,0-2.2,0.1-5.9,0.1c-2.6,0-4.1-0.1-5.7-0.1c-0.4,0-0.3,0.5-0.4,0.8l-0.2,1.9c0,0.1,0.1,0.2,0.2,0.2c0.3,0,0.3-0.3,0.3-0.5
		c0.4-1.1,0.4-1.4,1.6-1.4h3.3c0.3,0,0.2,0.8,0.2,0.9V12.9z M208.8,7.1c0.2,0.2,0.5,0.6,0.5,1v4.8c0,1.4-1.5,0.9-1.5,1.5
		c0,0.2,0.1,0.2,0.3,0.2c0.2,0,0.9-0.1,1.8-0.1c0.7,0,1.9,0.1,2.2,0.1c0.3,0,0.5,0,0.5-0.2c0-0.6-1.6-0.1-1.6-1.8V7.8
		c0-0.3,0.2-0.4,0.5-0.9l2.8-4.3c0.3-0.5,0.6-1.1,1.1-1.4c0.1-0.1,0.5-0.2,0.5-0.4c0-0.1-0.1-0.2-0.2-0.2c-0.6,0-1.2,0.1-1.7,0.1
		c-0.5,0-1-0.1-1.5-0.1c-0.2,0-0.4,0-0.4,0.3c0,0.5,1.5,0.1,1.5,1c0,0.5-0.3,0.9-0.4,1.1l-2.1,3.3c-0.2,0.3-0.3,0.4-0.4,0.4
		c-0.1,0-0.2-0.1-0.4-0.4l-2.4-3.8c-0.1-0.2-0.4-0.5-0.4-0.8c0-0.6,0.9-0.6,0.9-0.9c0-0.2-0.2-0.2-0.4-0.2c-0.2,0-0.7,0.1-1.4,0.1
		c-1.4,0-1.7-0.1-2.3-0.1c-0.1,0-0.3,0.2-0.3,0.3c0,0.3,1,0.1,1.5,1L208.8,7.1z M22.2,1.9c-1.5-0.7-3-1.3-4.7-1.5
		c-0.8-0.1-1.6-0.2-2.5-0.1c-1.2,0.1-2.5,0.2-3.7,0.6C9.1,1.6,7,2.7,5.3,4.4C3.8,5.7,2.6,7.3,1.8,8.9c-0.4,0.8-0.7,1.6-1,2.4
		c-0.3,1-0.6,1.9-0.7,2.9c0,0.1-0.1,0.2,0,0.3l0.7,0h4.6l0.2-0.1c0.1-0.7,0.1-1.2,0.3-1.9c0.1-0.5,0.2-1.1,0.3-1.6
		c0.3-0.9,0.6-1.9,1-2.7C7.4,7.9,7.5,7.4,7.8,7c0.7-1.2,1.5-2.3,2.5-3.3c1.1-0.9,2.4-1.8,3.8-2c0.7-0.1,1.4-0.2,2.1-0.1
		c1.2,0.1,2.2,0.6,3.2,1.3c1.5,1,2.6,2.3,3.4,3.8c0.7,1.1,1.2,2.2,1.6,3.4c0.4,1.4,0.8,2.7,1,4.2c0,0.1,0,0.2,0.1,0.2
		c1.7,0,3.4,0,5.1,0l0.3,0c-0.2-1.6-0.7-3.2-1.4-4.7C28.1,6.5,25.4,3.6,22.2,1.9 M13.9,7.7c-0.4,0-0.8,0-1.2,0c0,0.3,0,0.6,0,0.8
		c0,0.7,0.1,1.4,0.2,2c0,0.2,0,0.4,0,0.6c0.1,1.9,0.2,3.7,0.3,5.7c0,0.3,0,0.5,0,0.8c0,1.1,0.1,2.3,0,3.4c0.1,1.9,0,3.7,0,5.5
		c-0.1,0.3,0.1,0.7,0,1c0,1.2-0.1,2.3-0.2,3.4c0,0.3,0,0.5-0.2,0.8c-0.2,0.2-0.5,0.1-0.7,0c-2.1-1.1-3.8-3.2-4.8-5.4
		c-0.1-0.1,0-0.2-0.1-0.2c0,0,0-0.1,0-0.1c-0.5-1-0.9-2.1-1.2-3.3c-0.3-1-0.5-2.1-0.6-3.2l-0.4,0l-5,0l0,0c0.2,1,0.4,2,0.7,2.9
		c0.9,2.9,2.7,5.6,5.2,7.7c0.6,0.5,1.3,1,2,1.4C8.4,32,9,32.2,9.6,32.5c1,0.4,2,0.7,3.1,0.9c0.1,0,0.2,0.1,0.3,0l0,0
		c0.6,0.1,1.3,0.1,1.9,0.2c3.4,0.1,6.4-0.9,9-2.7c1-0.7,1.9-1.5,2.7-2.4c0.6-0.7,1.2-1.4,1.6-2.1c0.9-1.4,1.5-2.9,2-4.5
		c0.2-0.7,0.4-1.3,0.5-2c0-0.1,0.1-0.3,0-0.4h-1.7l-3.7,0l-0.1,0c-0.2,2-0.7,4-1.5,5.8c0,0.1-0.1,0.2-0.1,0.3
		c-0.5,1.1-1.1,2.2-1.8,3.1c-0.4,0.5-0.7,0.9-1.2,1.4c-0.5,0.4-1,0.9-1.5,1.2c-0.3,0.2-0.6,0.5-1,0.4c-0.5-0.3-0.3-0.9-0.4-1.4
		c-0.1-1.3-0.2-2.6-0.2-4l0,0c-0.1-1.2,0-2.6,0-3.7c0-1.9,0-3.7,0.1-5.6l0-1.3l0-0.1c0.1-2.6,0.3-5.1,0.4-7.7
		c-0.1-0.1,0.1-0.2,0-0.3L13.9,7.7z M215.7,18.8h-176v0.9h176V18.8z M42,24.4c0-0.6,0.3-0.5,0.8-0.5c1.4,0,2.8,0.6,2.8,2.4
		c0,1.8-1.4,2-2,2c-0.7,0-1.6,0.1-1.6-0.2V24.4z M44.8,28.4c1-0.4,1.8-1.4,1.8-2.5c0-2.8-3.2-2.5-3.4-2.5c-0.7,0-1.6,0.1-2.4,0.1
		c-0.7,0-0.7-0.1-0.9-0.1c-0.2,0-0.3,0.1-0.3,0.2c0,0.5,1.2-0.1,1.2,1.3v7.3c0,1.1-1.1,0.9-1.1,1.3c0,0.1,0.1,0.2,0.1,0.2
		c0.5,0,1.1-0.1,1.6-0.1c1.2,0,1.5,0.1,1.7,0.1c0.1,0,0.2,0,0.2-0.1c0-0.5-1.5,0-1.5-1.3v-3c0-0.1-0.1-0.4,0.4-0.4
		c1.6,0,1.4,0,1.9,0.8l1.6,2.5c0.5,0.8,1.1,1.6,2.2,1.6c0.1,0,0.9,0,0.9-0.2c0-0.3-0.7,0.2-1.7-1.4L44.8,28.4z M50.1,24.6
		c0-1,1-0.6,1-1c0-0.2-0.4-0.1-0.5-0.1c-0.4,0-0.9,0.1-1.4,0.1c-0.4,0-0.7-0.1-1.1-0.1c-0.1,0-0.3,0-0.3,0.1c0,0.5,1.2,0.1,1.2,1
		v4.9c0,2.2,0.7,4.3,4.5,4.3c4.2,0,4-3.6,4-4.3V25c0-1.3,0.8-1,0.8-1.4c0-0.1-0.1-0.2-0.2-0.2c-0.3,0-0.5,0.1-0.8,0.1
		c-0.6,0-1.1-0.1-1.7-0.1c0,0-0.1,0.1-0.1,0.1c0,0.5,1.3-0.1,1.3,1.4v4.7c0,1.7-0.6,3.5-3.3,3.5c-1.9,0-3.4-1.1-3.4-3.4V24.6z
		 M59.8,32.9c0.1,0.3,1.4,0.8,2.4,0.8c3.3,0,4.1-1.8,4.1-3c0-4-5.9-2.4-5.9-5.1c0-1.3,1.2-1.9,2.4-1.9c1.3,0,2.3,0.6,2.8,1.9
		c0,0.1,0.1,0.4,0.3,0.4c0.1,0,0.2-0.1,0.2-0.2l-0.2-2c0-0.2-0.1-0.2-0.2-0.2c-0.1,0-0.2,0.2-0.3,0.2c-0.2,0-0.7-0.5-2.4-0.5
		c-1.7,0-3.2,0.9-3.2,2.7c0,3.8,5.8,2.2,5.8,5c0,1.5-1.3,2.3-2.7,2.3c-2,0-2.9-1.5-3-2.2c-0.1-0.3-0.1-0.5-0.3-0.5
		c-0.1,0-0.2,0.2-0.2,0.4L59.8,32.9z M68.6,32c0,1.4-1.1,0.9-1.1,1.4c0,0.1,0,0.2,0.2,0.2c0.1,0,0.2-0.1,1.2-0.1
		c0.8,0,1.8,0.1,2,0.1c0.1,0,0.2,0,0.2-0.1c0-0.4-1.4-0.1-1.4-1.1v-3.6c0-0.2,0-0.2,0.2-0.2h5.3c0.2,0,0.1,0.1,0.1,0.4v3.5
		c0,0.9-1,0.7-1,1.1c0,0.2,0.2,0.2,0.3,0.2c0.3,0,0.7-0.1,1.6-0.1c0.5,0,1,0.1,1.4,0.1c0.1,0,0.2-0.1,0.2-0.2c0-0.4-1.3-0.1-1.3-1.2
		v-7.6c0-1,1-0.7,1-1c0-0.1,0-0.2-0.4-0.2c-0.3,0-0.5,0.1-1,0.1c-0.3,0-1-0.1-1.5-0.1c-0.2,0-0.2,0.1-0.2,0.2c0,0.3,1.1,0.1,1.1,1.1
		v3c0,0.1,0,0.4-0.1,0.4H70c-0.2,0-0.2-0.1-0.2-0.3v-3.1c0-1.1,1-0.8,1-1.1c0-0.1,0-0.1-0.3-0.1c-0.4,0-0.9,0.1-1.3,0.1
		c-0.5,0-1-0.1-1.6-0.1c-0.1,0-0.2,0-0.2,0.2c0,0.3,1.2,0,1.3,1.1V32z M92.9,25.1c-0.1-1.7,1.1-1.1,1.1-1.6c0-0.1-0.1-0.2-0.1-0.2
		c-0.2,0-0.4,0.1-0.7,0.1c-0.1,0-0.5-0.1-0.7-0.1c-0.2,0-0.3,0.3-0.4,0.5l-3.4,6.9c-0.2,0.5-0.4,0.8-0.4,0.8c-0.1,0-0.2-0.1-0.3-0.4
		l-3.4-7.3c-0.1-0.2-0.1-0.4-0.3-0.4c-0.3,0-0.5,0.1-0.8,0.1c-0.3,0-0.5-0.1-0.8-0.1c-0.1,0-0.2,0-0.2,0.2c0,0.5,1.4-0.3,1.4,3.1
		c0,1.5-0.2,3.1-0.3,5.4c-0.1,1.5-1,0.9-1,1.4c0,0.1,0,0.2,0.1,0.2c0.3,0,0.5-0.1,1.3-0.1c0.4,0,1.1,0.1,1.3,0.1
		c0.2,0,0.4,0,0.4-0.2c0-0.5-1.4,0.1-1.3-1.8l0.2-5.1c0-0.1,0.1-0.2,0.1-0.2c0.1,0,0.1,0,0.2,0.2l3.1,6.4c0,0.1,0.1,0.4,0.3,0.4
		s0.4-0.6,0.4-0.7l3-6.1c0.1-0.3,0.3-0.4,0.4-0.4c0.1,0,0.2,0.2,0.2,0.6l0.1,5.6c0,1.1-0.9,0.8-0.9,1.2c0,0.1,0,0.1,0.2,0.1
		c0.4,0,0.8-0.1,1.3-0.1c0.6,0,1.1,0.1,1.4,0.1c0.2,0,0.3,0,0.3-0.1c0-0.5-1.1,0-1.1-1.2L92.9,25.1z M97.4,24.9c0-1,0-0.9,1.4-0.9
		c0.6,0,2.1-0.1,2.4,0.4c0.2,0.3,0,1,0.3,1c0.1,0,0.3-0.1,0.3-1.7c0-0.2,0-0.3-0.1-0.3c-0.4,0-1.8,0.1-2.1,0.1
		c-0.6,0-1.4-0.1-4.1-0.1c-0.4,0-0.5,0.1-0.5,0.2c0,0.2,0.3,0.2,0.4,0.2c0.8,0.1,0.8,0.8,0.8,1.5v6.6c0,0.7,0,1.1-0.4,1.3
		c-0.5,0.2-0.6,0.2-0.6,0.4c0,0.1,0.1,0.1,0.2,0.1c0.6,0,1.2,0,1.8-0.1c1.1,0,2.2,0.1,3.3,0.1c0.6,0,1,0,1.4-0.5
		c0.3-0.4,0.7-0.9,0.7-1.4c0,0,0-0.2-0.1-0.2c-0.2,0-0.7,1.5-4,1.5c-1.2,0-1.1-0.3-1.1-1.2v-2.6c0-0.2,0-0.5,0.3-0.5h2.1
		c1.2,0,0.7,1.3,1.2,1.3c0.1,0,0.2-0.1,0.2-0.2c0-0.4,0-0.8,0-1.1c0-0.5,0-1,0-1.5c0-0.1,0-0.3-0.2-0.3c-0.3,0,0,1.2-1.5,1.2H98
		c-0.6,0-0.5,0-0.5-0.5V24.9z M105.6,24.7c0-0.7,0.1-0.9,1.4-0.9c2.7,0,4.9,1.8,4.9,5c0,3.3-1.9,4.4-4,4.4c-0.6,0-1.7-0.2-2.2-0.6
		c-0.1-0.1-0.1-0.8-0.1-1V24.7z M104.5,32.1c0,1.4-1,1-1,1.3c0,0.1,0,0.1,0.1,0.1c0.1,0,1.5-0.1,1.6-0.1c0.7,0,1.5,0.1,2.2,0.1
		c4,0,5.6-2.3,5.6-5.6c0-2.7-2.5-4.6-5.1-4.6c-1.2,0-2.2,0.1-3.1,0.1c-0.4,0-0.8-0.1-1.3-0.1c-0.1,0-0.2,0-0.2,0.1
		c0,0.4,1.2-0.1,1.2,1.4V32.1z M115.1,32c0,1.4-1.1,0.9-1.1,1.4c0,0.1,0,0.2,0.3,0.2c0.2,0,0.5-0.1,1.4-0.1c0.6,0,1.2,0.1,1.6,0.1
		c0.2,0,0.3,0,0.3-0.1c0-0.4-1.3-0.1-1.3-1.1v-7.7c0-1.1,1-0.7,1-1.1c0-0.1,0-0.1-0.3-0.1c-0.4,0-0.9,0.1-1.3,0.1
		c-0.5,0-1-0.1-1.6-0.1c-0.1,0-0.1,0-0.1,0.2c0,0.3,1.2,0,1.2,1.1V32z M123.7,23.3c-3,0-5.2,2.4-5.2,5.4c0,3,2.1,5,5.1,5
		c3.2,0,4.3-1.1,4.3-1.1l0.3-1.4c0-0.1-0.1-0.2-0.1-0.2c-0.1,0-0.2,0.1-0.2,0.2c-0.2,0.7-1.6,2.1-3.9,2.1c-2.8,0-4.2-2.5-4.2-5
		c0-2.7,1.4-4.6,4.2-4.6c1.9,0,2.9,0.9,3.8,2.5c0.1,0.1,0.2,0.5,0.3,0.5c0.2,0,0.1-0.5,0.1-1.2c0-0.9,0-1.2-0.2-1.2
		c-0.1,0-0.2,0.1-0.3,0.1C127.2,24.4,126.4,23.3,123.7,23.3 M133.9,25.2c0.1-0.2,0.2-0.2,0.2,0l1.4,3.5c0.1,0.2,0.1,0.3-0.2,0.3
		h-2.9c-0.2,0-0.3-0.1-0.2-0.3L133.9,25.2z M136.6,31.3c0.1,0.4,0.4,1.1,0.4,1.4c0,0.5-0.9,0.4-0.9,0.7c0,0.1,0.2,0.1,0.3,0.1
		c0.4,0,0.8-0.1,1.2-0.1c0.6,0,1.2,0.1,1.8,0.1c0.1,0,0.2,0,0.2-0.1c0-0.4-0.8,0-1.3-0.7c-0.3-0.5-0.5-1.1-0.7-1.6l-3-7.4
		c0-0.1-0.1-0.5-0.3-0.5c-0.2,0-0.2,0.2-1.1,2l-3.4,7.3c-0.4,0.8-1,0.6-1,0.9c0,0.1,0,0.2,0.1,0.2c0.4,0,0.8-0.1,1.2-0.1
		c0.4,0,0.8,0.1,1.2,0.1c0.2,0,0.4,0,0.4-0.2c0-0.4-1,0.1-1-1c0-0.2,0.1-0.4,0.1-0.5l0.9-2c0.1-0.3,0.4-0.3,0.7-0.3h3.2
		c0.4,0,0.5,0.2,0.6,0.6L136.6,31.3z M142.5,24.8c0-1.3,1-0.9,1-1.2c0-0.2-0.1-0.2-0.3-0.2c-0.2,0-0.6,0.1-1.4,0.1
		c-0.7,0-1.2-0.1-1.5-0.1c-0.2,0-0.3,0-0.3,0.2c0,0.3,1.2,0.2,1.2,0.9v7.3c0,0.7,0,1.1-0.4,1.3c-0.5,0.2-0.6,0.2-0.6,0.4
		c0,0.1,0.1,0.1,0.2,0.1c0.6,0,1.2,0,1.8-0.1c1.1,0,2.2,0.1,3.3,0.1c0.6,0,1,0,1.4-0.5c0.3-0.4,0.7-0.9,0.7-1.4c0,0,0-0.2-0.1-0.2
		c-0.2,0-0.7,1.5-4,1.5c-1.2,0-1.1-0.3-1.1-1.2V24.8z M157.1,23.3c-3,0-5.2,2.4-5.2,5.4c0,3,2.1,5,5.1,5c3.2,0,4.3-1.1,4.3-1.1
		l0.3-1.4c0-0.1-0.1-0.2-0.1-0.2c-0.1,0-0.2,0.1-0.2,0.2c-0.2,0.7-1.6,2.1-3.9,2.1c-2.8,0-4.2-2.5-4.2-5c0-2.7,1.4-4.6,4.2-4.6
		c1.9,0,2.9,0.9,3.8,2.5c0.1,0.1,0.2,0.5,0.3,0.5c0.2,0,0.1-0.5,0.1-1.2c0-0.9,0-1.2-0.2-1.2c-0.1,0-0.2,0.1-0.3,0.1
		C160.6,24.4,159.9,23.3,157.1,23.3 M163.7,28c0-2.3,1.4-4.3,3.8-4.3c2.8,0,4.6,2.5,4.6,5.2c0,2.7-1.7,4.3-3.8,4.3
		C165.4,33.3,163.7,30.7,163.7,28 M162.6,28.4c0,3,1.9,5.3,5,5.3c3.2,0,5.4-2.1,5.4-5.3c0-3-2.3-5.1-5.2-5.1
		C164.9,23.3,162.6,25.4,162.6,28.4 M175.9,24.8c0-1.3,1-0.9,1-1.2c0-0.2-0.1-0.2-0.3-0.2c-0.2,0-0.6,0.1-1.4,0.1
		c-0.7,0-1.2-0.1-1.5-0.1c-0.2,0-0.3,0-0.3,0.2c0,0.3,1.2,0.2,1.2,0.9v7.3c0,0.7,0,1.1-0.4,1.3c-0.5,0.2-0.6,0.2-0.6,0.4
		c0,0.1,0.1,0.1,0.2,0.1c0.6,0,1.2,0,1.8-0.1c1.1,0,2.2,0.1,3.3,0.1c0.6,0,1,0,1.4-0.5c0.3-0.4,0.7-0.9,0.7-1.4c0,0,0-0.2-0.1-0.2
		c-0.2,0-0.7,1.5-4,1.5c-1.2,0-1.1-0.3-1.1-1.2V24.8z M184,24.8c0-1.3,1-0.9,1-1.2c0-0.2-0.1-0.2-0.3-0.2c-0.2,0-0.6,0.1-1.4,0.1
		c-0.7,0-1.2-0.1-1.5-0.1c-0.2,0-0.3,0-0.3,0.2c0,0.3,1.2,0.2,1.2,0.9v7.3c0,0.7,0,1.1-0.4,1.3c-0.5,0.2-0.6,0.2-0.6,0.4
		c0,0.1,0.1,0.1,0.2,0.1c0.6,0,1.2,0,1.8-0.1c1.1,0,2.2,0.1,3.3,0.1c0.6,0,1,0,1.4-0.5c0.3-0.4,0.7-0.9,0.7-1.4c0,0,0-0.2-0.1-0.2
		c-0.2,0-0.7,1.5-4,1.5c-1.2,0-1.1-0.3-1.1-1.2V24.8z M192.1,24.9c0-1,0-0.9,1.4-0.9c0.6,0,2.1-0.1,2.4,0.4c0.2,0.3,0,1,0.3,1
		c0.1,0,0.3-0.1,0.3-1.7c0-0.2,0-0.3-0.1-0.3c-0.4,0-1.8,0.1-2.1,0.1c-0.6,0-1.4-0.1-4.1-0.1c-0.4,0-0.5,0.1-0.5,0.2
		c0,0.2,0.3,0.2,0.4,0.2c0.8,0.1,0.8,0.8,0.8,1.5v6.6c0,0.7,0,1.1-0.4,1.3c-0.5,0.2-0.6,0.2-0.6,0.4c0,0.1,0.1,0.1,0.2,0.1
		c0.6,0,1.2,0,1.8-0.1c1.1,0,2.2,0.1,3.3,0.1c0.6,0,1,0,1.4-0.5c0.3-0.4,0.7-0.9,0.7-1.4c0,0,0-0.2-0.1-0.2c-0.2,0-0.7,1.5-4,1.5
		c-1.2,0-1.1-0.3-1.1-1.2v-2.6c0-0.2,0-0.5,0.3-0.5h2.1c1.2,0,0.7,1.3,1.2,1.3c0.1,0,0.2-0.1,0.2-0.2c0-0.4,0-0.8,0-1.1
		c0-0.5,0-1,0-1.5c0-0.1,0-0.3-0.2-0.3c-0.3,0,0,1.2-1.5,1.2h-1.6c-0.6,0-0.6,0-0.6-0.5V24.9z M205.4,28.2c-0.1,0-0.3,0-0.3,0.2
		c0,0.4,1.3,0.1,1.3,0.7v2.2c0,1.2-1.7,1.9-3,1.9c-2.8,0-4.2-2.4-4.2-5c0-2.4,1.3-4.6,3.9-4.6c3.4,0,4,2.8,4.4,2.8
		c0.1,0,0.2-0.1,0.2-0.3l-0.1-1.9c0-0.1,0-0.3-0.2-0.3c-0.2,0-0.2,0.3-0.4,0.3c-0.4,0-1.1-1-3.6-1c-3.1,0-5.4,2.1-5.4,5.3
		c0,3.2,2,5.2,5.2,5.2c2.6,0,3-1,4.4-1.5v-2.9c0-1,0.7-0.6,0.7-0.9c0-0.2-0.3-0.1-0.4-0.1H205.4z M210.8,24.8c0-1,0-0.9,1.4-0.9
		c0.6,0,2.1-0.1,2.4,0.4c0.2,0.3,0,1,0.3,1c0.1,0,0.3-0.1,0.3-1.7c0-0.2,0-0.3-0.1-0.3c-0.4,0-1.8,0.1-2.1,0.1
		c-0.6,0-1.4-0.1-4.1-0.1c-0.4,0-0.5,0.1-0.5,0.2c0,0.2,0.3,0.2,0.4,0.2c0.8,0.1,0.8,0.8,0.8,1.5v6.6c0,0.7,0,1.1-0.4,1.3
		c-0.5,0.2-0.6,0.2-0.6,0.4c0,0.1,0.1,0.1,0.2,0.1c0.6,0,1.2,0,1.8-0.1c1.1,0,2.2,0.1,3.3,0.1c0.6,0,1,0,1.4-0.5
		c0.3-0.4,0.7-0.9,0.7-1.4c0,0,0-0.2-0.1-0.2c-0.2,0-0.7,1.5-4,1.5c-1.2,0-1.1-0.3-1.1-1.2v-2.7c0-0.2,0-0.5,0.3-0.5h2.1
		c1.2,0,0.7,1.3,1.2,1.3c0.1,0,0.2-0.1,0.2-0.2c0-0.4,0-0.8,0-1.1c0-0.5,0-0.9,0-1.5c0-0.1,0-0.3-0.2-0.3c-0.3,0,0,1.2-1.5,1.2h-1.6
		c-0.6,0-0.5,0-0.5-0.5V24.8z"/>
</g>
<g id="Layer_2">
</g>
</svg>
