<?xml version="1.0" encoding="utf-8"?>
<!-- Generator: Adobe Illustrator 18.1.1, SVG Export Plug-In . SVG Version: 6.00 Build 0)  -->
<svg version="1.1" xmlns="http://www.w3.org/2000/svg" xmlns:xlink="http://www.w3.org/1999/xlink" x="0px" y="0px" width="216px"
	 height="33.8px" viewBox="0 0 216 33.8" enable-background="new 0 0 216 33.8" xml:space="preserve">
<g id="Layer_1">
	<path d="M74.3,0.6c0.1,0,0.2,0.1,0.4,0.1c0.1-0.1,0.2-0.3,0.4-0.2c0.2,0.1,0.2,0.4,0.2,0.6c0.1,0.8,0.2,1.7,0.3,2.6
		c0,0.1,0,0.2-0.1,0.2c-0.1,0-0.2,0-0.3,0c-0.2-0.2-0.2-0.5-0.4-0.8c-0.2-0.4-0.6-0.8-1-1.1c-0.8-0.7-1.7-1.1-2.8-1.1
		c-0.3,0-0.6,0-0.9,0C69.8,0.9,69.4,1,69,1.3c-0.5,0.3-0.9,0.8-1,1.3c-0.2,0.5-0.1,1.1,0.1,1.6c0.3,0.5,0.7,0.9,1.2,1.2
		c0.5,0.2,1,0.4,1.5,0.6c0.3,0.1,0.7,0.2,1,0.3C73,6.5,74.1,6.9,75,7.8c0.4,0.5,0.8,1,0.9,1.6C76,9.6,76,9.7,76,9.9
		c0.1,0.2,0,0.5,0.1,0.7c0,0.1,0,0.2,0,0.3c0,0,0,0.1,0,0.2c-0.1,1.2-1,2.4-2.1,2.9c-0.1,0.1-0.2,0.1-0.3,0.2
		c-0.1,0-0.2,0.1-0.4,0.1c-0.2,0.1-0.4,0.1-0.7,0.2c-0.2,0.1-0.4,0.1-0.6,0.1c-1,0.2-2.1,0.2-3.1,0c-0.7-0.2-1.4-0.3-2-0.8
		c-0.2-0.2-0.2-0.4-0.2-0.7c-0.1-0.8-0.3-1.6-0.4-2.3c0-0.1,0-0.2,0.1-0.3c0.1,0,0.2-0.1,0.3,0c0.1,0.2,0.2,0.4,0.3,0.6
		c0.1,0.3,0.3,0.5,0.5,0.8c0,0.1,0.1,0.1,0.1,0.1c0.6,0.7,1.4,1.3,2.3,1.6c0.2,0,0.4,0.1,0.6,0.1c0.4,0.1,0.8,0.1,1.2,0.1
		c0.2,0,0.4-0.1,0.5,0c0.8-0.1,1.4-0.6,1.9-1.1c0.5-0.5,0.7-1.2,0.6-1.9c-0.1-0.3-0.2-0.6-0.3-0.8c-0.3-0.7-1-1.1-1.7-1.4
		c-0.1-0.1-0.3-0.1-0.4-0.2c-0.8-0.3-1.6-0.5-2.5-0.8c-0.4-0.1-0.8-0.3-1.1-0.5C68,6.7,67.3,5.9,67,5.1c-0.3-0.8-0.3-1.6-0.1-2.4
		c0.1-0.4,0.2-0.7,0.5-1c0.1-0.1,0.2-0.2,0.2-0.3c0.7-0.7,1.5-1.1,2.4-1.3C70.6,0,71.4,0,72.1,0C72.9,0.1,73.6,0.3,74.3,0.6
		 M91.1,0.5c0-0.1-0.1-0.1-0.1-0.1c-0.3-0.2-0.7-0.1-1.1-0.1c-0.1,0-0.3,0.1-0.4,0c-0.7,0-1.4,0-2,0l0,0c-0.2,0-0.3,0-0.5,0
		c-0.1,0-0.1,0.1-0.1,0.1c0,0.1,0.1,0.3,0.2,0.3C87.4,1,87.7,1.2,88,1.4c0.6,0.6,0.3,1.5,0.4,2.3v2.1c0,0.3,0,0.7-0.2,0.9
		c-0.3,0.1-0.7,0-1.1,0l-3,0l-2.9,0l-0.2,0c-0.2-0.1-0.3-0.3-0.4-0.5l0-1.8V2.3c0-0.3,0.1-0.6,0.3-0.8c0.3-0.4,0.7-0.5,1.1-0.8
		c0.1-0.1,0.1-0.1,0-0.2c0-0.1-0.1-0.1-0.2-0.1c-0.5,0-1.1,0-1.6,0.1l0,0c-0.6,0-1.2,0-1.8-0.1c-0.3,0-0.6-0.1-0.9,0
		c-0.1,0-0.1,0.1-0.1,0.2c0,0.1,0.1,0.2,0.1,0.2C77.7,0.9,78,1,78.2,1.2c0.2,0.1,0.4,0.3,0.6,0.5C79.1,2,79.1,2.5,79.1,3l0,2.3
		l0,6.4c0,0.8-0.1,1.6-0.8,2.1c-0.3,0.2-0.6,0.2-0.8,0.5c0,0.1,0,0.3,0.1,0.4c0.3,0,0.6,0,0.9,0c1.1,0,2.3,0,3.3,0
		c0.2,0,0.5,0.1,0.6-0.1c0-0.2-0.1-0.3-0.3-0.4c-0.6-0.3-1.6-0.6-1.6-1.5l0-4c0-0.2,0-0.4,0-0.6c0-0.1,0.1-0.2,0.1-0.3
		c0.1-0.1,0.2-0.2,0.4-0.2l2.1,0l3,0h1.8l0.2,0c0.2,0.1,0.3,0.3,0.3,0.5c0,1.4,0,2.8,0,4.2l0,0l0,0c0,0.3,0,0.7-0.2,1
		c-0.3,0.4-0.8,0.6-1.1,1c0,0.1-0.1,0.2,0,0.3c0,0.1,0.1,0.1,0.2,0.1c0.6,0,1.2-0.1,1.8-0.1l0,0c0.8,0,1.6,0,2.4,0.1l0.1,0
		c0.1-0.1,0.1-0.1,0.1-0.2c0-0.1-0.1-0.2-0.2-0.3c-0.5-0.3-1-0.4-1.3-0.9c0,0,0-0.1-0.1-0.1c-0.1-0.2-0.2-0.4-0.2-0.7l0-2.1
		c0,0,0,0,0,0l0-5.1l0-1.9V3c0-0.2,0-0.5,0-0.7c0-0.4,0.1-0.7,0.4-1c0.3-0.3,0.7-0.4,0.9-0.7C91.1,0.6,91.1,0.6,91.1,0.5 M65.4,0.4
		c-0.2-0.2-0.4-0.1-0.7-0.1c-0.6,0.1-1.4,0.1-2,0c-0.3,0-0.5,0-0.8,0c-0.1,0-0.3,0-0.4,0.1c-0.1,0.1-0.1,0.2-0.1,0.3
		c0.2,0.4,0.6,0.5,1,0.7c0.4,0.2,0.8,0.6,0.9,1.1c0.1,0.8,0,1.5,0,2.2l0,2.8l0,1.8c0,0.1,0,0.3,0,0.4l0,0c0,0.3,0,0.7-0.1,1
		c0,0,0,0.1,0,0.1c-0.1,0.7-0.3,1.3-0.8,1.9c-0.8,1.1-2.2,1.4-3.5,1.3c-0.5,0-0.9-0.1-1.3-0.3c-0.5-0.2-0.8-0.5-1.2-0.8
		c-0.4-0.4-0.7-0.9-0.9-1.4c-0.2-0.6-0.4-1.2-0.5-1.8c0-0.2,0-0.5-0.1-0.7l0-1.6V5.6c0-1.2,0-2.4,0-3.6c0-0.5,0.6-0.8,1-1.1
		c0.2-0.1,0.4-0.3,0.3-0.5c-0.2-0.2-0.5-0.1-0.8-0.1c-0.9,0-1.7,0.1-2.6,0c-0.1,0-0.1,0-0.2,0c-0.1,0-0.3,0-0.4,0
		c-0.2,0-0.4,0-0.6,0.1c-0.1,0.1,0,0.3,0.1,0.4c0.5,0.4,1.1,0.5,1.5,1c0,0,0,0,0,0.1c0,0.1,0,0.1,0,0.2c0,0.8,0,1.5,0,2.3l0,4.2
		c0,0.4,0,0.8,0,1.2c0,0.1,0,0.1,0.1,0.2c0,0,0,0,0,0c0,0.4,0.1,0.8,0.2,1.2c0,0.1,0,0.2,0.1,0.3c0.1,0.4,0.2,0.7,0.4,1
		c0,0,0.1,0,0,0.1c0.3,0.5,0.7,0.9,1.2,1.2c0.2,0.1,0.3,0.2,0.5,0.3c0.6,0.2,1.1,0.4,1.8,0.5c0.3,0.1,0.6,0.1,1,0.1l0,0
		c1.2,0,2.3,0,3.2-0.5c0.7-0.3,1.3-1,1.7-1.6c0-0.1,0.1-0.2,0.2-0.3c0.2-0.3,0.3-0.7,0.4-1c0.1-0.3,0.2-0.7,0.2-1.1
		c0-0.4,0.1-0.9,0-1.3V5.9c0-1.1,0-2.3,0-3.4l0-0.1c0-0.5,0.2-0.9,0.5-1.2C65,1,65.5,0.8,65.4,0.4 M44.9,0.8c0.3,0,0.7,0.1,1,0.2
		c0.3,0.1,0.6,0.2,0.8,0.4c0.1,0,0.2,0.2,0.3,0.2c0.6,0.6,0.9,1.4,1,2.2c0,0.9-0.1,1.8-0.8,2.4c-0.1,0.1-0.2,0.1-0.3,0.2
		c-0.3,0.1-0.5,0.3-0.8,0.3c0,0-0.1,0-0.1,0c-0.3,0.1-0.6,0.1-1,0.1c-0.6,0-1.2,0.1-1.8-0.1c-0.1,0-0.1-0.1-0.2-0.2
		c0-0.9,0-1.9,0-2.8l0-2.3c0-0.3,0-0.6,0.3-0.7C43.8,0.7,44.4,0.8,44.9,0.8 M48.8,1.3c-1-0.9-2.3-1.1-3.6-1c-0.6,0-1.2,0-1.8,0.1
		c-0.2,0-0.3,0-0.5,0c-0.6,0-1.3,0-1.9,0c-0.3,0-0.5-0.1-0.8-0.1c-0.1,0-0.3,0.1-0.4,0.2c0,0.1,0,0.2,0.1,0.3
		C40.2,0.9,40.5,1,40.8,1c0.5,0.1,0.7,0.6,0.8,1c0.1,0.7,0,1.4,0,2.1l0,2.9v0.2l0,2.7l0,2.3c0,0.7-0.1,1.3-0.8,1.7
		c-0.1,0.1-0.3,0.1-0.4,0.2c-0.1,0.1-0.2,0.1-0.2,0.2c-0.1,0.1-0.1,0.2-0.1,0.3c0,0.1,0.1,0.1,0.2,0.1c0.3,0,0.6,0,1,0
		c0.4,0,0.8-0.1,1.2,0c0.1,0,0.3,0,0.4,0l0,0c0.4,0,0.8,0,1.1,0c0.4,0,0.8,0.1,1.2,0c0.1,0,0.1-0.1,0.1-0.2c0-0.1-0.1-0.2-0.1-0.2
		c-0.3-0.1-0.6-0.2-1-0.3c-0.4-0.1-0.8-0.5-0.9-0.9c0-0.2-0.1-0.3-0.1-0.5l0-2.9V8.4c0-0.1,0-0.2,0-0.3c0.1-0.1,0.2-0.2,0.3-0.2
		c0.6,0,1.2,0,1.8,0c0.6,0.1,0.7,0.7,1,1.1c0.4,0.6,0.8,1.2,1.2,1.8c0.1,0.2,0.2,0.4,0.4,0.6c0.5,0.8,1,1.6,1.5,2.3
		c0.4,0.6,1,0.9,1.6,0.9c0.5,0,1.1,0,1.6-0.1c0.1,0,0.3,0,0.3-0.2c0-0.2-0.3-0.2-0.4-0.3c0,0-0.1,0-0.1,0c-0.4-0.1-0.7-0.4-1-0.6
		c-0.2-0.2-0.4-0.4-0.6-0.7c-0.1-0.1-0.2-0.3-0.3-0.4c-0.9-1.4-1.9-2.8-2.8-4.2c-0.2-0.3-0.4-0.5-0.5-0.8c0.3-0.2,0.6-0.3,0.9-0.6
		c0.9-0.7,1.5-1.6,1.6-2.6C49.8,3.1,49.6,2.1,48.8,1.3 M101.3,2.2c0-1.4,1.3-0.9,1.3-1.4c0-0.2-0.5-0.2-0.6-0.2
		c-0.6,0-1.3,0.1-1.9,0.1c-0.5,0-1-0.1-1.6-0.1c-0.1,0-0.4,0.1-0.4,0.2c0,0.6,1.6,0.2,1.6,1.3v6.7c0,3.1,1,6,6.3,6
		c5.8,0,5.6-4.9,5.6-5.9V2.7c0-1.8,1.2-1.4,1.2-2c0-0.1-0.2-0.2-0.3-0.2c-0.4,0-0.7,0.1-1.1,0.1c-0.8,0-1.6-0.1-2.3-0.1
		c-0.1,0-0.2,0.1-0.2,0.2c0,0.8,1.9-0.1,1.9,2v6.5c0,2.4-0.9,4.8-4.6,4.8c-2.7,0-4.8-1.5-4.8-4.6V2.2z M116,11.8
		c0,2.8-1.8,1.9-1.8,2.6c0,0.1,0,0.2,0.3,0.2c0.1,0,1.2-0.1,1.9-0.1c1,0,1.5,0.1,2,0.1c0.2,0,0.2-0.2,0.2-0.3c0-0.5-1.8,0.2-1.8-1.6
		V4.6c0-0.4,0.1-0.5,0.1-0.5c0.1,0,0.4,0.3,0.4,0.4l8.6,9.7c0.4,0.5,0.6,0.6,0.8,0.6c0.2,0,0.2-0.3,0.2-0.9V2.3
		c0-1.5,1.2-1.1,1.2-1.6c0-0.1-0.1-0.2-0.2-0.2c-0.5,0-1.3,0.1-2,0.1c-0.6,0-1.2-0.1-1.8-0.1c-0.1,0-0.2,0.1-0.2,0.2
		c0,0.7,2.2-0.1,2.2,2.5v8.3c0,0.2,0,0.2-0.1,0.2c0,0-0.1-0.1-0.2-0.2L116.3,1c-0.1-0.1-0.3-0.5-0.5-0.5c-0.3,0-0.6,0.1-0.9,0.1
		c-0.3,0-0.6-0.1-0.9-0.1c-0.1,0-0.3,0.1-0.3,0.2c0,0.7,2.4-0.4,2.4,3.7V11.8z M131.3,12.5c0,2-1.6,1.3-1.6,1.9
		c0,0.2,0.1,0.3,0.4,0.3c0.3,0,0.7-0.1,1.9-0.1c0.9,0,1.7,0.1,2.2,0.1c0.3,0,0.4-0.1,0.4-0.2c0-0.6-1.8-0.1-1.8-1.5V2.2
		c0-1.5,1.4-1,1.4-1.5c0-0.2-0.1-0.2-0.4-0.2c-0.6,0-1.2,0.1-1.9,0.1c-0.7,0-1.5-0.1-2.2-0.1c-0.2,0-0.2,0-0.2,0.2
		c0,0.4,1.6,0,1.6,1.5V12.5z M142,13.7c0.2,0.4,0.4,1.3,0.7,1.3c0.3,0,0.4-0.7,0.7-1.2l5-11.8c0.6-1.3,1.1-0.8,1.1-1.3
		c0-0.2-0.1-0.3-0.3-0.3c-0.3,0-0.6,0.1-1.5,0.1c-0.4,0-0.9-0.1-1.3-0.1c-0.2,0-0.3,0.1-0.3,0.3c0,0.5,1.3,0.1,1.3,1
		c0.1,0.4-0.2,1.1-0.3,1.4l-3.5,8.6c-0.1,0.2-0.2,0.6-0.4,0.6c-0.2,0-0.3-0.5-0.8-1.5l-3.5-8.2c-0.1-0.2-0.2-0.5-0.2-0.8
		c0-0.7,0.8-0.7,0.8-1c0-0.1-0.2-0.2-0.3-0.2c-0.3,0-1,0.1-1.6,0.1c-0.6,0-1.2-0.1-1.8-0.1c-0.2,0-0.3,0.1-0.3,0.3
		c0,0.4,1,0.1,1.5,1.3L142,13.7z M153.4,2.6c0-1.3,0-1.3,1.9-1.3c0.8,0,2.9-0.1,3.4,0.6c0.3,0.5,0,1.4,0.5,1.4
		c0.1,0,0.4-0.2,0.4-2.4c0-0.2,0-0.4-0.2-0.4c-0.6,0-2.4,0.1-2.8,0.1c-0.8,0-1.9-0.1-5.7-0.1c-0.6,0-0.7,0.1-0.7,0.2
		c0,0.2,0.4,0.3,0.6,0.3c1.1,0.2,1.1,1.1,1.1,2v9.1c0,0.9,0,1.5-0.6,1.7c-0.6,0.3-0.8,0.3-0.9,0.5c0,0.2,0.1,0.2,0.3,0.2
		c0.8,0,1.6,0,2.4-0.1c1.5,0,3,0.1,4.6,0.1c0.9,0,1.3,0,1.9-0.7c0.5-0.5,1-1.2,1-1.9c0,0,0-0.2-0.2-0.2c-0.3,0-0.9,2.1-5.5,2.1
		c-1.7,0-1.5-0.5-1.5-1.7V8.5c0-0.3-0.1-0.6,0.4-0.6h3c1.7,0,1,1.8,1.6,1.8c0.1,0,0.2-0.1,0.2-0.3c0-0.5,0-1.1,0-1.6
		c0-0.6,0-1.3,0-2c0-0.2-0.1-0.4-0.2-0.4c-0.5,0,0.1,1.6-2,1.6h-2.2c-0.8,0-0.8,0-0.8-0.7V2.6z M171.7,12.5c1.4,2.2,2.4,1.5,2.4,1.9
		c0,0.2-1.1,0.2-1.3,0.2c-1.5,0-2.2-1-3-2.2L167.6,9c-0.7-1.1-0.4-1.1-2.7-1.1c-0.6,0-0.5,0.4-0.5,0.6v4.2c0,1.7,2.1,1.1,2.1,1.8
		c0,0.2-0.2,0.2-0.3,0.2c-0.2,0-0.6-0.1-2.3-0.1c-0.8,0-1.5,0.1-2.3,0.1c-0.1,0-0.2-0.1-0.2-0.2c0-0.5,1.5-0.2,1.5-1.7V2.6
		c0-1.9-1.7-1.1-1.7-1.8c0-0.1,0.2-0.2,0.4-0.2c0.4,0,0.3,0.1,1.3,0.1c1.1,0,2.3-0.1,3.3-0.1c0.3,0,4.7-0.4,4.7,3.5
		c0,1.6-1.1,2.9-2.5,3.4L171.7,12.5z M164.4,7c0,0.4,1.2,0.3,2.2,0.3c0.9,0,2.8-0.4,2.8-2.8c0-2.4-1.9-3.2-3.8-3.2
		c-0.7,0-1.1,0-1.1,0.7V7z M175.2,13.7c0.1,0.4,1.9,1.1,3.4,1.1c4.6,0,5.7-2.5,5.7-4.2c0-5.5-8.1-3.3-8.1-7.1c0-1.8,1.7-2.6,3.3-2.6
		c1.8,0,3.2,0.9,3.8,2.6c0.1,0.2,0.2,0.6,0.4,0.6c0.2,0,0.2-0.1,0.2-0.3l-0.3-2.7c0-0.2-0.1-0.3-0.2-0.3c-0.2,0-0.2,0.2-0.4,0.2
		c-0.3,0-0.9-0.7-3.4-0.7c-2.3,0-4.4,1.2-4.4,3.8c0,5.2,8.1,3.1,8.1,6.9c0,2.1-1.9,3.2-3.8,3.2c-2.8,0-4-2.1-4.2-3
		c-0.1-0.4-0.1-0.7-0.4-0.7c-0.2,0-0.3,0.2-0.2,0.6L175.2,13.7z M186.6,12.5c0,2-1.6,1.3-1.6,1.9c0,0.2,0.1,0.3,0.4,0.3
		c0.3,0,0.7-0.1,1.9-0.1c0.9,0,1.7,0.1,2.2,0.1c0.3,0,0.4-0.1,0.4-0.2c0-0.6-1.8-0.1-1.8-1.5V2.2c0-1.5,1.4-1,1.4-1.5
		c0-0.2-0.1-0.2-0.4-0.2c-0.6,0-1.2,0.1-1.9,0.1c-0.7,0-1.5-0.1-2.2-0.1c-0.2,0-0.2,0-0.2,0.2c0,0.4,1.6,0,1.6,1.5V12.5z
		 M196.6,12.9c0,1.2-1.6,1-1.6,1.5c0,0.2,0.1,0.3,0.2,0.3c0.1,0,0.5-0.1,2.7-0.1c0.6,0,1.1,0.1,1.6,0.1c0.2,0,0.2-0.2,0.2-0.2
		c0-0.6-1.6,0-1.6-1.6V2.6c0-1.1-0.1-1,0.8-1h2.9c2.1,0,1,1.5,1.7,1.5c0.3,0,0.2-0.2,0.2-0.4l-0.1-1.6c0-0.5-0.1-0.6-0.6-0.6
		c-0.4,0-2.2,0.1-5.9,0.1c-2.6,0-4.1-0.1-5.7-0.1c-0.4,0-0.3,0.5-0.4,0.8L191,3.2c0,0.1,0.1,0.2,0.2,0.2c0.3,0,0.3-0.3,0.3-0.5
		c0.4-1.1,0.4-1.4,1.6-1.4h3.3c0.3,0,0.2,0.8,0.2,0.9V12.9z M209.1,7.1c0.2,0.2,0.5,0.6,0.5,1v4.8c0,1.4-1.5,0.9-1.5,1.5
		c0,0.2,0.1,0.2,0.3,0.2s0.9-0.1,1.8-0.1c0.7,0,1.9,0.1,2.2,0.1c0.3,0,0.5,0,0.5-0.2c0-0.6-1.6-0.1-1.6-1.8V7.8
		c0-0.3,0.2-0.4,0.5-0.9l2.8-4.3c0.3-0.5,0.6-1.1,1.1-1.4c0.1-0.1,0.5-0.2,0.5-0.4c0-0.1-0.1-0.2-0.2-0.2c-0.6,0-1.2,0.1-1.7,0.1
		c-0.5,0-1-0.1-1.5-0.1c-0.2,0-0.4,0-0.4,0.3c0,0.5,1.5,0.1,1.5,1c0,0.5-0.3,0.9-0.4,1.1l-2.1,3.3c-0.2,0.3-0.3,0.4-0.4,0.4
		c-0.1,0-0.2-0.1-0.4-0.4L208,2.5c-0.1-0.2-0.4-0.5-0.4-0.8c0-0.6,0.9-0.6,0.9-0.9c0-0.2-0.2-0.2-0.4-0.2c-0.2,0-0.7,0.1-1.4,0.1
		c-1.4,0-1.7-0.1-2.3-0.1c-0.1,0-0.3,0.2-0.3,0.3c0,0.3,1,0.1,1.5,1L209.1,7.1z M22.2,1.9c-1.5-0.7-3-1.3-4.7-1.5
		c-0.8-0.1-1.6-0.2-2.5-0.1c-1.2,0.1-2.5,0.2-3.7,0.6C9.1,1.6,7,2.7,5.3,4.4C3.8,5.7,2.6,7.3,1.8,8.9c-0.4,0.8-0.7,1.6-1,2.4
		c-0.3,0.9-0.6,1.9-0.7,2.9c0,0.1-0.1,0.2,0,0.3l0.7,0h4.6l0.2-0.1c0.1-0.7,0.1-1.2,0.3-1.9c0.1-0.5,0.2-1.1,0.3-1.6
		c0.3-0.9,0.6-1.9,1-2.7C7.4,7.9,7.5,7.4,7.8,7c0.7-1.2,1.5-2.3,2.5-3.3c1.1-0.9,2.4-1.8,3.8-2c0.7-0.2,1.4-0.2,2.1-0.1
		c1.2,0.1,2.2,0.6,3.2,1.3c1.5,1,2.6,2.3,3.4,3.8c0.7,1.1,1.2,2.2,1.6,3.4c0.4,1.4,0.8,2.7,1,4.2c0,0.1,0,0.2,0.1,0.2
		c1.6,0,3.4,0,5.1,0l0.3,0c-0.2-1.6-0.7-3.2-1.4-4.6C28.1,6.5,25.4,3.6,22.2,1.9 M13.9,7.7c-0.4,0-0.8,0-1.2,0c0,0.3,0,0.6,0,0.8
		c0,0.7,0.1,1.4,0.2,2c0,0.2,0,0.4,0,0.6c0.1,1.9,0.2,3.7,0.3,5.7c0,0.3,0,0.5,0,0.8c0,1.1,0.1,2.3,0,3.4c0.1,1.9,0,3.7,0,5.5
		c-0.1,0.3,0.1,0.7,0,1c0,1.2-0.1,2.3-0.2,3.4c-0.1,0.3,0,0.5-0.2,0.8c-0.2,0.2-0.5,0.1-0.7,0c-2.1-1.1-3.8-3.2-4.8-5.4
		c-0.1-0.1,0-0.2-0.1-0.2c0,0,0-0.1,0-0.1c-0.5-1-0.9-2.1-1.2-3.3c-0.3-1-0.5-2.1-0.6-3.2l-0.4,0l-5,0l0,0c0.2,1,0.4,2,0.7,2.9
		c0.9,2.9,2.7,5.6,5.2,7.7c0.7,0.5,1.3,1,2,1.4C8.4,32,9,32.2,9.6,32.5c1,0.4,2,0.7,3.1,0.9c0.1,0,0.2,0.1,0.3,0l0,0
		c0.6,0.1,1.3,0.1,1.9,0.2c3.4,0.1,6.4-0.9,9-2.7c1-0.7,1.9-1.5,2.7-2.4c0.6-0.7,1.2-1.4,1.6-2.1c0.9-1.4,1.5-2.9,2-4.5
		c0.2-0.7,0.4-1.3,0.5-2c0-0.1,0.1-0.3,0-0.4h-1.7l-3.7,0l-0.1,0c-0.2,2-0.7,4-1.5,5.8c0,0.1-0.1,0.2-0.1,0.3
		c-0.5,1.1-1.1,2.2-1.8,3.1c-0.4,0.5-0.7,0.9-1.2,1.4c-0.5,0.4-1,0.9-1.5,1.2c-0.3,0.2-0.6,0.5-1,0.4c-0.5-0.3-0.3-0.9-0.4-1.4
		c-0.1-1.3-0.2-2.6-0.2-4l0,0c-0.1-1.2,0-2.6-0.1-3.7c0-1.9,0-3.7,0.1-5.6l0-1.3l0-0.1c0.1-2.6,0.3-5.1,0.4-7.7
		c-0.1-0.1,0.1-0.2,0-0.3L13.9,7.7z M216,18.2H40v0.9h176V18.2z M45.6,22.1c-3.4,0-5.8,2.7-5.8,6.1c0,3.3,2.4,5.6,5.7,5.6
		c3.6,0,4.8-1.2,4.8-1.3l0.4-1.6c0-0.1-0.1-0.2-0.1-0.2c-0.1,0-0.2,0.1-0.2,0.2c-0.2,0.7-1.8,2.3-4.3,2.3c-3.1,0-4.7-2.8-4.7-5.6
		c0-3,1.5-5.1,4.7-5.1c2.1,0,3.2,1,4.2,2.8c0.1,0.1,0.2,0.5,0.4,0.5c0.3,0,0.1-0.5,0.1-1.4c0-1,0-1.3-0.2-1.3
		c-0.2,0-0.3,0.2-0.4,0.2C49.4,23.3,48.6,22.1,45.6,22.1 M52.8,27.4c0-2.5,1.5-4.8,4.3-4.8c3.1,0,5.1,2.8,5.1,5.8
		c0,3-1.9,4.9-4.2,4.9C54.7,33.3,52.8,30.4,52.8,27.4 M51.6,27.9c0,3.4,2.1,5.9,5.6,5.9c3.6,0,6.1-2.3,6.1-6c0-3.3-2.5-5.7-5.8-5.7
		C54.2,22.1,51.6,24.5,51.6,27.9 M66.6,23.8c0-1.4,1.2-1,1.2-1.4c0-0.2-0.1-0.2-0.3-0.2c-0.2,0-0.6,0.1-1.5,0.1
		c-0.8,0-1.3-0.1-1.6-0.1c-0.2,0-0.3,0-0.3,0.2c0,0.3,1.4,0.2,1.4,1v8.2c0,0.8,0,1.2-0.4,1.4c-0.5,0.3-0.7,0.2-0.7,0.4
		c0,0.1,0.1,0.2,0.2,0.2c0.6,0,1.3,0,2-0.1c1.2,0,2.4,0.1,3.7,0.1c0.7,0,1.1,0,1.6-0.5c0.4-0.4,0.8-1,0.8-1.6c0,0,0-0.2-0.1-0.2
		c-0.2,0-0.8,1.7-4.5,1.7c-1.3,0-1.2-0.4-1.2-1.3V23.8z M75.6,23.8c0-1.4,1.2-1,1.2-1.4c0-0.2-0.1-0.2-0.3-0.2
		c-0.2,0-0.6,0.1-1.5,0.1c-0.8,0-1.3-0.1-1.6-0.1c-0.2,0-0.3,0-0.3,0.2c0,0.3,1.4,0.2,1.4,1v8.2c0,0.8,0,1.2-0.5,1.4
		c-0.5,0.3-0.7,0.2-0.7,0.4c0,0.1,0.1,0.2,0.2,0.2c0.6,0,1.3,0,2-0.1c1.2,0,2.4,0.1,3.7,0.1c0.7,0,1.1,0,1.6-0.5
		c0.4-0.4,0.8-1,0.8-1.6c0,0,0-0.2-0.1-0.2c-0.2,0-0.8,1.7-4.5,1.7c-1.4,0-1.2-0.4-1.2-1.3V23.8z M84.6,23.9c0-1.1,0-1,1.5-1
		c0.6,0,2.3-0.1,2.7,0.4c0.3,0.4,0,1.1,0.4,1.1c0.1,0,0.3-0.1,0.3-1.9c0-0.2,0-0.3-0.2-0.3c-0.5,0-2,0.1-2.3,0.1
		c-0.7,0-1.5-0.1-4.6-0.1c-0.5,0-0.6,0.1-0.6,0.2c0,0.2,0.4,0.2,0.5,0.3c0.9,0.1,0.9,0.9,0.9,1.6v7.3c0,0.8,0,1.2-0.5,1.4
		c-0.5,0.3-0.7,0.2-0.7,0.4c0,0.1,0.1,0.2,0.2,0.2c0.6,0,1.3,0,2-0.1c1.2,0,2.5,0.1,3.7,0.1c0.7,0,1.1,0,1.6-0.5
		c0.4-0.4,0.8-1,0.8-1.6c0,0,0-0.2-0.1-0.2c-0.2,0-0.8,1.7-4.5,1.7c-1.4,0-1.2-0.4-1.2-1.3v-3c0-0.2,0-0.5,0.3-0.5h2.4
		c1.4,0,0.8,1.4,1.3,1.4c0.1,0,0.2-0.1,0.2-0.2c0-0.4,0-0.9,0-1.3c0-0.5,0-1.1,0-1.6c0-0.1,0-0.3-0.2-0.3c-0.4,0,0,1.3-1.6,1.3h-1.7
		c-0.6,0-0.6,0-0.6-0.5V23.9z M99.6,27.7c-0.1,0-0.4,0-0.4,0.2c0,0.4,1.4,0.1,1.4,0.8v2.5c0,1.4-1.9,2.1-3.4,2.1
		c-3.1,0-4.8-2.7-4.8-5.6c0-2.7,1.4-5.1,4.3-5.1c3.8,0,4.5,3.1,4.9,3.1c0.2,0,0.2-0.2,0.2-0.3l-0.2-2.1c0-0.1,0-0.4-0.2-0.4
		c-0.2,0-0.2,0.3-0.4,0.3c-0.4,0-1.3-1.1-4-1.1c-3.4,0-6,2.4-6,5.9c0,3.6,2.2,5.8,5.8,5.8c2.9,0,3.3-1.1,5-1.6v-3.3
		c0-1.1,0.8-0.7,0.8-1c0-0.2-0.3-0.1-0.4-0.1H99.6z M106.3,23.9c0-1.1,0-1,1.5-1c0.6,0,2.3-0.1,2.7,0.4c0.3,0.4,0,1.1,0.4,1.1
		c0.1,0,0.3-0.1,0.3-1.9c0-0.2,0-0.3-0.2-0.3c-0.5,0-2,0.1-2.3,0.1c-0.7,0-1.5-0.1-4.6-0.1c-0.5,0-0.6,0.1-0.6,0.2
		c0,0.2,0.4,0.2,0.5,0.3c0.9,0.1,0.9,0.9,0.9,1.6v7.3c0,0.8,0,1.2-0.4,1.4c-0.5,0.3-0.7,0.2-0.7,0.4c0,0.1,0.1,0.2,0.2,0.2
		c0.6,0,1.3,0,2-0.1c1.2,0,2.4,0.1,3.7,0.1c0.7,0,1.1,0,1.6-0.5c0.4-0.4,0.8-1,0.8-1.6c0,0,0-0.2-0.1-0.2c-0.2,0-0.8,1.7-4.5,1.7
		c-1.4,0-1.2-0.4-1.2-1.3v-3c0-0.2,0-0.5,0.3-0.5h2.4c1.3,0,0.8,1.4,1.3,1.4c0.1,0,0.2-0.1,0.2-0.2c0-0.4,0-0.9,0-1.3
		c0-0.5,0-1.1,0-1.6c0-0.1,0-0.3-0.2-0.3c-0.4,0,0,1.3-1.6,1.3h-1.7c-0.6,0-0.6,0-0.6-0.5V23.9z M117.8,27.4c0-2.5,1.5-4.8,4.3-4.8
		c3.1,0,5.1,2.8,5.1,5.8c0,3-1.9,4.9-4.2,4.9C119.7,33.3,117.8,30.4,117.8,27.4 M116.6,27.9c0,3.4,2.1,5.9,5.6,5.9
		c3.6,0,6.1-2.3,6.1-6c0-3.3-2.5-5.7-5.8-5.7C119.2,22.1,116.6,24.5,116.6,27.9 M131.7,23.9c0-1.1,0-1,1.5-1c0.6,0,2.3-0.1,2.7,0.4
		c0.3,0.4,0,1.1,0.4,1.1c0.1,0,0.3-0.1,0.3-1.9c0-0.2,0-0.3-0.2-0.3c-0.5,0-2,0.1-2.3,0.1c-0.7,0-1.5-0.1-4.6-0.1
		c-0.5,0-0.6,0.1-0.6,0.2c0,0.2,0.4,0.2,0.5,0.3c0.9,0.1,0.9,0.9,0.9,1.6v7.4c0,1.8-1.2,1.3-1.2,1.8c0,0,0,0.1,0.2,0.1
		c0.3,0,0.9-0.1,1.7-0.1c1.5,0,1.7,0.1,1.8,0.1c0.1,0,0.4,0,0.4-0.2c0-0.4-1.5,0-1.5-1.5v-3.3c0-0.2-0.1-0.5,0.3-0.5h2.4
		c1.4,0,0.8,1.4,1.3,1.4c0.1,0,0.2-0.1,0.2-0.2c0-0.4,0-0.9,0-1.3c0-0.5,0-1.1,0-1.6c0-0.1,0-0.3-0.2-0.3c-0.4,0,0.1,1.3-1.6,1.3
		h-1.7c-0.6,0-0.6,0-0.6-0.5V23.9z M143.1,31.4c0,2.3-1.4,1.5-1.4,2.1c0,0.1,0,0.2,0.2,0.2c0.1,0,1-0.1,1.5-0.1
		c0.8,0,1.2,0.1,1.6,0.1c0.2,0,0.2-0.1,0.2-0.2c0-0.4-1.4,0.1-1.4-1.3v-6.6c0-0.3,0.1-0.4,0.1-0.4c0.1,0,0.3,0.3,0.3,0.3l6.9,7.8
		c0.3,0.4,0.5,0.4,0.6,0.4c0.1,0,0.1-0.2,0.1-0.7v-9.3c0-1.2,1-0.9,1-1.3c0-0.1-0.1-0.1-0.2-0.1c-0.4,0-1.1,0.1-1.6,0.1
		c-0.5,0-1-0.1-1.5-0.1c-0.1,0-0.2,0-0.2,0.2c0,0.5,1.8-0.1,1.8,2v6.7c0,0.1,0,0.2,0,0.2c0,0-0.1-0.1-0.2-0.2l-7.7-8.5
		c-0.1-0.1-0.2-0.4-0.4-0.4c-0.2,0-0.5,0.1-0.7,0.1c-0.3,0-0.5-0.1-0.8-0.1c-0.1,0-0.2,0.1-0.2,0.2c0,0.6,2-0.3,2,3V31.4z
		 M156.5,23.6c0-1.2,1.1-0.7,1.1-1.2c0-0.2-0.4-0.2-0.5-0.2c-0.5,0-1,0.1-1.5,0.1c-0.4,0-0.8-0.1-1.3-0.1c-0.1,0-0.4,0-0.4,0.2
		c0,0.5,1.3,0.1,1.3,1.1v5.4c0,2.5,0.8,4.8,5,4.8c4.7,0,4.5-4,4.5-4.8v-5c0-1.5,1-1.1,1-1.6c0-0.1-0.1-0.2-0.2-0.2
		c-0.3,0-0.6,0.1-0.9,0.1c-0.6,0-1.3-0.1-1.9-0.1c0,0-0.2,0.1-0.2,0.2c0,0.6,1.5-0.1,1.5,1.6v5.2c0,1.9-0.7,3.9-3.7,3.9
		c-2.2,0-3.8-1.2-3.8-3.7V23.6z M169.3,23.4c0-0.6,0.3-0.6,0.9-0.6c1.6,0,3.1,0.7,3.1,2.6c0,2-1.5,2.3-2.2,2.3
		c-0.8,0-1.8,0.1-1.8-0.2V23.4z M172.4,27.8c1.1-0.5,2-1.5,2-2.8c0-3.1-3.6-2.8-3.8-2.8c-0.8,0-1.8,0.1-2.7,0.1
		c-0.8,0-0.7-0.1-1-0.1c-0.2,0-0.3,0.1-0.3,0.2c0,0.5,1.4-0.1,1.4,1.4v8.2c0,1.2-1.2,1-1.2,1.4c0,0.1,0.1,0.2,0.2,0.2
		c0.6,0,1.2-0.1,1.8-0.1c1.3,0,1.7,0.1,1.9,0.1c0.1,0,0.3,0,0.3-0.1c0-0.5-1.7,0-1.7-1.4v-3.4c0-0.2-0.1-0.4,0.4-0.4
		c1.8,0,1.6,0,2.1,0.9l1.8,2.8c0.6,0.9,1.2,1.7,2.4,1.7c0.1,0,1,0,1-0.2c0-0.4-0.8,0.2-1.9-1.6L172.4,27.8z M177.9,32.9
		c0.1,0.3,1.5,0.9,2.7,0.9c3.7,0,4.6-2,4.6-3.4c0-4.4-6.5-2.7-6.5-5.7c0-1.5,1.4-2.1,2.6-2.1c1.4,0,2.6,0.7,3.1,2.1
		c0,0.1,0.2,0.5,0.3,0.5c0.2,0,0.2-0.1,0.2-0.2l-0.2-2.2c0-0.2-0.1-0.2-0.2-0.2c-0.2,0-0.2,0.2-0.3,0.2c-0.2,0-0.8-0.6-2.7-0.6
		c-1.9,0-3.6,1-3.6,3c0,4.2,6.5,2.5,6.5,5.6c0,1.7-1.5,2.5-3,2.5c-2.2,0-3.2-1.7-3.4-2.4c-0.1-0.3-0.1-0.5-0.3-0.5
		c-0.2,0-0.2,0.2-0.2,0.5L177.9,32.9z M187.8,31.9c0,1.6-1.3,1.1-1.3,1.5c0,0.2,0,0.2,0.3,0.2c0.2,0,0.6-0.1,1.5-0.1
		c0.7,0,1.4,0.1,1.8,0.1c0.3,0,0.3,0,0.3-0.2c0-0.5-1.4-0.1-1.4-1.2v-8.6c0-1.2,1.2-0.8,1.2-1.2c0-0.1,0-0.2-0.3-0.2
		c-0.5,0-1,0.1-1.5,0.1c-0.6,0-1.2-0.1-1.8-0.1c-0.1,0-0.2,0-0.2,0.2c0,0.4,1.3,0,1.3,1.2V31.9z M193.2,31.4c0,2.3-1.4,1.5-1.4,2.1
		c0,0.1,0,0.2,0.2,0.2c0.1,0,0.9-0.1,1.5-0.1c0.8,0,1.2,0.1,1.6,0.1c0.2,0,0.2-0.1,0.2-0.2c0-0.4-1.4,0.1-1.4-1.3v-6.6
		c0-0.3,0-0.4,0.1-0.4c0.1,0,0.3,0.3,0.3,0.3l6.9,7.8c0.3,0.4,0.5,0.4,0.6,0.4c0.1,0,0.1-0.2,0.1-0.7v-9.3c0-1.2,1-0.9,1-1.3
		c0-0.1-0.1-0.1-0.2-0.1c-0.4,0-1.1,0.1-1.6,0.1c-0.5,0-1-0.1-1.5-0.1c-0.1,0-0.2,0-0.2,0.2c0,0.5,1.8-0.1,1.8,2v6.7
		c0,0.1,0,0.2,0,0.2s-0.1-0.1-0.2-0.2l-7.7-8.5c-0.1-0.1-0.2-0.4-0.4-0.4c-0.2,0-0.5,0.1-0.7,0.1c-0.3,0-0.5-0.1-0.8-0.1
		c-0.1,0-0.2,0.1-0.2,0.2c0,0.6,1.9-0.3,1.9,3V31.4z M212.8,27.7c-0.1,0-0.4,0-0.4,0.2c0,0.4,1.4,0.1,1.4,0.8v2.5
		c0,1.4-1.9,2.1-3.4,2.1c-3.1,0-4.7-2.7-4.7-5.6c0-2.7,1.4-5.1,4.3-5.1c3.8,0,4.5,3.1,4.9,3.1c0.2,0,0.2-0.2,0.2-0.3l-0.2-2.1
		c0-0.1,0-0.4-0.2-0.4c-0.2,0-0.2,0.3-0.4,0.3c-0.5,0-1.3-1.1-4-1.1c-3.4,0-6,2.4-6,5.9c0,3.6,2.2,5.8,5.8,5.8c2.9,0,3.3-1.1,5-1.6
		v-3.3c0-1.1,0.8-0.7,0.8-1c0-0.2-0.3-0.1-0.4-0.1H212.8z"/>
</g>
<g id="Layer_2">
</g>
</svg>
