<?xml version="1.0" encoding="utf-8"?>
<!-- Generator: Adobe Illustrator 18.1.1, SVG Export Plug-In . SVG Version: 6.00 Build 0)  -->
<svg version="1.1" xmlns="http://www.w3.org/2000/svg" xmlns:xlink="http://www.w3.org/1999/xlink" x="0px" y="0px" width="32.4px"
	 height="32.3px" viewBox="0 0 32.4 32.3" enable-background="new 0 0 32.4 32.3" xml:space="preserve">
<g id="Layer_1">
	<path fill="#757575" d="M12,24.1c2.4,0,4.8-0.7,6.7-2.1l10.1,10.1c0.3,0.3,1,0.3,1.4-0.2l1.7-1.7c0.4-0.4,0.5-1.1,0.2-1.4L22,18.7
		c1.3-2,2-4.3,2-6.7c0-3.2-1.3-6.2-3.5-8.5C18.3,1.3,15.2,0,12,0C8.8,0,5.8,1.3,3.5,3.5S0,8.8,0,12s1.3,6.2,3.5,8.5
		C5.8,22.8,8.8,24.1,12,24.1z M12,3.3c4.8,0,8.8,3.9,8.8,8.8s-3.9,8.8-8.8,8.8c-4.8,0-8.8-3.9-8.8-8.8S7.2,3.3,12,3.3z"/>
</g>
<g id="Layer_2">
</g>
</svg>
