<?xml version="1.0" encoding="utf-8"?>
<!-- Generator: Adobe Illustrator 18.1.1, SVG Export Plug-In . SVG Version: 6.00 Build 0)  -->
<svg version="1.1" xmlns="http://www.w3.org/2000/svg" xmlns:xlink="http://www.w3.org/1999/xlink" x="0px" y="0px" width="50.8px"
	 height="40.9px" viewBox="0 0 50.8 40.9" enable-background="new 0 0 50.8 40.9" xml:space="preserve">
<g id="Layer_1">
	<g>
		<path d="M45.7,11.5c0-0.4,0-0.9,0-1.3c2-1.5,3.8-3.3,5.2-5.3c-1.9,0.8-3.9,1.4-6,1.6c2.2-1.3,3.8-3.3,4.6-5.7
			c-2,1.2-4.3,2-6.6,2.5c-1.9-2-4.6-3.3-7.6-3.3c-5.8,0-10.4,4.6-10.4,10.3c0,0.8,0.1,1.6,0.3,2.4C16.4,12.2,8.7,8.1,3.5,1.9
			C2.6,3.4,2.1,5.2,2.1,7.1c0,3.6,1.8,6.7,4.6,8.6c-1.7-0.1-3.3-0.5-4.7-1.3v0.1c0,5,3.6,9.2,8.4,10.1C9.5,24.8,8.6,25,7.7,25
			c-0.7,0-1.3-0.1-2-0.2c1.3,4.1,5.2,7.1,9.7,7.2c-3.6,2.8-8.1,4.4-12.9,4.4c-0.8,0-1.7,0-2.5-0.1c4.6,2.9,10.1,4.6,16,4.6
			C35.2,40.9,45.7,25.1,45.7,11.5z"/>
	</g>
</g>
<g id="Layer_2">
</g>
</svg>
