<?xml version="1.0" encoding="utf-8"?>
<!-- Generator: Adobe Illustrator 18.1.1, SVG Export Plug-In . SVG Version: 6.00 Build 0)  -->
<svg version="1.1" xmlns="http://www.w3.org/2000/svg" xmlns:xlink="http://www.w3.org/1999/xlink" x="0px" y="0px" width="21px"
	 height="13px" viewBox="0 0 21 13" enable-background="new 0 0 21 13" xml:space="preserve">
<g id="Layer_1">
	<path d="M4.5,13v-1.6H3.2v-1.2h3.4v1.2H5.2V13h10.5v-1.6h-1.3v-1.2h3.4v1.2h-1.3V13H21V0H0v13H4.5z M10,3.4H19v1.2H10V3.4z M10,5.7
		H19v1.2H10V5.7z M2.3,2.3h5.3v4.9C7.5,7.1,7.3,7,7,7C6.8,6.8,6.5,6.7,6.2,6.6C6.1,6.6,6,6.6,6,6.5C5.9,6.5,5.8,6.3,5.7,6.1
		c-0.1,0-0.1,0-0.2,0C5.6,6,5.7,6,5.7,5.8c0-0.1,0-0.3,0.1-0.4c0-0.1,0.1-0.1,0.2-0.1C6,5.3,6,5.2,6,5.1c0-0.1,0-0.3,0-0.4
		C6,4.6,6,4.6,5.9,4.5c0-0.1,0-0.4,0-0.5c0-0.2,0-0.4,0-0.5c0,0-0.1-0.2-0.1-0.2l-0.2,0L5.5,3.1C5.1,2.9,4.6,3,4.3,3.1
		C4,3.3,3.8,3.8,3.9,4.5c0,0.1-0.1,0.2-0.1,0.3c0,0.2,0,0.5,0.2,0.6c0,0,0.1,0,0.1,0c0,0.1,0,0.3,0,0.4C4.2,6,4.3,6,4.3,6.1l-0.1,0
		C4.2,6.3,4.1,6.5,4,6.5c-0.1,0-0.2,0-0.2,0.1C3.5,6.7,3.2,6.8,2.9,7C2.7,7,2.5,7.1,2.3,7.2V2.3z"/>
</g>
<g id="Layer_2">
</g>
</svg>
