<?xml version="1.0" encoding="utf-8"?>
<!-- Generator: Adobe Illustrator 18.1.1, SVG Export Plug-In . SVG Version: 6.00 Build 0)  -->
<svg version="1.1" xmlns="http://www.w3.org/2000/svg" xmlns:xlink="http://www.w3.org/1999/xlink" x="0px" y="0px" width="22.2px"
	 height="19.3px" viewBox="0 0 22.2 19.3" enable-background="new 0 0 22.2 19.3" xml:space="preserve">
<g id="Layer_1">
	<path d="M14.7,18.4c0.3,0.3,0.6,0.4,1.1,0.4v0.5H6.4v-0.5c0.5,0,0.9-0.2,1.1-0.4c0.3-0.3,0.5-0.6,0.6-1c0.1-0.4,0.2-0.8,0.3-1.2
		h5.3c0,0.2,0.1,0.4,0.1,0.6C14,17.4,14.3,18,14.7,18.4z M0,14.4V0.6C0,0.3,0.3,0,0.6,0h20.9c0.3,0,0.6,0.3,0.6,0.6v13.8
		c0,0.3-0.3,0.6-0.6,0.6H0.6C0.3,15,0,14.7,0,14.4z M1.5,13.5h19.1v-12H1.5V13.5z"/>
</g>
<g id="Layer_2">
</g>
</svg>
