<?xml version="1.0" encoding="utf-8"?>
<!-- Generator: Adobe Illustrator 18.1.1, SVG Export Plug-In . SVG Version: 6.00 Build 0)  -->
<svg version="1.1" xmlns="http://www.w3.org/2000/svg" xmlns:xlink="http://www.w3.org/1999/xlink" x="0px" y="0px" width="24.2px"
	 height="24px" viewBox="0 0 24.2 24" enable-background="new 0 0 24.2 24" xml:space="preserve">
<g id="Layer_1">
	<path d="M16.9,10.9L9.6,6.4C9.4,6.3,9.2,6.2,8.9,6.2c-0.5,0-1,0.3-1,1.1v9.1c0,0.8,0.5,1.1,1,1.1c0.2,0,0.4-0.1,0.7-0.2l7.4-4.5
		c0.4-0.2,0.6-0.6,0.6-0.9C17.5,11.5,17.3,11.2,16.9,10.9z M16.4,12l-7.4,4.5c0,0-0.1,0-0.1,0c0,0,0-0.1,0-0.1V7.3c0,0,0-0.1,0-0.1
		c0,0,0.1,0,0.1,0l7.4,4.5c0.1,0,0.1,0.1,0.1,0.1C16.5,11.9,16.5,11.9,16.4,12z M12.1,0C5.4,0,0,5.4,0,12s5.4,12,12.1,12
		s12.1-5.4,12.1-12S18.8,0,12.1,0z M12.1,23C6,23,1,18.1,1,12S6,1,12.1,1s11.1,4.9,11.1,11S18.2,23,12.1,23z"/>
</g>
<g id="Layer_2">
</g>
</svg>
